<?xml version="1.0" encoding="UTF-8" standalone="no"?>
<svg
   id="Layer_1"
   data-name="Layer 1"
   viewBox="0 0 100 60"
   version="1.1"
   sodipodi:docname="Amrit-1.svg"
   width="100"
   height="60"
   inkscape:version="1.2.2 (732a01da63, 2022-12-09)"
   xmlns:inkscape="http://www.inkscape.org/namespaces/inkscape"
   xmlns:sodipodi="http://sodipodi.sourceforge.net/DTD/sodipodi-0.dtd"
   xmlns="http://www.w3.org/2000/svg"
   xmlns:svg="http://www.w3.org/2000/svg"
   xmlns:rdf="http://www.w3.org/1999/02/22-rdf-syntax-ns#"
   xmlns:cc="http://creativecommons.org/ns#"
   xmlns:dc="http://purl.org/dc/elements/1.1/">
  <sodipodi:namedview
     id="namedview65"
     pagecolor="#ffffff"
     bordercolor="#000000"
     borderopacity="0.25"
     inkscape:showpageshadow="2"
     inkscape:pageopacity="0.0"
     inkscape:pagecheckerboard="0"
     inkscape:deskcolor="#d1d1d1"
     showgrid="false"
     inkscape:zoom="2.2244752"
     inkscape:cx="53.270992"
     inkscape:cy="116.43196"
     inkscape:window-width="2560"
     inkscape:window-height="1369"
     inkscape:window-x="-8"
     inkscape:window-y="-8"
     inkscape:window-maximized="1"
     inkscape:current-layer="Layer_1"
     inkscape:pageshadow="2"
     height="100px" />
  <defs
     id="defs4">
    <style
       id="style2">.cls-1,.cls-4{fill:#9f8a63;}.cls-1,.cls-2,.cls-3{fill-rule:evenodd;}.cls-2{fill:#f6921e;}.cls-3{fill:#00a14e;}</style>
  </defs>
  <title
     id="title6">Azadi ka Amrit Mahotsav_E_01</title>
  <g
     id="g879"
     transform="matrix(1.1201637,0,0,1.1201637,0.53854831,-1.2357512)">
    <path
       class="cls-1"
       d="m 23.805479,19.333611 a 0.79601238,0.79601238 0 0 1 1.134196,0.09892 0.82937124,0.82937124 0 0 1 -0.04831,1.157212 0.79486209,0.79486209 0 0 1 -1.134201,-0.09893 0.83167189,0.83167189 0 0 1 0.04831,-1.157205"
       id="path8"
       style="stroke-width:0.11503" />
    <path
       class="cls-2"
       d="m 70.651724,11.97164 c -0.370398,-0.180595 -0.648771,-0.03795 -0.901836,0.07592 -2.408746,1.083587 -4.818635,1.035279 -7.337811,0.308283 -2.017631,-0.585497 -4.077844,-1.098545 -6.189794,-1.27799 -3.781067,-0.319784 -7.162968,0.988113 -10.439039,2.645713 -1.43214,0.72353 -2.837806,1.495398 -4.413725,1.853137 -1.399929,0.31519 -1.914118,-0.217413 -1.652995,-1.623079 0.219704,-1.185963 -0.04602,-1.662195 -1.187115,-2.060206 a 4.6150311,4.6150311 0 0 0 -0.953601,-0.227751 c -4.058294,-0.494639 -8.024551,0.08167 -11.948249,1.050231 l -0.317484,0.147238 c 0,0 4.432133,-0.291036 6.363505,3.605065 2.437491,-0.365805 4.885351,-0.26687 7.337806,0.07477 0.99847,0.139187 1.394175,0.669473 1.023773,1.686348 a 4.9083598,4.9083598 0 0 0 -0.25882,1.280289 c -0.102376,1.320558 0.486576,1.824387 1.779523,1.531058 a 5.7227767,5.7227767 0 0 0 1.238879,-0.402605 c 1.765725,-0.859279 3.541799,-1.695554 5.176386,-2.806752 1.735812,-1.180217 3.617711,-1.955527 5.751533,-2.185584 2.835506,-0.300229 5.672162,-0.07592 8.50422,-0.199006 2.450152,-0.106968 4.879601,-0.37155 6.958204,-1.866947 0.588955,-0.423316 1.253838,-0.817867 1.467796,-1.61043"
       id="path10"
       style="stroke-width:0.11503" />
    <path
       class="cls-3"
       d="m 70.651724,20.937133 c -0.370398,-0.180599 -0.648771,-0.03795 -0.901836,0.07592 -2.408746,1.083588 -4.818635,1.035282 -7.337811,0.308294 -2.017631,-0.584365 -4.077844,-1.098551 -6.189794,-1.276844 -3.781067,-0.320941 -7.162968,0.98811 -10.439039,2.645699 -1.43214,0.723545 -2.837806,1.495408 -4.413725,1.85315 -1.399929,0.31518 -1.914118,-0.217412 -1.652995,-1.623078 0.219704,-1.185969 -0.04602,-1.662199 -1.187115,-2.060207 A 4.6150311,4.6150311 0 0 0 37.575808,20.63806 26.268405,26.268405 0 0 0 32.543214,20.531075 c -0.05982,0.628068 -0.514197,3.866185 -3.508445,5.484668 0.365805,-0.09778 0.731593,-0.193257 1.098553,-0.280669 2.944776,-0.690186 5.907972,-0.63383 8.876911,-0.219715 0.99847,0.139191 1.394175,0.669474 1.023774,1.686351 a 4.9003074,4.9003074 0 0 0 -0.258821,1.279141 c -0.102373,1.320554 0.486583,1.824383 1.779523,1.531061 a 5.7227767,5.7227767 0 0 0 1.238879,-0.40836 c 1.765724,-0.859279 3.541802,-1.695552 5.17639,-2.806751 1.735809,-1.180218 3.617704,-1.955523 5.751526,-2.185584 2.835519,-0.300229 5.672169,-0.07592 8.504227,-0.199006 2.450145,-0.106971 4.8796,-0.371543 6.958204,-1.866948 0.588961,-0.423308 1.253831,-0.81787 1.467789,-1.61043"
       id="path12"
       style="stroke-width:0.11503" />
    <path
       class="cls-1"
       d="m 21.587689,13.736215 v 0.559047 c 0.121933,-0.05866 0.246158,-0.109274 0.37155,-0.158737 a 0.34509203,0.34509203 0 0 0 0.03104,0.106972 0.3130399,0.3130399 0 1 0 0.561356,-0.277228 c 0,-0.0092 -0.01267,-0.01494 -0.01725,-0.02299 q 0.238112,-0.06556 0.479675,-0.11504 l 0.682136,4.04909 0.326686,1.044469 0.32669,1.044486 v 0 l -0.401462,-1.020319 -0.399153,-1.019178 -2.137275,-3.852374 1.78758,4.026075 0.575157,0.934041 0.575154,0.932907 v 0 l -0.64073,-0.890345 -0.638415,-0.889178 -3.01841,-3.197865 2.727378,3.460127 0.784512,0.758053 0.784512,0.759208 -0.835124,-0.70975 -0.837427,-0.690172 -3.689033,-2.327076 3.476229,2.653762 0.940957,0.533746 0.939793,0.532589 -0.972012,-0.460129 -0.977757,-0.460115 -4.108892,-1.288356 3.991564,1.670249 1.035266,0.272629 1.035283,0.270317 v 0 l -1.049078,-0.192101 -1.050234,-0.193248 -4.256128,-0.171395 4.23428,0.57515 1.057131,-0.01036 1.057131,-0.0081 -1.049081,0.09088 -1.051383,0.08856 -4.09509,0.953609 4.188263,-0.562496 1.008822,-0.288736 1.005367,-0.28872 -0.978909,0.366942 -0.980059,0.366959 -3.674081,2.027987 3.854679,-1.662198 0.89148,-0.549847 0.888043,-0.549843 v 0 l -0.840872,0.621168 -0.843175,0.617712 -2.990806,2.956281 3.261119,-2.645696 0.709749,-0.771853 0.70973,-0.773018 v 0 l -0.647615,0.828224 -0.651081,0.828224 -2.109664,3.680982 2.444404,-3.450925 0.481978,-0.944398 0.48313,-0.940957 -0.410655,0.97777 -0.409514,0.982358 -1.022624,3.890333 A 6.3094328,6.3094328 0 0 1 21.59229,25.388826 v 0.557893 c 2.337433,1.207829 5.193644,0.970861 7.21012,-0.833969 2.676766,-2.396095 2.852769,-6.644174 0.395706,-9.491181 -1.988877,-2.293709 -5.083203,-2.973541 -7.61042,-1.885354 z m 7.441331,3.105828 a 0.31173315,0.31173315 0 0 0 0.447469,0.03912 0.30023012,0.30023012 0 0 0 0.01841,-0.0253 c 0.09087,0.149536 0.172549,0.301375 0.249618,0.460121 l -3.613113,1.55521 -0.898395,0.542945 -0.888042,0.548694 0.842028,-0.61656 0.84088,-0.617711 2.811346,-2.773394 c 0.104682,0.121936 0.199005,0.247312 0.293332,0.375009 a 0.29792949,0.29792949 0 0 0 -0.09433,0.05405 0.32783747,0.32783747 0 0 0 -0.0092,0.457826 z m 0.920245,0.920243 a 0.31288351,0.31288351 0 0 0 -0.106979,0.02647 0.3289878,0.3289878 0 0 0 0.293325,0.588966 c 0.0092,0 0.01497,-0.01267 0.02416,-0.01842 0.04946,0.165644 0.09433,0.331281 0.129979,0.499234 l -3.92599,0.52798 -1.007672,0.286432 -1.005367,0.289872 0.976603,-0.364635 0.982365,-0.365807 3.442871,-1.899152 q 0.105829,0.212803 0.196699,0.429063 z m 0.446319,3.21166 a 0.31748466,0.31748466 0 0 0 -0.108124,-0.03222 0.30368107,0.30368107 0 0 0 -0.330142,0.29562 0.34509203,0.34509203 0 0 0 0.303684,0.351991 0.29677919,0.29677919 0 0 0 0.03335,0 c -0.03566,0.164498 -0.08168,0.32669 -0.13114,0.487742 l -3.740794,-1.566716 -1.035283,-0.274925 -1.035269,-0.27148 v 0 l 1.047932,0.19556 1.049078,0.192095 3.988104,0.161049 c -0.0081,0.152992 -0.0276,0.307133 -0.04256,0.462424 z m -0.395708,1.557516 a 0.32668712,0.32668712 0 0 0 -0.09663,-0.05866 0.30253071,0.30253071 0 0 0 -0.396851,0.194397 0.33703992,0.33703992 0 0 0 0.207053,0.415263 0.28412582,0.28412582 0 0 0 0.03108,0 q -0.115036,0.220855 -0.249617,0.431367 l -3.261119,-2.488116 -0.940957,-0.533742 -0.939803,-0.534896 0.974311,0.46013 0.974314,0.460114 3.853527,1.210123 c -0.04716,0.161049 -0.100071,0.302529 -0.156444,0.445174 z m -1.948612,2.397235 a 0.31518408,0.31518408 0 0 0 -0.450925,-0.0391 0.33013805,0.33013805 0 0 0 -0.01725,0.460116 0.30943257,0.30943257 0 0 0 0.0276,0.02071 q -0.211664,0.127679 -0.432519,0.235815 l -1.678299,-3.771859 -0.57515,-0.935196 -0.575151,-0.934055 v 0 l 0.639564,0.892634 0.63957,0.891497 2.832057,2.997689 q -0.171392,0.153003 -0.345093,0.288737 a 0.34509203,0.34509203 0 0 0 -0.06441,-0.106982 z m -1.342406,0.759205 a 0.32323621,0.32323621 0 0 0 -0.427927,-0.157598 0.31863502,0.31863502 0 0 0 -0.134578,0.433672 c 0,0.01036 0.0138,0.01611 0.01956,0.0253 -0.158747,0.04372 -0.318633,0.08053 -0.479682,0.115036 l -0.690179,-4.045631 -0.324398,-1.044487 -0.325533,-1.042179 0.398011,1.016875 0.399157,1.019179 2.008431,3.613113 q -0.205903,0.10007 -0.416405,0.182897 a 0.33358898,0.33358898 0 0 0 -0.02647,-0.116184 z m -1.504608,0.364652 a 0.32668712,0.32668712 0 0 0 -0.376152,-0.261123 0.30713197,0.30713197 0 0 0 -0.240413,0.376145 c 0,0.01036 0.0081,0.01724 0.01153,0.0276 -0.165649,0 -0.331299,-0.0092 -0.496933,-0.02416 l 0.35314,-4.037581 -0.05291,-1.084738 -0.05407,-1.084741 v 0 l 0.129987,1.080146 0.134581,1.081282 1.046781,3.97892 q -0.230067,0.04025 -0.453223,0.06325 a 0.33243868,0.33243868 0 0 0 -0.0024,-0.113873 z m -0.855826,-6.096633 z m 0,0 z m 0,0 z m 0.999618,-5.684811 a 0.30253071,0.30253071 0 0 0 0.332434,-0.296787 c 0,-0.01036 0,-0.01838 0,-0.02873 q 0.241564,0.06556 0.479672,0.150683 l -1.36886,3.768407 -0.220861,1.047931 -0.222003,1.046782 0.143781,-1.066332 0.143795,-1.065185 -0.01724,-4.072088 q 0.230061,0.01956 0.460119,0.05751 a 0.31748466,0.31748466 0 0 0 -0.02647,0.106985 0.33703992,0.33703992 0 0 0 0.295635,0.350842 z m -0.592408,4.716258 0.408354,-0.980058 1.01572,-3.897238 q 0.219714,0.07936 0.433671,0.17714 a 0.31518408,0.31518408 0 0 0 -0.05522,0.09663 0.34509203,0.34509203 0 0 0 0.209362,0.417553 0.30598164,0.30598164 0 0 0 0.4003,-0.194394 0.30253071,0.30253071 0 0 0 0,-0.03566 q 0.220867,0.127685 0.433671,0.274925 l -2.287961,3.231217 -0.483129,0.943249 -0.480825,0.942092 v 0 z m -0.411816,0.981212 z m 0,0 z m 0,0 z m 0,0 z m 0,0 z m 0,0 z m 0,0 z m 0,0 z m 0,0 z m 0,0 z m 0,0 z m 0,0 z m 0,0 z m 0,0 z m 0,0 z m 0,0 z m 0,0 z m 6.029915,-0.614271 a 0.29907976,0.29907976 0 0 0 -0.115037,0 0.30943257,0.30943257 0 0 0 -0.242716,0.377302 0.33588956,0.33588956 0 0 0 0.379604,0.26343 0.2783743,0.2783743 0 0 0 0.02877,-0.01267 c 0.0069,0.170242 0.0092,0.345093 0,0.51074 l -3.960508,-0.545248 -1.057132,0.0069 -1.055978,0.01036 1.05023,-0.08742 1.049081,-0.09087 3.844323,-0.902989 c 0.03222,0.154141 0.06326,0.308279 0.08512,0.463574 z m -1.550615,-3.412954 -3.057522,2.47661 -0.707436,0.77185 -0.708583,0.773003 v 0 l 0.648763,-0.82706 0.648778,-0.82822 1.981984,-3.450924 c 0.127681,0.08858 0.251906,0.184044 0.374992,0.284128 a 0.30023012,0.30023012 0 0 0 -0.07937,0.08051 0.33703992,0.33703992 0 0 0 0.09893,0.453229 0.30368107,0.30368107 0 0 0 0.437113,-0.08168 0.30023012,0.30023012 0 0 0 0.0138,-0.03451 q 0.181748,0.17831 0.353143,0.376162 z m -4.611582,2.947082 -0.128834,-1.085891 -1.044483,-3.976603 c 0.149547,-0.0276 0.30023,-0.04947 0.450925,-0.06557 a 0.32668712,0.32668712 0 0 0 0,0.115036 0.3312884,0.3312884 0 0 0 0.377299,0.262262 0.31173315,0.31173315 0 0 0 0.241567,-0.377298 c 0,-0.0092 -0.0081,-0.01611 -0.01036,-0.0253 q 0.247312,0 0.493488,0.02071 l -0.353147,4.039873 0.05406,1.085891 0.05406,1.082436 v 0 z m 0.132282,1.080143 z m 0,0 z m 0,0 z m 0,0 z m 0,0 z m -0.442864,2.100464 0.222007,-1.04908 0.220857,-1.051384 -0.146087,1.06058 -0.143789,1.067477 0.01724,4.072092 q -0.230057,-0.02068 -0.460114,-0.05982 a 0.31633443,0.31633443 0 0 0 0.0253,-0.104679 0.33703992,0.33703992 0 0 0 -0.301379,-0.345097 0.30368107,0.30368107 0 0 0 -0.330145,0.295634 c 0,0.0092 0,0.01724 0,0.0253 -0.161039,-0.04372 -0.320938,-0.09433 -0.479675,-0.151835 z m 4.573615,2.664102 -2.551376,-3.247319 -0.785665,-0.760345 -0.785653,-0.762664 v 0 l 0.836264,0.702849 0.836278,0.701682 3.457821,2.174081 c -0.08166,0.127688 -0.166787,0.254219 -0.258821,0.376152 a 0.33703992,0.33703992 0 0 0 -0.08166,-0.08283 0.30253071,0.30253071 0 0 0 -0.437114,0.08052 0.33473934,0.33473934 0 0 0 0.09777,0.453213 0.29677919,0.29677919 0 0 0 0.02877,0.01267 c -0.113883,0.118477 -0.228909,0.235812 -0.351994,0.347396 z"
       id="path14"
       style="stroke-width:0.11503" />
    <polygon
       class="cls-1"
       points="260.66,189.18 177.1,342.46 190.75,352.32 290.53,172.49 161.54,172.49 161.54,189.18 "
       id="polygon16"
       transform="matrix(0.11503069,0,0,0.11503069,-12.957181,-15.25152)" />
    <polygon
       class="cls-1"
       points="264.08,280.62 315.87,189.18 384.96,189.18 384.96,172.49 307.42,172.49 251.03,274.17 "
       id="polygon18"
       transform="matrix(0.11503069,0,0,0.11503069,-12.957181,-15.25152)" />
    <path
       class="cls-4"
       d="m 66.962697,49.88576 c -0.447477,0 -0.708594,-0.211661 -0.708594,-0.894937 v -3.172551 h 1.955522 v -1.069781 h -1.955522 v -1.815188 h -1.418331 v 1.815188 h -0.932898 v 1.069781 h 0.932898 v 3.433665 c 0,1.356215 0.858137,1.927915 1.853144,1.927915 a 3.1782975,3.1782975 0 0 0 1.62999,-0.485427 L 67.957709,49.59933 c -0.385354,0.187498 -0.695931,0.28643 -0.995012,0.28643 z"
       id="path20"
       style="stroke-width:0.11503" />
    <path
       class="cls-4"
       d="m 70.222665,46.241581 c 0,-0.472776 0.410656,-0.659121 0.969705,-0.659121 a 3.8926384,3.8926384 0 0 1 1.90261,0.584357 l 0.522235,-1.057133 c -0.597008,-0.423313 -1.48044,-0.671779 -2.313264,-0.671779 -1.265333,0 -2.437509,0.575151 -2.437509,1.915258 -0.01259,2.388042 3.470485,1.629988 3.470485,2.990804 0,0.498078 -0.472777,0.708583 -1.082441,0.708583 -0.721245,0 -1.642635,-0.310576 -2.214342,-0.821317 l -0.510741,1.02032 c 0.660286,0.597014 1.692106,0.920247 2.662967,0.920247 1.330903,0 2.537581,-0.609665 2.537581,-1.965873 0.01265,-2.404143 -3.507286,-1.745013 -3.507286,-2.964346 z"
       id="path22"
       style="stroke-width:0.11503" />
    <path
       class="cls-4"
       d="m 77.548966,44.449411 c -1.256137,0 -1.927913,0.286421 -2.84816,0.832824 l 0.58435,0.995007 c 0.659134,-0.447468 1.318254,-0.671784 1.955524,-0.671784 1.045627,0 1.580525,0.49694 1.580525,1.330914 v 0.199 h -2.004991 c -1.592017,0.01267 -2.500757,0.78336 -2.500757,1.99003 0,1.168713 0.896089,2.052152 2.325912,2.052152 0.958204,0 1.716259,-0.286426 2.185584,-0.870776 v 0.805206 h 1.405679 l -0.01261,-4.341254 c -0.008,-1.45054 -0.966263,-2.321319 -2.671018,-2.321319 z m 1.265339,4.341251 c -0.07479,0.721241 -0.858134,1.256135 -1.878457,1.256135 -0.796014,0 -1.28144,-0.385347 -1.28144,-0.982363 0,-0.633813 0.435962,-0.883431 1.367712,-0.883431 h 1.792185 z"
       id="path24"
       style="stroke-width:0.11503" />
    <polygon
       class="cls-4"
       points="842.28,564.75 826.28,519.44 813.3,519.44 835.58,576.97 848.45,576.97 870.51,519.44 858.07,519.44 "
       id="polygon26"
       transform="matrix(0.11503069,0,0,0.11503069,-12.957181,-15.25152)" />
    <path
       class="cls-4"
       d="m 23.138304,33.636517 c -1.592024,0.01267 -2.500775,0.783363 -2.500775,1.990038 0,1.168707 0.896089,2.052148 2.325924,2.052148 0.958207,0 1.716255,-0.286425 2.185584,-0.870779 v 0.805209 h 1.405672 l -0.01267,-4.341253 c -0.01267,-1.455138 -0.97086,-2.325925 -2.674463,-2.325925 -1.256134,0 -1.927917,0.28643 -2.84816,0.83397 l 0.584354,0.995014 c 0.659121,-0.44747 1.318255,-0.671777 1.955527,-0.671777 1.044469,0 1.579364,0.496939 1.579364,1.330911 v 0.202444 z m 2.002683,1.654147 c -0.07477,0.721238 -0.85813,1.256134 -1.878458,1.256134 -0.796005,0 -1.281441,-0.385349 -1.281441,-0.982365 0,-0.633813 0.435964,-0.88343 1.367717,-0.88343 h 1.792182 z"
       id="path28"
       style="stroke-width:0.11503" />
    <path
       class="cls-4"
       d="m 33.041298,36.490438 v 1.131899 h 1.430971 V 28.39228 h -1.430971 v 3.756893 C 32.555862,31.377323 31.759854,30.9425 30.690066,30.9425 c -1.865796,0 -3.147236,1.35622 -3.147236,3.346247 0,2.015335 1.265336,3.395707 3.172539,3.395707 1.057133,0 1.853152,-0.422162 2.325929,-1.194016 z m -2.028006,0 c -1.20666,0 -2.026833,-0.896089 -2.039492,-2.152226 0.01267,-1.265336 0.845481,-2.17753 2.039492,-2.17753 1.194032,0 2.028006,0.896089 2.028006,2.17753 0,1.253831 -0.833974,2.152226 -2.028006,2.152226 z"
       id="path30"
       style="stroke-width:0.11503" />
    <rect
       class="cls-4"
       x="36.338062"
       y="31.004614"
       width="1.418329"
       height="6.6177163"
       id="rect32"
       style="stroke-width:0.11503" />
    <path
       class="cls-4"
       d="m 37.046657,29.95554 a 0.85237737,0.85237737 0 1 0 -0.832819,-0.845478 0.82131915,0.82131915 0 0 0 0.832819,0.845478 z"
       id="path34"
       style="stroke-width:0.11503" />
    <polygon
       class="cls-4"
       points="495.22,458.89 515.12,485.62 527.4,485.62 502.4,450.92 525.84,425.05 513.82,425.05 484.92,456.38 484.92,425.05 474.71,425.05 474.71,485.62 484.92,485.62 484.92,470.22 "
       id="polygon36"
       transform="matrix(0.11503069,0,0,0.11503069,-12.957181,-15.25152)" />
    <path
       class="cls-4"
       d="m 51.65096,39.963211 v 0.647624 h 1.124997 l -0.0104,-3.473928 c -0.0104,-1.165259 -0.776449,-1.861194 -2.139566,-1.861194 -1.005367,0 -1.542568,0.230058 -2.278757,0.667171 l 0.467023,0.799464 c 0.527987,-0.358892 1.054832,-0.537188 1.563269,-0.537188 0.836274,0 1.26534,0.398004 1.26534,1.065182 v 0.158744 h -1.603528 c -1.274544,0.01036 -2.00153,0.626921 -2.00153,1.593168 0,0.935209 0.716639,1.642643 1.861195,1.642643 0.766098,-0.0046 1.373461,-0.234656 1.751919,-0.701686 z m -2.538731,-0.995014 c 0,-0.507284 0.345099,-0.706287 1.095092,-0.706287 h 1.433281 v 0.487726 c -0.0598,0.57515 -0.690185,1.005366 -1.502294,1.005366 -0.633828,-10e-4 -1.024925,-0.309432 -1.024925,-0.787954 z"
       id="path38"
       style="stroke-width:0.11503" />
    <polygon
       class="cls-4"
       points="394.23,576.97 394.23,520.42 418.12,569.08 426.45,569.08 450.35,520.42 450.46,576.97 462.25,576.97 462.25,501.27 447.21,501.27 422.34,551.56 397.36,501.27 382.22,501.27 382.22,576.97 "
       id="polygon40"
       transform="matrix(0.11503069,0,0,0.11503069,-12.957181,-15.25152)" />
    <path
       class="cls-4"
       d="m 44.806628,44.449411 c -1.256137,0 -1.927913,0.286421 -2.848161,0.832824 l 0.584358,0.995007 c 0.659131,-0.447468 1.318251,-0.671784 1.955523,-0.671784 1.045632,0 1.58052,0.49694 1.58052,1.330914 v 0.199 h -2.006131 c -1.592023,0.01267 -2.500775,0.78336 -2.500775,1.99003 0,1.168713 0.896093,2.052152 2.325928,2.052152 0.958207,0 1.716255,-0.286426 2.185584,-0.870776 v 0.805206 h 1.405673 l -0.01267,-4.341254 c -0.0081,-1.45054 -0.962806,-2.321319 -2.669864,-2.321319 z m 1.265336,4.341251 c -0.07477,0.721241 -0.858126,1.256135 -1.878443,1.256135 -0.796019,0 -1.281445,-0.385347 -1.281445,-0.982363 0,-0.633813 0.435967,-0.883431 1.367714,-0.883431 h 1.791029 z"
       id="path42"
       style="stroke-width:0.11503" />
    <path
       class="cls-4"
       d="m 53.041678,44.449411 c -1.1319,0 -1.978531,0.410656 -2.450155,1.343554 v -3.911043 h -1.432131 v 9.239264 h 1.430979 v -3.262275 c 0,-1.168708 0.708594,-2.05214 1.891102,-2.070545 0.995025,0 1.592026,0.60966 1.592026,1.604678 v 3.728142 h 1.430981 v -4.120398 c 0,-1.580518 -0.92024,-2.551377 -2.462802,-2.551377 z"
       id="path44"
       style="stroke-width:0.11503" />
    <path
       class="cls-4"
       d="m 59.945826,44.449411 c -2.052153,0 -3.457827,1.356207 -3.457827,3.346243 0,1.990026 1.405674,3.370392 3.457827,3.370392 2.05214,0 3.450918,-1.367712 3.450918,-3.370392 0,-2.002689 -1.410279,-3.346243 -3.450918,-3.346243 z m 0,5.521465 c -1.194022,0 -2.028001,-0.87078 -2.028001,-2.152223 0,-1.281439 0.83283,-2.152227 2.028001,-2.152227 1.195158,0 2.015332,0.883441 2.015332,2.152227 0,1.268794 -0.838578,2.152223 -2.015332,2.152223 z"
       id="path46"
       style="stroke-width:0.11503" />
    <path
       class="cls-4"
       d="M 4.2077039,40.630388 1.1329283,47.597797 H 2.3568605 L 3.0240314,46.025326 H 6.53707 l 0.667174,1.572471 H 8.458089 L 5.4132259,40.630388 Z M 3.4611446,44.979699 4.7748039,41.884226 6.08845,44.979699 Z"
       id="path48"
       style="stroke-width:0.11503" />
    <path
       class="cls-4"
       d="m 15.973033,42.263828 c -0.965105,0 -1.672537,0.388801 -2.010733,1.274536 -0.248465,-0.805216 -0.896089,-1.274536 -1.840488,-1.274536 -0.875379,0 -1.552924,0.318635 -1.921019,1.065183 V 42.304088 H 9.065444 v 5.291411 h 1.135349 v -2.6158 c 0,-0.920244 0.556744,-1.621934 1.47355,-1.65184 0.776458,0 1.244627,0.487724 1.244627,1.294097 v 2.975841 h 1.150315 v -2.618098 c 0,-0.920244 0.54754,-1.621934 1.452836,-1.65184 0.776452,0 1.253831,0.487724 1.253831,1.294097 v 2.975841 h 1.150301 v -3.294476 c -0.01263,-1.264186 -0.739644,-2.039493 -1.95322,-2.039493 z"
       id="path50"
       style="stroke-width:0.11503" />
    <path
       class="cls-4"
       d="m 20.340755,43.357765 v -1.054833 h -1.150314 v 5.291415 h 1.150314 v -2.764194 c 0.08972,-0.90643 0.766106,-1.532204 1.831287,-1.473535 v -1.09279 c -0.835124,0 -1.472395,0.377299 -1.831287,1.093937 z"
       id="path52"
       style="stroke-width:0.11503" />
    <rect
       class="cls-4"
       x="22.86912"
       y="42.301781"
       width="1.1342027"
       height="5.2960138"
       id="rect54"
       style="stroke-width:0.11503" />
    <path
       class="cls-4"
       d="m 23.43623,40.102401 a 0.68213198,0.68213198 0 1 0 0.666029,0.690182 0.65912584,0.65912584 0 0 0 -0.666029,-0.690182 z"
       id="path56"
       style="stroke-width:0.11503" />
    <path
       class="cls-4"
       d="m 27.357623,46.611977 c -0.357742,0 -0.567102,-0.169088 -0.567102,-0.716632 v -2.53758 h 1.562122 V 42.50194 h -1.562122 v -1.453991 h -1.134199 v 1.452839 h -0.746546 v 0.85583 h 0.746546 v 2.746927 c 0,1.084739 0.690186,1.543719 1.482749,1.543719 a 2.5421784,2.5421784 0 0 0 1.30329,-0.38881 l -0.28872,-0.876533 a 1.840491,1.840491 0 0 1 -0.796018,0.230056 z"
       id="path58"
       style="stroke-width:0.11503" />
    <path
       class="cls-4"
       d="m 7.389451,35.657609 h 4.390725 l 0.832818,1.96588 h 1.567871 l -3.80637,-8.703228 H 8.869894 L 5.0267106,37.628084 H 6.55663 Z m 2.18558,-5.176378 1.642638,3.868476 H 7.936992 Z"
       id="path60"
       style="stroke-width:0.11503" />
    <polygon
       class="cls-4"
       points="287.4,449.6 253.55,449.49 286.43,410.56 286.43,402.23 239.17,402.12 239.17,412.29 271.08,412.29 238.2,451.22 238.2,459.65 287.4,459.76 "
       id="polygon62"
       transform="matrix(0.11503069,0,0,0.11503069,-12.957181,-15.25152)" />
  </g>
  <metadata
     id="metadata171">
    <rdf:RDF>
      <cc:Work
         rdf:about="">
        <dc:title>Azadi ka Amrit Mahotsav_E_01</dc:title>
      </cc:Work>
    </rdf:RDF>
  </metadata>
</svg>
