<?xml version="1.0" encoding="UTF-8" standalone="no"?>
<svg
   id="Layer_1"
   data-name="Layer 1"
   viewBox="0 0 120 70"
   version="1.1"
   sodipodi:docname="Amrit-2.svg"
   width="120"
   height="70"
   inkscape:version="1.1.2 (b8e25be833, 2022-02-05)"
   xmlns:inkscape="http://www.inkscape.org/namespaces/inkscape"
   xmlns:sodipodi="http://sodipodi.sourceforge.net/DTD/sodipodi-0.dtd"
   xmlns="http://www.w3.org/2000/svg"
   xmlns:svg="http://www.w3.org/2000/svg"
   xmlns:rdf="http://www.w3.org/1999/02/22-rdf-syntax-ns#"
   xmlns:cc="http://creativecommons.org/ns#"
   xmlns:dc="http://purl.org/dc/elements/1.1/">
  <sodipodi:namedview
     id="namedview65"
     pagecolor="#ffffff"
     bordercolor="#000000"
     borderopacity="0.25"
     inkscape:showpageshadow="2"
     inkscape:pageopacity="0.0"
     inkscape:pagecheckerboard="0"
     inkscape:deskcolor="#d1d1d1"
     showgrid="false"
     inkscape:zoom="2.2244752"
     inkscape:cx="122.05126"
     inkscape:cy="116.43196"
     inkscape:window-width="1920"
     inkscape:window-height="1017"
     inkscape:window-x="-8"
     inkscape:window-y="-8"
     inkscape:window-maximized="1"
     inkscape:current-layer="Layer_1"
     inkscape:pageshadow="2"
     height="100px" />
  <defs
     id="defs4">
    <style
       id="style2">.cls-1,.cls-4{fill:#9f8a63;}.cls-1,.cls-2,.cls-3{fill-rule:evenodd;}.cls-2{fill:#f6921e;}.cls-3{fill:#00a14e;}</style>
  </defs>
  <title
     id="title6">Azadi ka Amrit Mahotsav_E_01</title>
  <path
     class="cls-1"
     d="m 34.083485,23.416068 a 1.0164274,1.0164274 0 0 1 1.448254,0.126316 1.0590233,1.0590233 0 0 1 -0.06168,1.477643 1.0149586,1.0149586 0 0 1 -1.44826,-0.126325 1.061961,1.061961 0 0 1 0.06169,-1.477634"
     id="path8"
     style="stroke-width:0.146882" />
  <path
     class="cls-2"
     d="m 93.901409,14.015575 c -0.472962,-0.230602 -0.828416,-0.04846 -1.151554,0.09694 -3.075726,1.383632 -6.15291,1.321947 -9.369644,0.393646 -2.576311,-0.74762 -5.206994,-1.40273 -7.903741,-1.631863 -4.828041,-0.408333 -9.146387,1.26172 -13.329598,3.378308 -1.828699,0.923875 -3.623592,1.909472 -5.635881,2.366268 -1.787568,0.402466 -2.444136,-0.277614 -2.110708,-2.072508 0.28054,-1.514354 -0.05876,-2.122454 -1.515826,-2.630674 a 5.8929286,5.8929286 0 0 0 -1.217653,-0.290815 c -5.182031,-0.631605 -10.246541,0.104277 -15.256707,1.341039 l -0.405394,0.188007 c 0,0 5.659386,-0.371623 8.125553,4.603305 3.11243,-0.467097 6.2381,-0.340767 9.369637,0.09547 1.274945,0.177728 1.78022,0.85485 1.307255,2.153297 a 6.2674797,6.2674797 0 0 0 -0.330487,1.634799 c -0.130725,1.686219 0.621308,2.329558 2.27227,1.955007 a 7.3074078,7.3074078 0 0 0 1.581924,-0.514086 c 2.254652,-1.097213 4.522519,-2.165051 6.609722,-3.583939 2.216457,-1.507018 4.619452,-2.49701 7.344127,-2.79077 3.620655,-0.383362 7.242778,-0.09694 10.85903,-0.25411 3.128596,-0.136588 6.230757,-0.474432 8.884923,-2.383903 0.752036,-0.540532 1.601025,-1.044334 1.874228,-2.056357"
     id="path10"
     style="stroke-width:0.146882" />
  <path
     class="cls-3"
     d="m 93.901409,25.463604 c -0.472962,-0.230607 -0.828416,-0.04846 -1.151554,0.09694 -3.075726,1.383633 -6.15291,1.321951 -9.369644,0.39366 -2.576311,-0.746174 -5.206994,-1.402738 -7.903741,-1.6304 -4.828041,-0.40981 -9.146387,1.261716 -13.329598,3.37829 -1.828699,0.923894 -3.623592,1.909485 -5.635881,2.366286 -1.787568,0.402453 -2.444136,-0.277614 -2.110708,-2.072507 0.28054,-1.514363 -0.05876,-2.12246 -1.515826,-2.630676 a 5.8929286,5.8929286 0 0 0 -1.217653,-0.283479 33.5421,33.5421 0 0 0 -6.426114,-0.13661 c -0.07638,0.80198 -0.656577,4.936728 -4.47993,7.003368 0.467097,-0.124858 0.934171,-0.24677 1.402742,-0.358386 3.760181,-0.881298 7.543883,-0.809337 11.334919,-0.280554 1.274945,0.177733 1.78022,0.85485 1.307255,2.153299 a 6.2571976,6.2571976 0 0 0 -0.330488,1.633334 c -0.13072,1.686214 0.621317,2.329553 2.272271,1.955011 a 7.3074078,7.3074078 0 0 0 1.581924,-0.521435 c 2.254651,-1.097212 4.522523,-2.165049 6.609727,-3.583938 2.216453,-1.507019 4.619443,-2.497005 7.344118,-2.790769 3.620671,-0.383363 7.242786,-0.09694 10.859038,-0.254111 3.128588,-0.136591 6.230757,-0.474423 8.884924,-2.383904 0.752044,-0.540522 1.601016,-1.044337 1.874219,-2.056356"
     id="path12"
     style="stroke-width:0.146882" />
  <path
     class="cls-1"
     d="m 31.251591,16.268759 v 0.713846 c 0.155697,-0.0749 0.314319,-0.139532 0.474433,-0.202691 a 0.44064767,0.44064767 0 0 0 0.03964,0.136592 0.39972008,0.39972008 0 1 0 0.716794,-0.353992 c 0,-0.01178 -0.01618,-0.01907 -0.02202,-0.02936 q 0.304045,-0.08372 0.612497,-0.146894 l 0.871018,5.170279 0.417146,1.333682 0.41715,1.333703 v 0 l -0.512627,-1.302845 -0.509678,-1.301387 -2.729084,-4.919093 2.282559,5.140891 0.734417,1.192677 0.734414,1.191227 v 0 l -0.818148,-1.13688 -0.815191,-1.135391 -3.854205,-4.08335 3.482586,4.418233 1.001743,0.967956 1.001743,0.969432 -1.066369,-0.906278 -1.06931,-0.881281 -4.710522,-2.971441 4.438793,3.388587 1.201507,0.681539 1.20002,0.680063 -1.24116,-0.587539 -1.248497,-0.58752 -5.24664,-1.6451 5.096824,2.132739 1.32193,0.34812 1.321951,0.345167 v 0 l -1.339566,-0.245294 -1.341043,-0.246758 -5.434646,-0.218854 5.406748,0.734409 1.34985,-0.01323 1.34985,-0.01028 -1.339571,0.11605 -1.34251,0.113084 -5.229016,1.217662 5.347989,-0.71825 1.288163,-0.368687 1.283752,-0.368666 -1.249967,0.468547 -1.251437,0.46857 -4.69143,2.589534 4.922036,-2.122459 1.13833,-0.702099 1.133941,-0.702093 v 0 l -1.073709,0.793168 -1.076649,0.788756 -3.818957,3.774872 4.164119,-3.378286 0.906278,-0.985579 0.906253,-0.987065 v 0 l -0.826939,1.057558 -0.831364,1.057558 -2.693828,4.700242 3.121257,-4.406482 0.615437,-1.205901 0.616909,-1.201507 -0.524366,1.248514 -0.522908,1.254372 -1.305787,4.967562 a 8.0565084,8.0565084 0 0 1 -1.175058,-0.543452 v 0.712373 c 2.984666,1.542276 6.631759,1.239691 9.206596,-1.064895 3.417959,-3.059571 3.642698,-8.483939 0.505276,-12.119279 -2.539595,-2.928834 -6.490736,-3.796912 -9.717738,-2.407407 z m 9.501829,3.965828 a 0.39805175,0.39805175 0 0 0 0.571373,0.04995 0.38336354,0.38336354 0 0 0 0.02351,-0.03231 c 0.116028,0.190943 0.220327,0.384826 0.318736,0.587528 l -4.61358,1.985847 -1.147159,0.693286 -1.13394,0.700626 1.075184,-0.787284 1.073719,-0.788755 3.589805,-3.541344 c 0.133668,0.1557 0.254109,0.315792 0.374555,0.478849 a 0.38042586,0.38042586 0 0 0 -0.120446,0.06902 0.41861533,0.41861533 0 0 0 -0.01178,0.584598 z m 1.175059,1.175058 a 0.39952064,0.39952064 0 0 0 -0.136601,0.0338 0.42008419,0.42008419 0 0 0 0.374546,0.75205 c 0.01178,0 0.01911,-0.01618 0.03085,-0.02352 0.06316,0.21151 0.120445,0.423012 0.165971,0.637471 l -5.013093,0.674178 -1.286696,0.365744 -1.283751,0.370138 1.247023,-0.465603 1.254381,-0.467098 4.396198,-2.425026 q 0.135133,0.271728 0.251165,0.54787 z m 0.569905,4.100965 a 0.40539584,0.40539584 0 0 0 -0.138064,-0.04114 0.38777005,0.38777005 0 0 0 -0.421557,0.377477 0.44064767,0.44064767 0 0 0 0.387773,0.449456 0.37895705,0.37895705 0 0 0 0.04259,0 c -0.04554,0.210048 -0.104294,0.41715 -0.167452,0.622798 l -4.776617,-2.000538 -1.321951,-0.351052 -1.321934,-0.346652 v 0 l 1.338103,0.24971 1.339566,0.245286 5.092406,0.205643 c -0.01028,0.195355 -0.03524,0.392178 -0.05435,0.590469 z m -0.505279,1.98879 a 0.41714645,0.41714645 0 0 0 -0.123386,-0.0749 0.38630116,0.38630116 0 0 0 -0.506738,0.248225 0.43036593,0.43036593 0 0 0 0.264385,0.53025 0.36279997,0.36279997 0 0 0 0.03969,0 q -0.146889,0.282009 -0.318736,0.550811 l -4.164119,-3.177072 -1.201507,-0.681535 -1.200034,-0.683008 1.244097,0.587539 1.244101,0.58752 4.920564,1.545205 c -0.06022,0.205643 -0.12778,0.386298 -0.199763,0.568442 z m -2.488181,3.061027 a 0.40245824,0.40245824 0 0 0 -0.575786,-0.04993 0.42155294,0.42155294 0 0 0 -0.02202,0.587521 0.39511414,0.39511414 0 0 0 0.03524,0.02645 q -0.270274,0.163034 -0.552283,0.301112 l -2.143018,-4.816283 -0.734409,-1.19415 -0.734409,-1.192695 v 0 l 0.816658,1.139804 0.816667,1.138352 3.61625,3.827746 q -0.21885,0.195369 -0.440649,0.368688 a 0.44064767,0.44064767 0 0 0 -0.08224,-0.136606 z m -1.714117,0.969428 a 0.41273999,0.41273999 0 0 0 -0.546419,-0.201236 0.40686473,0.40686473 0 0 0 -0.171843,0.553755 c 0,0.01323 0.01762,0.02057 0.02497,0.03231 -0.202704,0.05582 -0.406862,0.102827 -0.612505,0.146889 l -0.88129,-5.165862 -0.414223,-1.333704 -0.415673,-1.330758 0.50822,1.298447 0.509683,1.301389 2.564564,4.61358 q -0.262918,0.127779 -0.531707,0.233541 a 0.42595943,0.42595943 0 0 0 -0.0338,-0.148356 z m -1.921232,0.465624 a 0.41714645,0.41714645 0 0 0 -0.480308,-0.333427 0.3921765,0.3921765 0 0 0 -0.306984,0.480299 c 0,0.01323 0.01028,0.02202 0.01472,0.03524 -0.211516,0 -0.423035,-0.01178 -0.634533,-0.03085 l 0.450924,-5.155583 -0.06756,-1.385101 -0.06904,-1.385105 v 0 l 0.16598,1.379238 0.171847,1.380688 1.336634,5.080678 q -0.293773,0.0514 -0.578721,0.08077 a 0.42449061,0.42449061 0 0 0 -0.0031,-0.145404 z m -1.092804,-7.784784 z m 0,0 z m 0,0 z m 1.276411,-7.258929 a 0.38630116,0.38630116 0 0 0 0.424485,-0.378968 c 0,-0.01323 0,-0.02347 0,-0.03669 q 0.308453,0.08372 0.612493,0.192407 l -1.747896,4.811875 -0.282017,1.338102 -0.283476,1.336635 0.183594,-1.361598 0.183612,-1.360134 -0.02202,-5.199645 q 0.293765,0.02497 0.587525,0.07343 a 0.40539584,0.40539584 0 0 0 -0.0338,0.13661 0.43036593,0.43036593 0 0 0 0.377495,0.447989 z m -0.756445,6.022185 0.521427,-1.251436 1.296972,-4.976379 q 0.280553,0.101331 0.553754,0.22619 a 0.40245824,0.40245824 0 0 0 -0.07051,0.123385 0.44064767,0.44064767 0 0 0 0.267334,0.533173 0.39070765,0.39070765 0 0 0 0.511142,-0.248221 0.38630116,0.38630116 0 0 0 0,-0.04554 q 0.282025,0.16304 0.553755,0.351051 l -2.921495,4.125937 -0.616908,1.204434 -0.613965,1.202956 v 0 z m -0.525847,1.252908 z m 0,0 z m 0,0 z m 0,0 z m 0,0 z m 0,0 z m 0,0 z m 0,0 z m 0,0 z m 0,0 z m 0,0 z m 0,0 z m 0,0 z m 0,0 z m 0,0 z m 0,0 z m 0,0 z m 7.699592,-0.784362 a 0.38189465,0.38189465 0 0 0 -0.14689,0 0.39511414,0.39511414 0 0 0 -0.309924,0.481777 0.42889704,0.42889704 0 0 0 0.484716,0.336373 0.35545586,0.35545586 0 0 0 0.03674,-0.01618 c 0.0088,0.217382 0.01178,0.440649 0,0.652164 l -5.057169,-0.696227 -1.349851,0.0088 -1.348377,0.01323 1.341038,-0.111634 1.33957,-0.116032 4.908813,-1.153027 c 0.04114,0.196823 0.08078,0.393642 0.108689,0.591938 z m -1.979979,-4.357997 -3.904146,3.16238 -0.903325,0.985575 -0.904789,0.987047 v 0 l 0.828406,-1.056072 0.828424,-1.057554 2.530793,-4.406481 c 0.163035,0.113106 0.321658,0.235005 0.478827,0.362803 a 0.38336354,0.38336354 0 0 0 -0.101349,0.102808 0.43036593,0.43036593 0 0 0 0.126325,0.578727 0.38777005,0.38777005 0 0 0 0.558149,-0.104294 0.38336354,0.38336354 0 0 0 0.01762,-0.04406 q 0.232074,0.227684 0.450928,0.480321 z m -5.888524,3.763125 -0.164508,-1.386573 -1.333699,-5.07772 c 0.190956,-0.03524 0.383363,-0.06317 0.575786,-0.08373 a 0.41714645,0.41714645 0 0 0 0,0.146889 0.42302183,0.42302183 0 0 0 0.481772,0.334883 0.39805175,0.39805175 0 0 0 0.308457,-0.481772 c 0,-0.01178 -0.01028,-0.02057 -0.01323,-0.03231 q 0.315792,0 0.630134,0.02645 l -0.450933,5.15851 0.06903,1.386573 0.06903,1.382161 v 0 z m 0.168911,1.379234 z m 0,0 z m 0,0 z m 0,0 z m 0,0 z m -0.565493,2.682081 0.283481,-1.33957 0.282012,-1.342511 -0.186538,1.354253 -0.183604,1.363061 0.02202,5.19965 q -0.29376,-0.02641 -0.58752,-0.07638 a 0.40392712,0.40392712 0 0 0 0.03231,-0.133665 0.43036593,0.43036593 0 0 0 -0.38483,-0.440654 0.38777005,0.38777005 0 0 0 -0.421562,0.377495 c 0,0.01178 0,0.02202 0,0.03231 -0.205631,-0.05582 -0.409806,-0.120445 -0.612497,-0.193879 z m 5.840045,3.401789 -3.25785,-4.146499 -1.003215,-0.970883 -1.003199,-0.973845 v 0 l 1.067825,0.897467 1.067842,0.895977 4.415288,2.776082 c -0.104276,0.163044 -0.21297,0.324612 -0.330488,0.480308 a 0.43036593,0.43036593 0 0 0 -0.104276,-0.105762 0.38630116,0.38630116 0 0 0 -0.55815,0.102822 0.42742833,0.42742833 0 0 0 0.124836,0.578708 0.37895705,0.37895705 0 0 0 0.03674,0.01618 c -0.145417,0.151284 -0.292293,0.301108 -0.449461,0.44359 z"
     id="path14"
     style="stroke-width:0.146882" />
  <polygon
     class="cls-1"
     points="161.54,172.49 161.54,189.18 260.66,189.18 177.1,342.46 190.75,352.32 290.53,172.49 "
     id="polygon16"
     transform="matrix(0.14688257,0,0,0.14688257,-12.858718,-20.745651)" />
  <polygon
     class="cls-1"
     points="307.42,172.49 251.03,274.17 264.08,280.62 315.87,189.18 384.96,189.18 384.96,172.49 "
     id="polygon18"
     transform="matrix(0.14688257,0,0,0.14688257,-12.858718,-20.745651)" />
  <path
     class="cls-4"
     d="m 89.190893,62.428076 c -0.571382,0 -0.904803,-0.27027 -0.904803,-1.142744 v -4.051027 h 2.497005 V 55.868302 H 88.28609 v -2.317811 h -1.811065 v 2.317811 h -1.191216 v 1.366003 h 1.191216 v 4.384443 c 0,1.73175 1.095755,2.461753 2.366278,2.461753 a 4.0583649,4.0583649 0 0 0 2.081333,-0.619841 l -0.461212,-1.398326 c -0.492059,0.239416 -0.888634,0.365742 -1.270531,0.365742 z"
     id="path20"
     style="stroke-width:0.146882" />
  <path
     class="cls-4"
     d="m 93.353543,57.774828 c 0,-0.603687 0.524366,-0.841631 1.238216,-0.841631 a 4.9705061,4.9705061 0 0 1 2.42944,0.746165 l 0.666842,-1.349852 c -0.762319,-0.540529 -1.890373,-0.857794 -2.953805,-0.857794 -1.615702,0 -3.112452,0.734409 -3.112452,2.445591 -0.01608,3.049288 4.431458,2.08133 4.431458,3.818954 0,0.635995 -0.603688,0.904789 -1.382168,0.904789 -0.920956,0 -2.097478,-0.396574 -2.82749,-1.048739 l -0.652165,1.302846 c 0.843118,0.762326 2.160648,1.175062 3.40034,1.175062 1.699428,0 3.240234,-0.77848 3.240234,-2.510221 0.01616,-3.069848 -4.47845,-2.228205 -4.47845,-3.78517 z"
     id="path22"
     style="stroke-width:0.146882" />
  <path
     class="cls-4"
     d="m 102.70849,55.486408 c -1.60396,0 -2.46175,0.36573 -3.636813,1.063431 l 0.746156,1.270524 c 0.841647,-0.571372 1.683277,-0.8578 2.497007,-0.8578 1.33516,0 2.01817,0.634542 2.01817,1.699443 v 0.254102 h -2.56017 c -2.032845,0.01618 -3.193214,1.000272 -3.193214,2.541068 0,1.492328 1.144215,2.62039 2.969954,2.62039 1.22353,0 2.19149,-0.365736 2.79077,-1.111893 v 1.028167 h 1.79491 l -0.0161,-5.543342 c -0.0102,-1.852194 -1.23382,-2.96409 -3.41062,-2.96409 z m 1.61571,5.543339 c -0.0955,0.920952 -1.09575,1.603957 -2.3986,1.603957 -1.01643,0 -1.63627,-0.492049 -1.63627,-1.254378 0,-0.809316 0.55668,-1.128052 1.74643,-1.128052 h 2.28844 z"
     id="path24"
     style="stroke-width:0.146882" />
  <polygon
     class="cls-4"
     points="842.28,564.75 826.28,519.44 813.3,519.44 835.58,576.97 848.45,576.97 870.51,519.44 858.07,519.44 "
     id="polygon26"
     transform="matrix(0.14688257,0,0,0.14688257,-12.858718,-20.745651)" />
  <path
     class="cls-4"
     d="m 33.23157,41.679434 c -2.032853,0.01618 -3.193237,1.000275 -3.193237,2.541077 0,1.492321 1.144216,2.620386 2.96997,2.620386 1.223534,0 2.191485,-0.365735 2.79077,-1.111896 v 1.02817 h 1.794902 l -0.01618,-5.543341 c -0.01618,-1.858065 -1.23969,-2.969972 -3.415019,-2.969972 -1.603956,0 -2.461755,0.365742 -3.636813,1.064896 l 0.746161,1.270532 c 0.841631,-0.571374 1.683278,-0.857791 2.49701,-0.857791 1.333682,0 2.016689,0.634541 2.016689,1.699439 v 0.2585 z m 2.557224,2.112179 c -0.09548,0.920948 -1.095745,1.603956 -2.398601,1.603956 -1.016418,0 -1.636271,-0.492052 -1.636271,-1.254381 0,-0.809315 0.556683,-1.128051 1.746437,-1.128051 h 2.288435 z"
     id="path28"
     style="stroke-width:0.146882" />
  <path
     class="cls-4"
     d="m 45.876694,45.323603 v 1.44532 h 1.827205 v -11.78585 h -1.827205 v 4.797173 c -0.619853,-0.985575 -1.636275,-1.5408 -3.002287,-1.5408 -2.382432,0 -4.018702,1.731756 -4.018702,4.27282 0,2.573379 1.615707,4.335975 4.051012,4.335975 1.349852,0 2.366288,-0.539059 2.969977,-1.524638 z m -2.589559,0 c -1.540784,0 -2.588062,-1.144215 -2.604226,-2.748175 0.01618,-1.615707 1.079594,-2.780486 2.604226,-2.780486 1.524658,0 2.589559,1.144215 2.589559,2.780486 0,1.601015 -1.064901,2.748175 -2.589559,2.748175 z"
     id="path30"
     style="stroke-width:0.146882" />
  <rect
     class="cls-4"
     x="50.086327"
     y="38.31876"
     width="1.8110628"
     height="8.4501553"
     id="rect32"
     style="stroke-width:0.146882" />
  <path
     class="cls-4"
     d="m 50.991132,36.979198 a 1.0883998,1.0883998 0 1 0 -1.063425,-1.07959 1.0487416,1.0487416 0 0 0 1.063425,1.07959 z"
     id="path34"
     style="stroke-width:0.146882" />
  <polygon
     class="cls-4"
     points="525.84,425.05 513.82,425.05 484.92,456.38 484.92,425.05 474.71,425.05 474.71,485.62 484.92,485.62 484.92,470.22 495.22,458.89 515.12,485.62 527.4,485.62 502.4,450.92 "
     id="polygon36"
     transform="matrix(0.14688257,0,0,0.14688257,-12.858718,-20.745651)" />
  <path
     class="cls-4"
     d="m 69.639352,49.757983 v 0.826951 h 1.436507 l -0.01328,-4.435856 c -0.01328,-1.487918 -0.991448,-2.376556 -2.73201,-2.376556 -1.283752,0 -1.969704,0.29376 -2.909743,0.85191 l 0.596341,1.020834 c 0.674186,-0.458268 1.346915,-0.685934 1.996137,-0.685934 1.067838,0 1.615712,0.508211 1.615712,1.36013 v 0.202699 h -2.047544 c -1.627464,0.01323 -2.555752,0.800516 -2.555752,2.034315 0,1.194167 0.915076,2.097489 2.376558,2.097489 0.978231,-0.0059 1.753772,-0.299632 2.237024,-0.895982 z m -3.241703,-1.270532 c 0,-0.647751 0.440656,-0.901857 1.398322,-0.901857 h 1.830155 v 0.622776 c -0.07636,0.734409 -0.881296,1.283752 -1.918278,1.283752 -0.809334,-0.0013 -1.308726,-0.395114 -1.308726,-1.006138 z"
     id="path38"
     style="stroke-width:0.146882" />
  <polygon
     class="cls-4"
     points="426.45,569.08 450.35,520.42 450.46,576.97 462.25,576.97 462.25,501.27 447.21,501.27 422.34,551.56 397.36,501.27 382.22,501.27 382.22,576.97 394.23,576.97 394.23,520.42 418.12,569.08 "
     id="polygon40"
     transform="matrix(0.14688257,0,0,0.14688257,-12.858718,-20.745651)" />
  <path
     class="cls-4"
     d="m 60.899831,55.486408 c -1.60396,0 -2.46175,0.36573 -3.636813,1.063431 l 0.746166,1.270524 c 0.841643,-0.571372 1.683273,-0.8578 2.497005,-0.8578 1.335166,0 2.018165,0.634542 2.018165,1.699443 v 0.254102 h -2.561627 c -2.032853,0.01618 -3.193237,1.000272 -3.193237,2.541068 0,1.492328 1.14422,2.62039 2.969975,2.62039 1.223533,0 2.191484,-0.365736 2.79077,-1.111893 v 1.028167 h 1.794902 l -0.01618,-5.543342 c -0.01028,-1.852194 -1.229405,-2.96409 -3.409146,-2.96409 z m 1.615707,5.543339 c -0.09547,0.920952 -1.09574,1.603957 -2.398582,1.603957 -1.016436,0 -1.636276,-0.492049 -1.636276,-1.254378 0,-0.809316 0.556686,-1.128052 1.746432,-1.128052 h 2.286963 z"
     id="path42"
     style="stroke-width:0.146882" />
  <path
     class="cls-4"
     d="m 71.415159,55.486408 c -1.445322,0 -2.526385,0.524366 -3.128601,1.715582 V 52.207983 H 66.457871 V 64.00559 h 1.827216 v -4.165595 c 0,-1.492323 0.904803,-2.620376 2.414746,-2.643877 1.270547,0 2.032857,0.778474 2.032857,2.049011 v 4.760461 h 1.827218 v -5.261332 c 0,-2.018162 -1.175054,-3.25785 -3.144749,-3.25785 z"
     id="path44"
     style="stroke-width:0.146882" />
  <path
     class="cls-4"
     d="m 80.231058,55.486408 c -2.620392,0 -4.415296,1.731739 -4.415296,4.272814 0,2.541062 1.794904,4.30365 4.415296,4.30365 2.620376,0 4.406474,-1.74643 4.406474,-4.30365 0,-2.557232 -1.800784,-4.272814 -4.406474,-4.272814 z m 0,7.050352 c -1.524645,0 -2.589553,-1.111898 -2.589553,-2.748171 0,-1.636268 1.063441,-2.748176 2.589553,-2.748176 1.526096,0 2.573376,1.128065 2.573376,2.748176 0,1.620122 -1.07078,2.748171 -2.573376,2.748171 z"
     id="path46"
     style="stroke-width:0.146882" />
  <path
     class="cls-4"
     d="m 9.0591062,50.609901 -3.9261779,8.896678 h 1.5628378 l 0.8519098,-2.007887 h 4.4857951 l 0.851914,2.007887 h 1.601033 l -3.887982,-8.896678 z m -0.9532809,5.553631 1.6774103,-3.952607 1.6773934,3.952607 z"
     id="path48"
     style="stroke-width:0.146882" />
  <path
     class="cls-4"
     d="m 24.082243,52.695639 c -1.232341,0 -2.135661,0.496459 -2.567503,1.627454 -0.317264,-1.02818 -1.144215,-1.627454 -2.350117,-1.627454 -1.117771,0 -1.982927,0.406865 -2.452947,1.360131 v -1.308723 h -1.449727 v 6.756597 h 1.449727 v -3.340112 c 0,-1.175059 0.710906,-2.071046 1.881574,-2.109233 0.991459,0 1.589263,0.622774 1.589263,1.652431 v 3.799849 h 1.468836 v -3.343047 c 0,-1.175059 0.699154,-2.071046 1.855125,-2.109233 0.991451,0 1.601015,0.622774 1.601015,1.652431 v 3.799849 h 1.468819 v -4.206714 c -0.01613,-1.614238 -0.944451,-2.604226 -2.494065,-2.604226 z"
     id="path50"
     style="stroke-width:0.146882" />
  <path
     class="cls-4"
     d="M 29.659383,54.092486 V 52.74557 h -1.468835 v 6.756603 h 1.468835 v -3.529597 c 0.11456,-1.157419 0.97824,-1.956469 2.338369,-1.881555 v -1.395382 c -1.066369,0 -1.8801,0.481773 -2.338369,1.396847 z"
     id="path52"
     style="stroke-width:0.146882" />
  <rect
     class="cls-4"
     x="32.887848"
     y="52.744099"
     width="1.4482623"
     height="6.7624745"
     id="rect54"
     style="stroke-width:0.146882" />
  <path
     class="cls-4"
     d="m 33.611992,49.935715 a 0.87101364,0.87101364 0 1 0 0.850451,0.881293 0.84163712,0.84163712 0 0 0 -0.850451,-0.881293 z"
     id="path56"
     style="stroke-width:0.146882" />
  <path
     class="cls-4"
     d="m 38.619214,58.247786 c -0.4568,0 -0.724131,-0.215909 -0.724131,-0.915067 v -3.240233 h 1.994672 v -1.092802 h -1.994672 v -1.8566 h -1.448258 v 1.855129 h -0.953264 v 1.092808 h 0.953264 v 3.507549 c 0,1.385102 0.881298,1.971173 1.893321,1.971173 a 3.246105,3.246105 0 0 0 1.664169,-0.496471 l -0.368666,-1.119244 a 2.3501211,2.3501211 0 0 1 -1.016435,0.293758 z"
     id="path58"
     style="stroke-width:0.146882" />
  <path
     class="cls-4"
     d="m 13.121876,44.260165 h 5.606512 l 1.063424,2.51023 h 2.002013 l -4.86035,-11.113144 h -1.921223 l -4.907357,11.119011 h 1.953552 z m 2.790765,-6.609712 2.097483,4.939653 H 13.82103 Z"
     id="path60"
     style="stroke-width:0.146882" />
  <polygon
     class="cls-4"
     points="287.4,449.6 253.55,449.49 286.43,410.56 286.43,402.23 239.17,402.12 239.17,412.29 271.08,412.29 238.2,451.22 238.2,459.65 287.4,459.76 "
     id="polygon62"
     transform="matrix(0.14688257,0,0,0.14688257,-12.858718,-20.745651)" />
  <metadata
     id="metadata171">
    <rdf:RDF>
      <cc:Work
         rdf:about="">
        <dc:title>Azadi ka Amrit Mahotsav_E_01</dc:title>
      </cc:Work>
    </rdf:RDF>
  </metadata>
</svg>
