<?xml version="1.0" encoding="UTF-8" standalone="no"?>
<svg
   enable-background="new 0 0 91 91"
   height="16"
   id="Layer_1"
   version="1.1"
   viewBox="0 0 16 16"
   width="16"
   xml:space="preserve"
   sodipodi:docname="calendar.svg"
   inkscape:version="1.1.2 (b8e25be833, 2022-02-05)"
   xmlns:inkscape="http://www.inkscape.org/namespaces/inkscape"
   xmlns:sodipodi="http://sodipodi.sourceforge.net/DTD/sodipodi-0.dtd"
   xmlns="http://www.w3.org/2000/svg"
   xmlns:svg="http://www.w3.org/2000/svg"><defs
     id="defs21" /><sodipodi:namedview
     id="namedview19"
     pagecolor="#ffffff"
     bordercolor="#666666"
     borderopacity="1.0"
     inkscape:pageshadow="2"
     inkscape:pageopacity="0.0"
     inkscape:pagecheckerboard="0"
     showgrid="false"
     inkscape:zoom="23.731879"
     inkscape:cx="13.231148"
     inkscape:cy="11.208552"
     inkscape:window-width="1920"
     inkscape:window-height="1017"
     inkscape:window-x="-8"
     inkscape:window-y="-8"
     inkscape:window-maximized="1"
     inkscape:current-layer="Layer_1" /><path
     d="m 30.85154,12.392059 h -2.993432 v 2.993432 h 2.993432 z m -0.957898,2.035534 h -1.077636 v -1.077354 h 1.077636 z"
     id="path6"
     style="fill:#000000;stroke-width:0.281735" /><path
     d="m 31.736426,17.395381 h -2.993432 v 2.993432 h 2.993432 z m -0.957898,2.035252 h -1.077636 v -1.077917 h 1.077636 z"
     id="path12"
     style="fill:#000000;stroke-width:0.281735" /><g
     id="g1578"
     transform="matrix(0.80504176,0,0,0.80504176,-1.9003299,-1.8934103)"><path
       d="M 7.9132002,4.9661294 V 5.721972 H 5.2735021 V 8.6514098 9.5825201 19.612497 H 17.537048 c 0.984512,0 1.785267,-0.801304 1.785267,-1.785541 V 9.5825201 8.6514098 5.721972 H 16.682343 V 4.9661294 H 15.751507 V 5.721972 H 12.763464 V 4.9661294 H 11.832628 V 5.721972 H 8.8443106 V 4.9661294 Z M 18.390931,17.827229 c 0,0.470758 -0.38285,0.854157 -0.853883,0.854157 H 6.2046126 V 9.5825201 H 18.390931 Z M 11.832354,6.6530825 V 7.448908 H 12.76319 V 6.6530825 h 2.988043 V 7.448908 H 16.68207 V 6.6530825 h 1.708587 V 8.6514098 H 6.2046126 V 6.6530825 H 7.9132002 V 7.448908 H 8.8443106 V 6.6530825 Z"
       id="path2"
       style="fill:#ffffff;fill-opacity:1;stroke-width:0.273856" /><path
       d="M 10.88833,10.668907 H 7.9786096 v 2.90972 H 10.88833 Z m -0.9311109,1.978609 h -1.047499 v -1.047225 h 1.047499 z"
       id="path4"
       style="fill:#ffffff;stroke-width:0.273856" /><path
       d="m 16.002549,10.709865 h -2.909721 v 2.90972 h 2.909721 z m -0.931111,1.97861 H 14.023939 V 11.64125 h 1.047499 z"
       id="path8"
       style="fill:#ffffff;stroke-width:0.273856" /><path
       d="M 10.88833,14.590251 H 7.9786096 v 2.90972 H 10.88833 Z m -0.9311109,1.978336 h -1.047499 v -1.047773 h 1.047499 z"
       id="path10"
       style="fill:#ffffff;stroke-width:0.273856" /><path
       d="m 15.96159,14.590251 h -2.909721 v 2.90972 h 2.909721 z m -0.931111,1.978336 H 13.98298 v -1.047773 h 1.047499 z"
       id="path14"
       style="fill:#ffffff;stroke-width:0.273856" /></g></svg>
