<?xml version="1.0" encoding="UTF-8" standalone="no"?>
<!-- Created with Inkscape (http://www.inkscape.org/) -->

<svg
   version="1.1"
   id="svg2"
   width="70"
   height="70"
   viewBox="0 0 70 70"
   sodipodi:docname="faciliti.svg"
   inkscape:version="1.2.2 (732a01da63, 2022-12-09)"
   xmlns:inkscape="http://www.inkscape.org/namespaces/inkscape"
   xmlns:sodipodi="http://sodipodi.sourceforge.net/DTD/sodipodi-0.dtd"
   xmlns="http://www.w3.org/2000/svg"
   xmlns:svg="http://www.w3.org/2000/svg">
  <defs
     id="defs6" />
  <sodipodi:namedview
     id="namedview4"
     pagecolor="#ffffff"
     bordercolor="#666666"
     borderopacity="1.0"
     inkscape:pageshadow="2"
     inkscape:pageopacity="0.0"
     inkscape:pagecheckerboard="0"
     showgrid="false"
     width="70px"
     inkscape:zoom="7.6283794"
     inkscape:cx="49.551809"
     inkscape:cy="39.195743"
     inkscape:window-width="1920"
     inkscape:window-height="1009"
     inkscape:window-x="-8"
     inkscape:window-y="-8"
     inkscape:window-maximized="1"
     inkscape:current-layer="layer3"
     inkscape:showpageshadow="2"
     inkscape:deskcolor="#d1d1d1" />
  <g
     inkscape:groupmode="layer"
     id="layer3"
     inkscape:label="layer4">
    <rect
       style="fill:#0c7a59;fill-opacity:1;stroke:none;stroke-width:10;stroke-linejoin:round;stroke-miterlimit:4;stroke-dasharray:none;stroke-opacity:1"
       id="rect13196"
       width="70.001762"
       height="69.870674"
       x="0.13108945"
       y="0.13108945" />
  </g>
  <g
     inkscape:groupmode="layer"
     id="layer1"
     inkscape:label="layer2">
    <path
       style="fill:#e6e6e6;stroke:none;stroke-width:0.979195px;stroke-linecap:butt;stroke-linejoin:miter;stroke-opacity:1"
       d="m 30.205661,56.122109 -2.485493,-7.825604 20.612653,4.936068 -13.665595,8.820935 -14.77841,0.02061 -5.687487,0.264534 -0.101051,-20.76069 9.232275,3.382121 z"
       id="path9929" />
  </g>
  <g
     inkscape:groupmode="layer"
     id="layer2"
     inkscape:label="layer3">
    <path
       style="fill:#e6e6e6;fill-opacity:1;stroke:#000000;stroke-width:1.40798;stroke-linecap:butt;stroke-linejoin:miter;stroke-miterlimit:4;stroke-dasharray:none;stroke-opacity:1"
       d="M 25.942568,29.683924 26.220375,1.4406276 h 37.9664 V 37.092002 H 25.942568 v -7.408078"
       id="path3706"
       sodipodi:nodetypes="cccccc" />
  </g>
  <g
     inkscape:groupmode="layer"
     inkscape:label="Image"
     id="g8">
    <path
       style="fill:#e6e6e6;stroke:#000000;stroke-width:1.40798;stroke-linecap:butt;stroke-linejoin:round;stroke-miterlimit:4;stroke-dasharray:none;stroke-opacity:1"
       d="M 2.0327586,38.530577 1.5036899,65.116267 H 14.201329 V 38.398309 Z"
       id="path2263" />
    <path
       style="fill:#e6e6e6;fill-opacity:1;stroke:#000000;stroke-width:1.40798;stroke-linecap:butt;stroke-linejoin:round;stroke-miterlimit:4;stroke-dasharray:none;stroke-opacity:1"
       d="m 14.994937,41.837256 c 0,0 11.110443,-1.322673 14.946184,3.438944 3.968011,-0.264535 13.757089,-0.08315 13.757089,-0.08315 0,0 3.659613,3.537163 0.130958,6.696514 h -12.43311 c 0,0 -2.513074,1.719473 -1.190397,4.232548"
       id="path2510"
       sodipodi:nodetypes="cccccc" />
    <path
       style="fill:#e6e6e6;stroke:#000000;stroke-width:1.40798;stroke-linecap:butt;stroke-linejoin:round;stroke-miterlimit:4;stroke-dasharray:none;stroke-opacity:1"
       d="m 14.201329,62.338658 5.687487,-0.264534 14.813924,5.687486 c 0,0 2.248534,0.529068 4.232549,-0.529069 1.984006,-1.058136 27.908363,-17.988327 27.908363,-17.988327 0,0 1.587206,-1.322672 0.661329,-4.497083 -1.190398,-1.058137 -1.851736,-2.116273 -3.835741,-1.587205 -2.248545,1.454939 -16.268861,10.58137 -16.268861,10.58137"
       id="path2644" />
    <path
       style="fill:#ececec;stroke:#000000;stroke-width:1.40798;stroke-linecap:butt;stroke-linejoin:miter;stroke-miterlimit:4;stroke-dasharray:none;stroke-opacity:1"
       d="m 31.696485,11.480901 h 8.334083 m 11.575129,-0.09263 h 13.05673"
       id="path3875" />
    <path
       style="fill:#e6e6e6;stroke:#000000;stroke-width:1.40798;stroke-linecap:butt;stroke-linejoin:round;stroke-miterlimit:4;stroke-dasharray:none;stroke-opacity:1"
       d="m 40.567278,2.0916721 -0.1663,17.5381169 5.648661,-6.019061 5.463456,6.204256 V 2.0355986"
       id="path4124"
       sodipodi:nodetypes="ccccc" />
    <path
       style="fill:#e6e6e6;stroke:#000000;stroke-width:1.40798;stroke-linecap:butt;stroke-linejoin:miter;stroke-miterlimit:4;stroke-dasharray:none;stroke-opacity:1"
       d="m 22.065987,8.2398647 c 0,0 3.241036,0.9260148 4.815249,1.6668248 1.574212,-1.1112199 3.148434,-2.4076248 3.148434,-2.4076248 l 2.592829,2.8706263 -2.407634,2.778025 c 0,0 1.574222,3.055832 2.222429,4.815249 1.203813,0.09263 3.148435,0.555615 3.148435,0.555615 v 3.611433 l -3.518844,0.370404 c 0,0 -1.11121,2.87063 -1.85202,4.537448 0.648207,1.111211 2.222429,2.96323 2.222429,2.96323 l -2.592829,2.778029 -3.259302,-1.557222 c 0,0 -0.16693,0.0756 -4.333971,1.37202 -0.37041,1.85202 -0.648218,3.333635 -0.648218,3.333635 l -3.426231,0.0926 -0.463003,-3.518837 c 0,0 -2.129827,-0.185202 -4.722646,-2.037221 -1.48162,1.018611 -2.778034,2.129821 -2.778034,2.129821 L 7.3424324,30.001096 9.5648517,27.223068 c 0,0 -1.4816096,-2.037222 -1.8520193,-5.093054 -1.0186074,0 -3.7040392,-0.370404 -3.7040392,-0.370404 l -0.1851951,-3.518838 3.8892343,-0.3704 c 0,0 0.4630024,-1.944622 1.9446223,-4.630054 C 8.7314397,11.943904 7.1572275,9.9992815 7.1572275,9.9992815 l 2.8706275,-2.3150217 2.407634,2.1298267 c 0,0 2.407624,-1.5742218 5.093046,-1.8520193 0.09263,-1.1112098 0.555605,-3.5188343 0.555605,-3.5188343 h 3.704039 z"
       id="path4539"
       sodipodi:nodetypes="ccccccccccccccccccccccccccccccccc" />
    <circle
       style="stroke:#000000;stroke-width:1.40798;stroke-linejoin:round;stroke-miterlimit:4;stroke-dasharray:none;stroke-opacity:1;fill:#e6e6e6;fill-opacity:1"
       id="path4777"
       cx="19.79727"
       cy="20.324291"
       r="7.269176" />
    <path
       style="fill:#ff13ff;fill-opacity:0;stroke:none;stroke-width:0.943286;stroke-linejoin:round;stroke-miterlimit:4;stroke-dasharray:none;stroke-opacity:1"
       d="m 52.670829,28.285704 c 0.03982,-5.098295 0.102069,-8.522626 0.156789,-8.624869 0.05404,-0.10097 0.09075,-1.793909 0.09075,-4.184737 V 11.46093 h 6.367184 6.367183 V 10.659136 9.8573429 H 59.285551 52.918367 V 5.8483757 1.8394085 H 71.548274 90.17818 V 19.290207 36.741005 H 71.391485 52.60479 Z"
       id="path11988" />
    <path
       style="fill:#ff13ff;fill-opacity:0;stroke:none;stroke-width:0.943286;stroke-linejoin:round;stroke-miterlimit:4;stroke-dasharray:none;stroke-opacity:1"
       d="m 52.670829,28.285704 c 0.03982,-5.098295 0.102069,-8.522626 0.156789,-8.624869 0.05404,-0.10097 0.09075,-1.793909 0.09075,-4.184737 V 11.46093 h 6.367184 6.367183 V 10.659136 9.8573429 H 59.285551 52.918367 V 5.8483757 1.8394085 H 71.548274 90.17818 V 19.290207 36.741005 H 71.391485 52.60479 Z"
       id="path12027" />
    <path
       style="fill:#ff13ff;fill-opacity:0;stroke:none;stroke-width:0.943286;stroke-linejoin:round;stroke-miterlimit:4;stroke-dasharray:none;stroke-opacity:1"
       d="m 52.670829,28.285704 c 0.03982,-5.098295 0.102069,-8.522626 0.156789,-8.624869 0.05404,-0.10097 0.09075,-1.793909 0.09075,-4.184737 V 11.46093 h 6.367184 6.367183 V 10.659136 9.8573429 H 59.285551 52.918367 V 5.8483757 1.8394085 H 71.548274 90.17818 V 19.290207 36.741005 H 71.391485 52.60479 Z"
       id="path12066" />
  </g>
</svg>
