<?xml version="1.0" encoding="UTF-8" standalone="no"?>
<!-- Created with Inkscape (http://www.inkscape.org/) -->

<svg
   width="220"
   height="220"
   viewBox="0 0 58.208333 58.208333"
   version="1.1"
   id="svg5"
   inkscape:version="1.2.2 (732a01da63, 2022-12-09)"
   sodipodi:docname="fao-1.svg"
   xmlns:inkscape="http://www.inkscape.org/namespaces/inkscape"
   xmlns:sodipodi="http://sodipodi.sourceforge.net/DTD/sodipodi-0.dtd"
   xmlns="http://www.w3.org/2000/svg"
   xmlns:svg="http://www.w3.org/2000/svg">
  <sodipodi:namedview
     id="namedview7"
     pagecolor="#ffffff"
     bordercolor="#666666"
     borderopacity="1.0"
     inkscape:pageshadow="2"
     inkscape:pageopacity="0.0"
     inkscape:pagecheckerboard="0"
     inkscape:document-units="mm"
     showgrid="false"
     units="px"
     inkscape:zoom="2.0837135"
     inkscape:cx="271.63043"
     inkscape:cy="62.868527"
     inkscape:window-width="1920"
     inkscape:window-height="1009"
     inkscape:window-x="-8"
     inkscape:window-y="-8"
     inkscape:window-maximized="1"
     inkscape:current-layer="layer1"
     inkscape:showpageshadow="2"
     inkscape:deskcolor="#d1d1d1" />
  <defs
     id="defs2" />
  <g
     inkscape:label="Layer 1"
     inkscape:groupmode="layer"
     id="layer1">
    <path
       style="fill:#000000;stroke-width:0.264583"
       id="path91993"
       d="" />
    <path
       style="fill:#000000;stroke-width:0.264583"
       id="path91973"
       d="" />
    <path
       style="fill:#000000;stroke-width:0.264583"
       id="path91953"
       d="" />
    <path
       style="fill:#0080e8;stroke-width:0.0569275"
       d="M 27.143543,57.546453 C 6.7298777,56.176556 -5.4721902,33.276622 4.5961921,15.231253 15.676911,-4.6284906 43.834487,-4.0028676 54.009583,16.329148 63.778014,35.848566 48.692429,58.992507 27.143543,57.546453 Z m 0.702417,-3.195028 c 0.243729,-0.986964 0.348721,-7.092863 0.136206,-7.921022 C 27.722212,45.417432 27.322131,44.99989 26.180018,44.549686 24.635329,43.94076 23.86874,43.257673 23.172796,41.869994 22.504452,40.537361 22.238786,38.512996 22.47053,36.518765 l 0.0728,-0.626209 -4.96245,-12.837241 C 14.851521,15.994836 12.598074,10.197105 12.573218,10.171468 12.371832,9.9637846 9.6159163,13.104577 8.3863101,14.943095 -2.3246804,30.958181 8.0693386,52.865394 27.11508,54.417204 c 0.313104,0.02549 0.598524,0.05012 0.634264,0.05438 0.03577,0.0032 0.07921,-0.04962 0.09664,-0.120145 z m -6.560882,-2.949814 c -0.169393,-0.0601 -0.319683,-0.121058 -0.333968,-0.135273 -0.01364,-0.01361 0.25878,-0.855806 0.606845,-1.870058 0.647405,-1.886455 0.673494,-1.975799 0.577075,-1.975799 -0.0776,0 -1.219352,-0.503237 -1.337095,-0.589343 -0.08933,-0.06518 -0.08572,-0.09394 0.04721,-0.394469 l 0.143372,-0.32415 0.47309,0.205828 c 0.72024,0.313343 1.919389,0.745466 2.657285,0.957567 0.364213,0.104751 0.661697,0.212068 0.661095,0.238631 -0.0026,0.163271 -0.173597,0.646002 -0.227296,0.646002 -0.03553,0 -0.382903,-0.08714 -0.772,-0.19363 -0.389089,-0.1065 -0.72054,-0.172505 -0.736568,-0.146667 -0.01605,0.02579 -0.310623,0.868393 -0.654674,1.872372 -0.453672,1.323882 -0.649,1.824445 -0.710926,1.821884 -0.047,-0.0013 -0.223995,-0.05276 -0.393381,-0.11281 z m -3.922152,-1.821174 c -0.197489,-0.116603 -0.370643,-0.223548 -0.38482,-0.237722 -0.01352,-0.01352 0.02597,-0.277174 0.08927,-0.584442 0.06325,-0.307289 0.108262,-0.563717 0.100179,-0.569834 -0.0082,-0.0058 -0.245351,-0.165497 -0.527137,-0.354179 -0.281789,-0.188681 -0.716096,-0.499869 -0.96514,-0.691534 -0.540364,-0.415864 -0.415719,-0.407968 -0.989769,-0.06271 l -0.474821,0.285533 -0.271089,-0.226975 c -0.149108,-0.124867 -0.299508,-0.261206 -0.33424,-0.303031 -0.05046,-0.06074 0.380629,-0.330601 2.149568,-1.345249 l 2.212672,-1.269179 0.346854,0.244596 c 0.190766,0.134547 0.34684,0.271658 0.34684,0.304711 0,0.09119 -0.903084,4.995996 -0.922433,5.009866 -0.009,0.0058 -0.178443,-0.08333 -0.375909,-0.199858 z m 0.04138,-2.458845 c 0.03333,-0.164383 0.132657,-0.65112 0.220942,-1.08163 0.08834,-0.43052 0.136427,-0.782759 0.106846,-0.782759 -0.02952,0 -0.463424,0.248991 -0.964282,0.553318 l -0.910639,0.553325 0.216431,0.187093 c 0.240897,0.20823 1.171083,0.863091 1.23155,0.867011 0.02129,9.12e-4 0.06578,-0.132048 0.09906,-0.296358 z m -6.148039,-2.723438 c -0.162283,-0.187317 -0.2853,-0.348273 -0.273386,-0.357682 0.01187,-0.0091 0.790527,-0.66813 1.730269,-1.463828 0.939756,-0.79569 1.750754,-1.479929 1.802205,-1.520485 0.09326,-0.07352 0.649403,0.495072 0.604347,0.617962 -0.0088,0.0246 -0.815567,0.72413 -1.792377,1.554611 l -1.776036,1.509993 z m -0.792602,-4.833757 c -0.23316,-0.46964 -0.438457,-0.853905 -0.456217,-0.853905 -0.01775,0 -0.4225347,0.204936 -0.8995011,0.455418 -0.4769672,0.25048 -0.8867146,0.455425 -0.9105502,0.455425 -0.044603,0 -0.4283656,-0.741423 -0.3978896,-0.768723 0.066449,-0.05949 4.1535039,-2.200919 4.1687959,-2.184234 0.01066,0.01134 0.178877,0.34138 0.37374,0.732777 0.194863,0.39137 0.495646,0.962364 0.668428,1.268862 0.172768,0.306494 0.304449,0.56452 0.292625,0.573382 -0.581316,0.435621 -0.594832,0.428265 -1.136442,-0.618308 -0.226837,-0.438349 -0.418342,-0.804979 -0.425563,-0.814769 -0.01867,-0.02522 -1.04971,0.496761 -1.04971,0.531421 0,0.01574 0.192049,0.412077 0.42678,0.880744 l 0.426794,0.852156 -0.298697,0.171308 c -0.164289,0.09425 -0.312194,0.171546 -0.328688,0.171838 -0.01648,2.22e-4 -0.220744,-0.383735 -0.453905,-0.853392 z M 7.8449811,24.962407 V 19.24115 h 3.4725909 3.472619 v 0.996227 0.996243 h -2.22019 -2.220194 v 1.337816 1.337798 h 2.163257 2.163267 v 0.996247 0.996236 h -2.163266 -2.163257 v 2.390975 2.390979 H 9.0973952 7.8449825 Z M 31.10003,54.393835 c 3.829691,-0.255991 8.136701,-1.760987 11.517968,-4.024689 13.362136,-8.94571 15.216294,-27.898209 3.845914,-39.311387 -0.506872,-0.50879 -0.943313,-0.924379 -0.969821,-0.923538 -0.02663,8.61e-4 -2.29068,5.802766 -5.031472,12.893153 l -4.98324,12.891611 0.06945,0.527599 c 0.511205,3.884992 -0.824629,6.988053 -3.441142,7.993591 -1.440869,0.553713 -1.879132,1.021281 -2.099851,2.240216 -0.180468,0.996659 -0.125361,4.814629 0.101789,7.059064 0.07828,0.772522 0.06953,0.75117 0.292305,0.71707 0.102161,-0.01567 0.416331,-0.0439 0.698115,-0.06272 z m 2.793908,-4.59145 c -0.372046,-1.231788 -0.686059,-2.26627 -0.697766,-2.298843 -0.01146,-0.03263 0.343802,-0.173001 0.791435,-0.312473 1.458879,-0.454564 2.073301,-0.338847 2.484961,0.467988 0.524243,1.027492 0.06582,1.872135 -1.245266,2.294407 -0.172202,0.05559 -0.329591,0.110112 -0.34974,0.121393 -0.02014,0.0111 0.08585,0.41734 0.235503,0.902366 l 0.272119,0.881869 -0.207043,0.0583 c -0.113816,0.03201 -0.297172,0.07313 -0.40738,0.09151 l -0.200362,0.03327 z m 1.185415,-0.590661 c 0.369826,-0.115003 0.711408,-0.402845 0.726085,-0.611906 0.05258,-0.748428 -0.413949,-1.04252 -1.271774,-0.801829 -0.388048,0.108799 -0.377299,0.05513 -0.156501,0.783186 0.09595,0.316569 0.187969,0.622271 0.204379,0.679319 0.01654,0.05702 0.05957,0.09293 0.09577,0.07967 0.03621,-0.01277 0.217172,-0.07105 0.401947,-0.128532 z m 3.369406,-1.232635 -0.336487,-2.515473 0.132447,-0.08901 c 0.07284,-0.04887 0.224262,-0.144119 0.336534,-0.211497 l 0.204075,-0.122612 2.013651,1.50045 c 1.107501,0.825264 2.02532,1.512138 2.039608,1.526429 0.03336,0.03336 -0.584773,0.491519 -0.662748,0.491519 -0.03214,0 -0.240853,-0.140891 -0.463745,-0.313116 -0.488402,-0.377364 -0.420851,-0.374619 -0.922602,-0.03767 -0.225596,0.151469 -0.634321,0.399663 -0.908285,0.551539 -0.273967,0.151881 -0.497668,0.303342 -0.497128,0.336574 6.47e-4,0.03336 0.03853,0.289312 0.08427,0.569072 0.04586,0.279744 0.07742,0.514342 0.07022,0.521304 -0.0275,0.02636 -0.68363,0.307851 -0.717663,0.307851 -0.01962,0 -0.187059,-1.13196 -0.372122,-2.515468 z m 1.506852,-0.09284 c 0.354468,-0.213503 0.650909,-0.41203 0.65876,-0.441214 0.01518,-0.05635 -1.633758,-1.348957 -1.67212,-1.310598 -0.03539,0.03535 0.291652,2.139947 0.332531,2.139947 0.02,0 0.326368,-0.174668 0.680829,-0.388135 z m 4.259364,-1.203459 c -0.07444,-0.09264 -0.821568,-0.871605 -1.660264,-1.731122 L 41.029827,43.388944 41.34933,43.08491 c 0.464384,-0.441939 0.312328,-0.45182 2.325716,0.151111 0.998582,0.299018 1.826382,0.532943 1.839523,0.519802 0.02021,-0.02021 -2.011304,-1.848629 -2.427954,-2.185111 l -0.139082,-0.112246 0.27127,-0.317537 0.271277,-0.317527 1.760622,1.598535 c 0.968352,0.879203 1.760631,1.618402 1.760631,1.642692 0,0.05995 -0.569466,0.737943 -0.616901,0.734448 -0.02079,-0.0013 -0.883147,-0.253765 -1.916388,-0.560522 -1.033242,-0.306752 -1.888343,-0.549819 -1.900231,-0.540136 -0.01163,0.0093 0.412802,0.473255 0.94375,1.030166 0.53094,0.556922 1.076543,1.135405 1.21245,1.285532 l 0.247096,0.272948 -0.277839,0.282104 c -0.326981,0.331952 -0.315091,0.329195 -0.488332,0.113622 z m 2.527792,-6.36703 c -1.102699,-0.648059 -2.005722,-1.199916 -2.006707,-1.226329 -0.0019,-0.07294 0.360418,-0.663572 0.408007,-0.663572 0.05521,0 3.923403,2.273292 4.02105,2.363127 0.08653,0.07951 -0.228476,0.713561 -0.35171,0.70802 -0.03616,-0.0013 -0.967936,-0.533191 -2.07064,-1.181246 z m 3.295827,-2.14799 c -0.211523,-0.09607 -0.28981,-0.159576 -0.259128,-0.210202 0.02418,-0.03989 0.131052,-0.194461 0.237647,-0.343484 0.539889,-0.755188 0.379134,-1.579191 -0.308075,-1.579191 -0.221008,0 -0.353048,0.09044 -0.881928,0.604067 -0.719261,0.698524 -1.175986,0.850854 -1.758807,0.586625 -0.927933,-0.420674 -1.039435,-1.550992 -0.267171,-2.708368 l 0.119972,-0.179871 0.32977,0.166463 c 0.389855,0.196803 0.375623,0.142103 0.131387,0.505047 -0.503686,0.748468 -0.418765,1.424533 0.178932,1.424533 0.164555,0 0.272177,-0.07467 0.731166,-0.506676 0.635883,-0.598645 0.950115,-0.771945 1.394569,-0.769157 1.363168,0.0083 1.858892,1.481171 0.966649,2.871606 -0.207478,0.323308 -0.208147,0.323451 -0.615045,0.138656 z m -4.080391,-7.319543 c -2.72784,-0.393375 -4.296118,-3.053377 -3.961262,-6.718865 0.301539,-3.300912 1.941889,-5.034246 4.758255,-5.028 3.005529,0.0058 4.751546,2.149751 4.753154,5.834081 0.0013,4.053745 -2.197137,6.396328 -5.550147,5.912784 z m 1.358752,-1.964031 c 1.020247,-0.347627 1.586728,-1.982343 1.497093,-4.320276 -0.09069,-2.366554 -0.794156,-3.572558 -2.087303,-3.578563 -1.361867,-0.0058 -2.056409,1.336171 -2.05482,3.971893 0.0013,3.019097 0.992568,4.489995 2.64503,3.926946 z M 29.269158,41.129095 c 0.264324,-1.562297 0.67215,-2.124072 2.168466,-2.987032 1.704388,-0.982969 2.24959,-1.593908 2.990411,-3.351076 0.180183,-0.427383 2.602116,-6.267838 5.382065,-12.978772 L 44.864559,9.6104945 44.699799,9.4504956 C 44.399206,9.158629 43.23204,8.3102888 43.190767,8.3536967 43.168407,8.3771367 41.191308,13.289328 38.79709,19.269602 l -4.353089,10.873235 -0.03188,0.686099 c -0.161419,3.467935 -2.189369,6.297305 -5.062302,7.062834 -0.36644,0.09763 -0.366732,0.09761 -0.853835,-0.05417 -2.833906,-0.883574 -4.610296,-3.432897 -4.881461,-7.005491 l -0.06,-0.790345 L 19.22072,19.219098 C 16.837126,13.266633 14.869534,8.3764605 14.848285,8.3520685 14.813765,8.3124265 14.360939,8.6317454 13.49349,9.3072677 13.332667,9.4325095 13.199989,9.566554 13.198646,9.6051461 c -0.0025,0.090264 10.542934,25.5493389 10.771316,26.0028279 0.575543,1.142879 1.163901,1.689956 2.915022,2.710541 1.238803,0.721984 1.7456,1.527562 1.938841,3.081861 0.03811,0.306421 0.0504,0.327356 0.192392,0.327356 0.148271,0 0.153982,-0.01312 0.252962,-0.598571 z m -0.08781,-6.716673 c 0.12336,-1.252521 0.574517,-1.926635 1.913579,-2.859504 0.887024,-0.617936 1.482816,-1.179949 1.852619,-1.747543 C 33.214759,29.395219 42.585834,8.0566861 42.55831,7.9210327 42.53326,7.797592 40.847977,6.7701488 40.780784,6.8373543 c -0.01665,0.01657 -1.738063,3.9605467 -3.825603,8.7644467 l -3.79551,8.734366 0.01296,0.996245 c 0.02886,2.147816 -0.332003,3.26027 -1.43237,4.415497 -0.713551,0.749127 -1.511465,1.273378 -2.364128,1.553275 l -0.353459,0.116057 -0.384729,-0.130844 C 26.079247,30.415928 24.83065,28.458238 24.87403,25.384727 l 0.01359,-1.000922 -3.804516,-8.762193 c -2.091698,-4.819279 -3.815088,-8.7750079 -3.828962,-8.7905727 -0.03352,-0.037543 -1.358913,0.7276933 -1.823924,1.0530209 -0.02219,0.015473 9.187819,21.0536128 9.408666,21.4921808 0.410988,0.816118 1.070685,1.483782 2.248641,2.275842 1.13336,0.762064 1.763818,1.76351 1.763818,2.801712 0,0.250105 0.304978,0.211871 0.329922,-0.04141 z m -0.02678,-6.319385 c 0.196144,-1.424055 0.477065,-1.927826 1.567848,-2.811593 0.696654,-0.564447 1.19111,-1.093364 1.480772,-1.583966 0.19401,-0.328653 7.799498,-16.8616018 7.894869,-17.1620618 0.02821,-0.088902 -0.07323,-0.1559167 -0.636358,-0.4205126 C 33.682414,3.3993875 27.128565,3.0440574 21.048271,5.116587 19.797313,5.5429875 17.921217,6.3635289 17.921217,6.48425 c 0,0.096713 7.733624,16.921459 7.921998,17.234547 0.270588,0.449759 0.763143,0.969638 1.53202,1.616996 1.05423,0.887612 1.527254,1.832198 1.532717,3.060689 9.79e-4,0.256157 0.203864,0.0058 0.246578,-0.303432 z m -0.992441,-3.347292 c -1.560777,-0.655533 -1.941498,-2.410814 -0.951721,-4.387757 0.392835,-0.784633 1.544583,-2.426187 1.70226,-2.426187 0.06107,0 0.781708,0.917658 1.133291,1.443089 1.375595,2.055777 1.483879,3.881905 0.294809,4.971954 -0.532323,0.487991 -1.531115,0.670863 -2.178639,0.398901 z M 24.12793,18.203334 c 8.64e-4,-0.0083 0.72648,-2.57711 1.612486,-5.708148 l 1.610939,-5.6927812 1.717782,-0.015016 c 0.944797,-0.00823 1.717784,-0.00823 1.717784,2.77e-5 0,0.00823 0.700461,2.5832366 1.55656,5.7220955 l 1.556543,5.706992 h -1.324545 -1.324556 l -0.0841,-0.28693 c -0.04627,-0.157826 -0.194852,-0.734599 -0.330194,-1.281719 l -0.246065,-0.994797 -1.64696,0.01503 -1.646951,0.01505 -0.349141,1.252423 -0.349155,1.252404 -1.235989,0.01538 c -0.679799,0.0083 -1.235291,0.0083 -1.234441,0 z m 5.97261,-4.526882 c -0.01268,-0.39826 -1.063357,-4.9395298 -1.146171,-4.9554788 -0.05132,-0.00993 -0.107361,0.028291 -0.124652,0.084874 -0.06092,0.1996832 -1.059975,4.8065458 -1.059975,4.8878008 0,0.06924 0.186526,0.08237 1.167022,0.08237 1.074735,0 1.166769,-0.0088 1.163778,-0.09961 z"
       id="path92353" />
    <rect
       style="fill:none;stroke:#9a9a9a;stroke-width:0.198619"
       id="rect23865"
       width="57.9729"
       height="57.961666"
       x="0.13092266"
       y="0.14215797" />
  </g>
</svg>
