<?xml version="1.0" encoding="UTF-8" standalone="no"?>
<!-- Created with Inkscape (http://www.inkscape.org/) -->

<svg
   width="150"
   height="150"
   viewBox="0 0 39.6875 39.6875"
   version="1.1"
   id="svg5"
   inkscape:version="1.1.1 (3bf5ae0d25, 2021-09-20)"
   xmlns:inkscape="http://www.inkscape.org/namespaces/inkscape"
   xmlns:sodipodi="http://sodipodi.sourceforge.net/DTD/sodipodi-0.dtd"
   xmlns="http://www.w3.org/2000/svg"
   xmlns:svg="http://www.w3.org/2000/svg">
  <sodipodi:namedview
     id="namedview7"
     pagecolor="#ffffff"
     bordercolor="#666666"
     borderopacity="1.0"
     inkscape:pageshadow="2"
     inkscape:pageopacity="0.0"
     inkscape:pagecheckerboard="0"
     inkscape:document-units="mm"
     showgrid="false"
     units="px"
     inkscape:zoom="4.0206071"
     inkscape:cx="77.475862"
     inkscape:cy="78.470737"
     inkscape:window-width="1920"
     inkscape:window-height="1017"
     inkscape:window-x="-8"
     inkscape:window-y="-8"
     inkscape:window-maximized="1"
     inkscape:current-layer="layer1" />
  <defs
     id="defs2" />
  <g
     inkscape:label="Layer 1"
     inkscape:groupmode="layer"
     id="layer1">
    <path
       style="fill:#000000;stroke-width:0.264583"
       id="path91993"
       d="" />
    <path
       style="fill:#000000;stroke-width:0.264583"
       id="path91973"
       d="" />
    <path
       style="fill:#000000;stroke-width:0.264583"
       id="path91953"
       d="" />
    <path
       style="fill:#0080e8;stroke-width:0.0393557"
       d="M 18.544409,39.470702 C 4.4319042,38.523662 -4.0037076,22.69233 2.9568313,10.217096 10.617226,-3.5124723 30.083301,-3.0799628 37.117611,10.976099 43.870786,24.470386 33.441728,40.470411 18.544409,39.470702 Z m 0.485602,-2.208799 c 0.168497,-0.682319 0.241087,-4.903487 0.09417,-5.476016 -0.1797,-0.700288 -0.456298,-0.988949 -1.245871,-1.300194 -1.067888,-0.420958 -1.597847,-0.893193 -2.078978,-1.852537 -0.462037,-0.921272 -0.6457,-2.320778 -0.485494,-3.699441 L 15.364148,24.5008 11.933474,15.626074 C 10.046603,10.744976 8.4887404,6.736853 8.4715571,6.7191298 8.3323382,6.5755528 6.4270995,8.7468674 5.57704,10.017881 -1.8277507,21.089538 5.357909,36.234558 18.524732,37.307375 c 0.216457,0.01766 0.413775,0.03456 0.438486,0.0376 0.02471,0.0032 0.05477,-0.03431 0.0668,-0.08305 z m -4.535713,-2.039284 c -0.117108,-0.04159 -0.221008,-0.08367 -0.23089,-0.09355 -0.0099,-0.0099 0.178912,-0.591652 0.41954,-1.29282 0.447565,-1.304156 0.465602,-1.365915 0.398942,-1.365915 -0.05364,0 -0.842964,-0.347906 -0.924368,-0.407431 -0.06165,-0.04507 -0.05927,-0.06496 0.03261,-0.27271 l 0.0991,-0.224091 0.327062,0.142292 c 0.497923,0.216622 1.326924,0.51536 1.837054,0.661994 0.251787,0.07237 0.457451,0.146609 0.457029,0.164965 -0.0026,0.112878 -0.120011,0.446606 -0.157134,0.446606 -0.02455,0 -0.264712,-0.06026 -0.533701,-0.133867 -0.268989,-0.07363 -0.498135,-0.119252 -0.509212,-0.101396 -0.01108,0.01785 -0.214745,0.600348 -0.452592,1.294427 -0.313637,0.915233 -0.448669,1.261285 -0.491484,1.259513 -0.03247,-0.0013 -0.154849,-0.03646 -0.271958,-0.07802 z M 11.78281,33.963588 c -0.136523,-0.08059 -0.256236,-0.15454 -0.266032,-0.164338 -0.0098,-0.0098 0.01795,-0.19162 0.06166,-0.404052 0.04371,-0.212425 0.07487,-0.389701 0.06925,-0.39393 -0.0056,-0.0044 -0.169611,-0.114422 -0.364421,-0.244858 -0.194811,-0.130437 -0.495064,-0.345571 -0.667229,-0.478071 -0.37356,-0.287496 -0.287391,-0.28204 -0.6842453,-0.04336 L 9.6035771,32.432391 9.4161611,32.275478 C 9.3130829,32.189172 9.2091066,32.094897 9.185103,32.065977 9.1502136,32.023947 9.4482427,31.837423 10.671146,31.13597 l 1.529687,-0.877412 0.239784,0.169098 c 0.131883,0.09301 0.239785,0.187796 0.239785,0.210647 0,0.06304 -0.624326,3.453867 -0.637707,3.463456 -0.0064,0.0044 -0.123361,-0.0576 -0.259882,-0.138171 z m 0.02857,-1.699865 c 0.02296,-0.113637 0.09169,-0.450131 0.152747,-0.747761 0.06106,-0.297629 0.09433,-0.54114 0.07394,-0.54114 -0.02039,0 -0.320372,0.172137 -0.666625,0.382524 l -0.629552,0.38253 0.149624,0.129342 c 0.166536,0.143956 0.809603,0.596677 0.851404,0.599386 0.0147,6.33e-4 0.04551,-0.09124 0.06847,-0.204881 z m -4.2502962,-1.88278 c -0.1121847,-0.1295 -0.1972346,-0.24077 -0.1890015,-0.247277 0.00824,-0.0065 0.5465185,-0.461898 1.19619,-1.011983 0.6496701,-0.550084 1.2103312,-1.023103 1.245913,-1.05115 0.064501,-0.05083 0.4489397,0.34226 0.4177957,0.427211 -0.0062,0.01696 -0.563826,0.500611 -1.2391202,1.074755 l -1.2278062,1.04389 z M 7.0131687,27.039244 C 6.8519806,26.714562 6.7100531,26.44891 6.6977754,26.44891 c -0.012273,0 -0.2921096,0.141678 -0.6218486,0.314846 -0.3297403,0.173162 -0.6130097,0.314847 -0.6294879,0.314847 -0.030838,0 -0.2961402,-0.512568 -0.2750718,-0.531437 0.045941,-0.04114 2.8714226,-1.521557 2.8820014,-1.51003 0.00739,0.008 0.1236599,0.236022 0.2583734,0.506592 0.1347135,0.270571 0.3426567,0.665311 0.4620966,0.877198 0.1194405,0.211894 0.2104758,0.390271 0.2023022,0.396399 C 8.5742676,27.11848 8.5649198,27.113397 8.1904962,26.389872 8.0336743,26.086837 7.9012787,25.833364 7.8962839,25.826597 c -0.012881,-0.01741 -0.7256913,0.343425 -0.7256913,0.36739 0,0.01089 0.1327722,0.284875 0.2950484,0.608887 l 0.2950503,0.589113 -0.2064988,0.118429 c -0.1135748,0.06513 -0.2158263,0.118593 -0.2272261,0.118796 -0.011393,1.52e-4 -0.1526076,-0.265278 -0.3137977,-0.589968 z M 5.202805,16.944491 V 12.98924 h 2.4006998 2.4007032 v 0.688724 0.688724 H 8.4693329 6.9344581 v 0.92486 0.924861 H 8.429976 9.9254958 v 0.68873 0.688724 H 8.4299766 6.9344587 v 1.652942 1.652943 H 6.0686318 5.2028056 Z m 16.076829,20.346731 c 2.647567,-0.176979 5.625117,-1.217414 7.962675,-2.782373 9.237596,-6.184406 10.519427,-19.286775 2.658779,-27.1770026 -0.35042,-0.3517424 -0.652132,-0.6390482 -0.670469,-0.6384659 -0.01836,5.95e-4 -1.5836,4.0116045 -3.47838,8.9133755 l -3.445048,8.912311 0.048,0.364744 c 0.353415,2.685794 -0.570083,4.831024 -2.37895,5.526179 -0.996112,0.382802 -1.299094,0.706042 -1.451682,1.548723 -0.124762,0.689015 -0.0867,3.328476 0.07038,4.880118 0.05406,0.534063 0.04805,0.519302 0.202081,0.495724 0.07063,-0.01082 0.28781,-0.03032 0.482622,-0.04336 z m 1.9315,-3.174195 c -0.257212,-0.851562 -0.474285,-1.566726 -0.482384,-1.589247 -0.0081,-0.02253 0.237684,-0.1196 0.547142,-0.21602 1.00856,-0.314252 1.433332,-0.234257 1.71792,0.323531 0.362415,0.710327 0.04549,1.294256 -0.860886,1.586182 -0.119051,0.03836 -0.227855,0.07609 -0.241787,0.08389 -0.01394,0.0078 0.05933,0.288515 0.162803,0.623832 l 0.188133,0.609659 -0.143125,0.04032 c -0.07872,0.02215 -0.205456,0.05064 -0.281642,0.06323 l -0.138516,0.02291 z m 0.819509,-0.408337 c 0.25567,-0.07948 0.491821,-0.278495 0.501962,-0.423027 0.0363,-0.51741 -0.286171,-0.720721 -0.879206,-0.554325 -0.268271,0.07527 -0.260842,0.03811 -0.108205,0.541431 0.06637,0.218856 0.129953,0.430199 0.1413,0.46964 0.01135,0.03943 0.04117,0.06424 0.06627,0.05507 0.0251,-0.0091 0.150148,-0.04912 0.27788,-0.08882 z m 2.329362,-0.852151 -0.232623,-1.739013 0.09154,-0.06152 c 0.05035,-0.0338 0.155034,-0.09963 0.232641,-0.14621 l 0.141102,-0.0847 1.392079,1.037301 c 0.765642,0.570516 1.400159,1.045378 1.410027,1.055253 0.02298,0.02298 -0.40426,0.339798 -0.458164,0.339798 -0.02222,0 -0.16651,-0.09741 -0.320594,-0.216458 -0.337653,-0.260885 -0.290952,-0.25898 -0.637833,-0.02608 -0.155955,0.104719 -0.438516,0.276305 -0.627916,0.381302 -0.1894,0.104998 -0.344053,0.209704 -0.343675,0.232674 4.46e-4,0.02298 0.02662,0.200013 0.05832,0.393418 0.0317,0.193398 0.05352,0.355578 0.04851,0.360395 -0.01898,0.01823 -0.47262,0.212824 -0.496143,0.212824 -0.01355,0 -0.129317,-0.782556 -0.257259,-1.739014 z m 1.041729,-0.0642 c 0.24505,-0.14759 0.449988,-0.284843 0.455417,-0.30501 0.01051,-0.03905 -1.129456,-0.932576 -1.155975,-0.906055 -0.02446,0.02443 0.20162,1.479407 0.229881,1.479407 0.01382,0 0.225626,-0.120758 0.470677,-0.268342 z m 2.944611,-0.831972 c -0.05146,-0.06403 -0.567978,-0.602576 -1.147787,-1.196778 l -1.054189,-1.080363 0.220875,-0.210184 c 0.321044,-0.305523 0.215932,-0.312353 1.607831,0.104459 0.690357,0.206735 1.262633,0.368447 1.271716,0.359363 0.01399,-0.01399 -1.390474,-1.278001 -1.678508,-1.510625 l -0.09613,-0.07763 0.187536,-0.219521 0.187544,-0.219514 1.217166,1.105112 c 0.669444,0.607811 1.217173,1.11884 1.217173,1.135627 0,0.04146 -0.393695,0.510162 -0.426483,0.507744 -0.01437,-0.0013 -0.610546,-0.175434 -1.324848,-0.387499 -0.714309,-0.21207 -1.305466,-0.380105 -1.313682,-0.373421 -0.0082,0.0067 0.285381,0.327177 0.652435,0.712188 0.367054,0.385018 0.744242,0.784936 0.8382,0.888724 l 0.170827,0.188695 -0.192088,0.195025 c -0.226041,0.22949 -0.217825,0.227579 -0.337589,0.0786 z m 1.747527,-4.401698 c -0.762326,-0.448023 -1.386607,-0.829534 -1.38729,-0.847796 -0.0019,-0.05045 0.249163,-0.45874 0.282064,-0.45874 0.03817,0 2.712354,1.571587 2.77986,1.633688 0.05982,0.05501 -0.157951,0.493313 -0.243149,0.489477 -0.025,-0.0013 -0.669159,-0.368611 -1.431485,-0.816629 z m 2.278489,-1.484958 c -0.146235,-0.06643 -0.200348,-0.110327 -0.179143,-0.145317 0.01671,-0.0276 0.09064,-0.134437 0.164294,-0.237466 0.373238,-0.522088 0.262107,-1.091737 -0.212982,-1.091737 -0.152787,0 -0.244068,0.06254 -0.609698,0.417603 -0.497243,0.482913 -0.812989,0.588227 -1.215907,0.405558 -0.641498,-0.290825 -0.718587,-1.072248 -0.184707,-1.872375 l 0.08297,-0.124354 0.227971,0.115081 c 0.269519,0.136051 0.259683,0.09826 0.09085,0.349154 -0.34821,0.517435 -0.289502,0.984821 0.123702,0.984821 0.113758,0 0.188163,-0.05159 0.505472,-0.35028 0.439605,-0.413856 0.656841,-0.533665 0.964105,-0.531741 0.9424,0.0057 1.285097,1.023965 0.668266,1.985215 -0.143431,0.223515 -0.143894,0.223616 -0.425193,0.09584 z M 31.551485,21.01352 c -1.885838,-0.271956 -2.970024,-2.110885 -2.738533,-4.644936 0.208463,-2.282003 1.342488,-3.480307 3.289516,-3.47599 2.077799,0.0044 3.284864,1.486186 3.285978,4.033252 0.0013,2.802463 -1.518943,4.421953 -3.836961,4.087674 z m 0.939336,-1.357794 c 0.705327,-0.240327 1.096947,-1.370447 1.034985,-2.986721 -0.06273,-1.636055 -0.549027,-2.469799 -1.443017,-2.473958 -0.941489,-0.0044 -1.421642,0.923734 -1.420541,2.745882 0.0013,2.08718 0.68618,3.104049 1.828573,2.714797 z m -12.476917,8.465237 c 0.182732,-1.080058 0.464675,-1.468424 1.49912,-2.065019 1.178288,-0.679546 1.555193,-1.101909 2.067347,-2.316683 0.124567,-0.295459 1.798912,-4.333116 3.720767,-8.972571 L 30.795419,6.3313207 30.68151,6.2207089 C 30.473705,6.01893 29.666805,5.43245 29.638277,5.4624592 29.622833,5.4786633 28.256,8.8745948 26.600823,13.008913 l -3.009413,7.516951 -0.02208,0.474324 c -0.111594,2.397475 -1.513574,4.353491 -3.499706,4.882718 -0.253322,0.06751 -0.253528,0.06749 -0.590274,-0.03747 C 17.520198,25.2346 16.292136,23.472185 16.104667,21.002361 L 16.063197,20.45599 13.067132,12.973992 C 11.419297,8.8588907 10.059048,5.4781886 10.044357,5.4613262 10.020513,5.4339185 9.7074414,5.6546738 9.1077475,6.1216803 8.9965654,6.2082646 8.9048428,6.3009317 8.9039205,6.3276114 c -0.00215,0.062411 7.2886075,17.6629306 7.4464875,17.9764356 0.397896,0.790113 0.804639,1.16832 2.015236,1.873875 0.856415,0.499123 1.206777,1.056043 1.340371,2.13057 0.02634,0.211837 0.03483,0.2263 0.133006,0.2263 0.102502,0 0.106451,-0.0094 0.174882,-0.413805 z M 19.95317,23.47755 c 0.0853,-0.865892 0.397183,-1.331937 1.32291,-1.976853 0.613221,-0.427199 1.025109,-0.815729 1.280765,-1.208121 0.184734,-0.28354 6.663203,-15.0354401 6.644175,-15.1292212 -0.01734,-0.085337 -1.182391,-0.7956329 -1.228845,-0.7491727 -0.01146,0.011457 -1.201568,2.7380269 -2.644737,6.0590969 l -2.62394,6.038297 0.0093,0.68873 c 0.01996,1.484838 -0.229525,2.253911 -0.990235,3.052545 -0.493295,0.517884 -1.04492,0.880318 -1.634381,1.073823 l -0.244361,0.08022 -0.265967,-0.09048 c -1.768979,-0.601798 -2.63217,-1.955205 -2.60218,-4.079997 l 0.0098,-0.691964 -2.630163,-6.057546 c -1.44665,-3.3316534 -2.638075,-6.0663509 -2.64767,-6.0771114 -0.02314,-0.025952 -0.939441,0.5030733 -1.260928,0.7279808 -0.01527,0.010697 6.351784,14.5549196 6.504467,14.8581126 0.284127,0.5642 0.740189,1.025775 1.554544,1.573347 0.78352,0.526841 1.219371,1.21916 1.219371,1.936899 0,0.172903 0.210841,0.146476 0.228089,-0.02861 z m -0.0185,-4.368758 c 0.135601,-0.984492 0.329809,-1.33276 1.08389,-1.943729 0.481615,-0.390215 0.823454,-0.755876 1.023698,-1.095035 0.134149,-0.227212 5.39203,-11.6568777 5.457956,-11.8645937 0.0195,-0.061461 -0.05064,-0.1077887 -0.439935,-0.2907112 C 23.064914,2.0374112 18.534068,1.7917612 14.330597,3.224556 c -0.864819,0.2947813 -2.161823,0.8620442 -2.161823,0.9455015 0,0.066861 5.346467,11.6982545 5.476689,11.9146995 0.18707,0.310928 0.527589,0.670336 1.059127,1.117872 0.728813,0.613629 1.055831,1.266646 1.059614,2.115936 7.6e-4,0.177087 0.140934,0.0044 0.170466,-0.209773 z m -0.68609,-2.314075 c -1.079002,-0.453189 -1.34221,-1.666665 -0.657951,-3.033371 0.271578,-0.542438 1.06781,-1.677287 1.176813,-1.677287 0.04221,0 0.540421,0.634402 0.783478,0.997646 0.950986,1.421211 1.025844,2.683661 0.20381,3.437239 -0.368007,0.337361 -1.058499,0.463791 -1.50615,0.275773 z m -2.788945,-4.52295 c 5.95e-4,-0.0057 0.502237,-1.781619 1.114758,-3.9461866 l 1.113677,-3.9355778 1.187552,-0.010381 c 0.653155,-0.0057 1.187554,-0.0057 1.187554,1.9e-5 0,0.0057 0.484237,1.7858601 1.076084,3.955833 l 1.076081,3.9453954 h -0.915699 -0.915699 l -0.05815,-0.198361 c -0.03198,-0.109105 -0.134698,-0.507845 -0.228259,-0.88609 l -0.170113,-0.687718 -1.138582,0.01038 -1.138583,0.01044 -0.241375,0.865829 -0.241377,0.865823 -0.854475,0.01063 c -0.469962,0.0057 -0.853989,0.0057 -0.853394,0 z m 4.129027,-3.1295518 c -0.009,-0.2753237 -0.735123,-3.4148257 -0.792376,-3.425852 -0.03549,-0.00684 -0.07424,0.019559 -0.08618,0.058676 -0.04212,0.1380448 -0.732788,3.3228991 -0.732788,3.3790691 0,0.047853 0.128947,0.056967 0.806792,0.056967 0.742993,0 0.806617,-0.0057 0.804549,-0.068867 z"
       id="path92353" />
  </g>
</svg>
