<?xml version="1.0" encoding="UTF-8" standalone="no"?>
<!-- Generator: Adobe Illustrator 26.5.0, SVG Export Plug-In . SVG Version: 6.00 Build 0)  -->

<svg
   version="1.1"
   id="Layer_1"
   x="0px"
   y="0px"
   viewBox="0 0 100 60"
   xml:space="preserve"
   sodipodi:docname="G20-1.svg"
   inkscape:version="1.2.2 (732a01da63, 2022-12-09)"
   width="100"
   height="60"
   xmlns:inkscape="http://www.inkscape.org/namespaces/inkscape"
   xmlns:sodipodi="http://sodipodi.sourceforge.net/DTD/sodipodi-0.dtd"
   xmlns="http://www.w3.org/2000/svg"
   xmlns:svg="http://www.w3.org/2000/svg"><defs
   id="defs145" /><sodipodi:namedview
   id="namedview143"
   pagecolor="#ffffff"
   bordercolor="#666666"
   borderopacity="1.0"
   inkscape:pageshadow="2"
   inkscape:pageopacity="0.0"
   inkscape:pagecheckerboard="0"
   showgrid="false"
   inkscape:zoom="2.650248"
   inkscape:cx="64.710925"
   inkscape:cy="87.161654"
   inkscape:window-width="2560"
   inkscape:window-height="1369"
   inkscape:window-x="-8"
   inkscape:window-y="-8"
   inkscape:window-maximized="1"
   inkscape:current-layer="Layer_1"
   inkscape:showpageshadow="2"
   inkscape:deskcolor="#d1d1d1" />
<style
   type="text/css"
   id="style2">
	.st0{fill:url(#SVGID_1_);}
	.st1{fill:url(#SVGID_00000028319238795619270600000016100498909879532430_);}
	.st2{fill:url(#SVGID_00000156575991082012152420000007201000919931251848_);}
	.st3{fill:url(#SVGID_00000101071210573337801100000003753401761047697038_);}
	.st4{fill:url(#SVGID_00000058555379145055830420000008642121224879872411_);}
	.st5{fill:url(#SVGID_00000073720550320581778090000003156902978313904562_);}
	.st6{fill:url(#SVGID_00000034780312797748012690000015995448946939242125_);}
	.st7{fill:url(#SVGID_00000136411020648790637480000003529787493637803163_);}
	.st8{fill:url(#SVGID_00000062153894757305039560000000137637544165990556_);}
	.st9{fill:url(#SVGID_00000154406124440071489930000008667977283876361642_);}
	.st10{fill:url(#SVGID_00000118355788048934274360000011932714813201665453_);}
	.st11{fill:url(#SVGID_00000152256942499778774870000012237781310243470777_);}
	.st12{fill:#2B3272;}
</style>

<linearGradient
   id="SVGID_00000000198838169744224020000005120417061609063048_"
   gradientUnits="userSpaceOnUse"
   x1="889.95068"
   y1="416.49899"
   x2="889.95068"
   y2="646.42853"
   gradientTransform="matrix(0.08129196,0,0,0.08129196,-19.075854,-8.9474794)">
	<stop
   offset="0"
   style="stop-color:#FF8E00"
   id="stop59" />
	<stop
   offset="0.9995"
   style="stop-color:#008D41"
   id="stop61" />
</linearGradient>


<radialGradient
   id="SVGID_00000039118892061955231120000000504063877585580440_"
   cx="1373.4446"
   cy="291.2113"
   r="222.56911"
   gradientUnits="userSpaceOnUse"
   gradientTransform="matrix(0.08129196,0,0,0.08129196,-19.075854,-8.9474794)">
	<stop
   offset="0"
   style="stop-color:#C1E3F7"
   id="stop89" />
	<stop
   offset="5.915707e-02"
   style="stop-color:#AED5EF"
   id="stop91" />
	<stop
   offset="0.1984"
   style="stop-color:#87B8DE"
   id="stop93" />
	<stop
   offset="0.3427"
   style="stop-color:#679FD0"
   id="stop95" />
	<stop
   offset="0.4913"
   style="stop-color:#4E8DC5"
   id="stop97" />
	<stop
   offset="0.6457"
   style="stop-color:#3C7FBD"
   id="stop99" />
	<stop
   offset="0.8097"
   style="stop-color:#3178B8"
   id="stop101" />
	<stop
   offset="1"
   style="stop-color:#2E75B7"
   id="stop103" />
</radialGradient>




<g
   id="g1218"
   transform="matrix(0.81497958,0,0,0.81497958,0.79242397,1.893388)"><g
     id="g57"
     transform="matrix(0.08129196,0,0,0.08129196,-19.075855,-8.9474794)">
	<linearGradient
   id="SVGID_1_"
   gradientUnits="userSpaceOnUse"
   x1="1386.1564"
   y1="457.6232"
   x2="1386.1564"
   y2="683.80658">
		<stop
   offset="0"
   style="stop-color:#FF8E00"
   id="stop4" />
		<stop
   offset="0.9995"
   style="stop-color:#008D41"
   id="stop6" />
	</linearGradient>
	<path
   class="st0"
   d="m 1386.2,679.4 c 0,0 60.7,-13.3 75.8,-68.2 20.5,-74.8 -75.8,-187.8 -75.8,-187.8 0,0 -96.2,113 -75.8,187.8 15,54.9 75.8,68.2 75.8,68.2 z"
   id="path9"
   style="fill:url(#SVGID_1_)" />
	<g
   id="g25">
		
			<linearGradient
   id="SVGID_00000085938509065945576410000005297278849376146864_"
   gradientUnits="userSpaceOnUse"
   x1="1281.9921"
   y1="457.6232"
   x2="1281.9921"
   y2="683.80658">
			<stop
   offset="0"
   style="stop-color:#FF8E00"
   id="stop11" />
			<stop
   offset="0.9995"
   style="stop-color:#008D41"
   id="stop13" />
		</linearGradient>
		<path
   style="fill:url(#SVGID_00000085938509065945576410000005297278849376146864_)"
   d="m 1250.2,443 c 0,0 -4.4,35.4 -7,72.9 0,0 26.4,6.4 57.8,20.1 4.2,-15.1 10.7,-31.8 19.9,-50.2 -0.1,0.1 -38,-24.8 -70.7,-42.8 z"
   id="path16" />
		
			<linearGradient
   id="SVGID_00000044171113435961429420000009417768475897522850_"
   gradientUnits="userSpaceOnUse"
   x1="1262.1189"
   y1="457.6232"
   x2="1262.1189"
   y2="683.80658">
			<stop
   offset="0"
   style="stop-color:#FF8E00"
   id="stop18" />
			<stop
   offset="0.9995"
   style="stop-color:#008D41"
   id="stop20" />
		</linearGradient>
		<path
   style="fill:url(#SVGID_00000044171113435961429420000009417768475897522850_)"
   d="m 1298.2,547.3 c -23.2,-8.5 -99.2,-35 -160.2,-43.7 0,0 23,90.8 97.3,152.9 66.6,55.7 150.8,24.7 150.8,24.7 0,0 -112.7,-18.5 -87.9,-133.9 z"
   id="path23" />
	</g>
	
		<linearGradient
   id="SVGID_00000059278383034140863350000015620341800212428222_"
   gradientUnits="userSpaceOnUse"
   x1="1225.3645"
   y1="457.6232"
   x2="1225.3645"
   y2="683.80658">
		<stop
   offset="0"
   style="stop-color:#FF8E00"
   id="stop27" />
		<stop
   offset="0.9995"
   style="stop-color:#008D41"
   id="stop29" />
	</linearGradient>
	<path
   style="fill:url(#SVGID_00000059278383034140863350000015620341800212428222_)"
   d="m 1228.6,664.2 c -43.6,-34.3 -27.8,-30.7 -64.7,-54.6 -35.3,-22.9 -76.1,-21.1 -99.4,-17.2 18.2,17.3 44.6,38.6 60.6,50.7 31,23.5 68.1,47.8 112.2,61.7 90.8,28.6 148.8,-22.2 148.8,-22.2 0,0 -90.8,34 -157.5,-18.4 z"
   id="path32" />
	<g
   id="g48">
		
			<linearGradient
   id="SVGID_00000104679269342689886390000004821664011777286335_"
   gradientUnits="userSpaceOnUse"
   x1="1490.4"
   y1="457.6232"
   x2="1490.4"
   y2="683.80658">
			<stop
   offset="0"
   style="stop-color:#FF8E00"
   id="stop34" />
			<stop
   offset="0.9995"
   style="stop-color:#008D41"
   id="stop36" />
		</linearGradient>
		<path
   style="fill:url(#SVGID_00000104679269342689886390000004821664011777286335_)"
   d="m 1522.2,443 c 0,0 4.4,35.4 7,72.9 0,0 -26.4,6.4 -57.8,20.1 -4.2,-15.1 -10.7,-31.8 -19.9,-50.2 0.1,0.1 38,-24.8 70.7,-42.8 z"
   id="path39" />
		
			<linearGradient
   id="SVGID_00000110439249141616154940000011057773016097165474_"
   gradientUnits="userSpaceOnUse"
   x1="1510.2731"
   y1="457.6232"
   x2="1510.2731"
   y2="683.80658">
			<stop
   offset="0"
   style="stop-color:#FF8E00"
   id="stop41" />
			<stop
   offset="0.9995"
   style="stop-color:#008D41"
   id="stop43" />
		</linearGradient>
		<path
   style="fill:url(#SVGID_00000110439249141616154940000011057773016097165474_)"
   d="m 1474.2,547.3 c 23.2,-8.5 99.2,-35 160.2,-43.7 0,0 -23,90.8 -97.3,152.9 -66.6,55.7 -150.8,24.7 -150.8,24.7 0,0 112.7,-18.5 87.9,-133.9 z"
   id="path46" />
	</g>
	
		<linearGradient
   id="SVGID_00000029734836527861618330000013793231944937494964_"
   gradientUnits="userSpaceOnUse"
   x1="1547.0275"
   y1="457.6232"
   x2="1547.0275"
   y2="683.80658">
		<stop
   offset="0"
   style="stop-color:#FF8E00"
   id="stop50" />
		<stop
   offset="0.9995"
   style="stop-color:#008D41"
   id="stop52" />
	</linearGradient>
	<path
   style="fill:url(#SVGID_00000029734836527861618330000013793231944937494964_)"
   d="m 1543.7,664.2 c 43.6,-34.3 27.8,-30.7 64.7,-54.6 35.3,-22.9 76.1,-21.1 99.4,-17.2 -18.2,17.3 -44.6,38.6 -60.6,50.7 -31,23.5 -68.1,47.8 -112.2,61.7 -90.8,28.6 -148.8,-22.2 -148.8,-22.2 0,0 90.9,34 157.5,-18.4 z"
   id="path55" />
</g><path
     style="fill:url(#SVGID_00000000198838169744224020000005120417061609063048_);stroke-width:0.0812917"
     d="M 50.306833,40.754424 63.313548,25.65038 v 0 c 1.861585,-2.170495 2.991544,-4.9832 2.991544,-8.07229 0,-6.83666 -5.54411,-12.3807696 -12.38077,-12.3807696 -4.820609,0 -8.999016,2.7557994 -11.039446,6.7797546 l 3.568716,3.519935 c 0.910471,-3.27606 3.902014,-5.6823061 7.47073,-5.6823061 4.284093,0 7.763386,3.4711691 7.763386,7.7633861 0,1.894102 -0.682851,3.633745 -1.804679,4.975068 v 0 l -19.851499,23.0544 h 6.096895 20.379899 v -4.853134 z"
     id="path64" /><g
     id="g87"
     transform="matrix(0.08129196,0,0,0.08129196,-19.075855,-8.9474794)">
	
		<linearGradient
   id="SVGID_00000100347266452680359810000012318707145604690330_"
   gradientUnits="userSpaceOnUse"
   x1="672.48962"
   y1="416.49899"
   x2="672.48962"
   y2="646.42853">
		<stop
   offset="0"
   style="stop-color:#FF8E00"
   id="stop66" />
		<stop
   offset="0.9995"
   style="stop-color:#008D41"
   id="stop68" />
	</linearGradient>
	
		<line
   style="fill:url(#SVGID_00000100347266452680359810000012318707145604690330_)"
   x1="694.09998"
   y1="254.3"
   x2="650.90002"
   y2="297.60001"
   id="line71" />
	
		<linearGradient
   id="SVGID_00000126307936561181714670000005728481676633904305_"
   gradientUnits="userSpaceOnUse"
   x1="503.38501"
   y1="416.49899"
   x2="503.38501"
   y2="646.42853">
		<stop
   offset="0"
   style="stop-color:#FF8E00"
   id="stop73" />
		<stop
   offset="0.9995"
   style="stop-color:#008D41"
   id="stop75" />
	</linearGradient>
	<path
   style="fill:url(#SVGID_00000126307936561181714670000005728481676633904305_)"
   d="M 759.1,408.4 H 697.9 496.2 v 59.7 H 694 C 674.7,555.5 596.7,621 503.4,621 395.5,621 308,533.5 308,425.6 c 0,-107.9 87.5,-195.4 195.4,-195.4 58.9,0 111.7,26.1 147.5,67.3 l 43.2,-43.2 C 647.2,202.1 579.1,169.2 503.4,169.2 361.8,169.2 247,284 247,425.6 247,567.2 361.8,682 503.4,682 645,682 759.8,567.2 759.8,425.6 c 0,-5.8 -0.3,-11.5 -0.7,-17.2 z"
   id="path78" />
	
		<linearGradient
   id="SVGID_00000011014472794677821970000011608424517198115719_"
   gradientUnits="userSpaceOnUse"
   x1="650.86823"
   y1="297.5838"
   x2="650.86823"
   y2="297.5838">
		<stop
   offset="0"
   style="stop-color:#FF8E00"
   id="stop80" />
		<stop
   offset="0.9995"
   style="stop-color:#008D41"
   id="stop82" />
	</linearGradient>
	<path
   style="fill:url(#SVGID_00000011014472794677821970000011608424517198115719_)"
   d="M 650.9,297.6"
   id="path85" />
</g><path
     style="fill:url(#SVGID_00000039118892061955231120000000504063877585580440_);stroke-width:0.0812917"
     d="m 81.287201,30.869323 c -0.01626,-0.09755 -0.146327,-0.138196 -0.252006,-0.04066 -0.11381,0.08942 -0.138196,0.251999 -0.130065,0.390196 0.01626,0.138196 -0.04879,0.317042 0.08942,0.414589 0.11381,0.05692 0.186977,-0.01626 0.276393,-0.01626 0.03252,-0.284524 0.04066,-0.463363 0.01626,-0.747888 z m 2.511918,-10.364726 c -0.154452,-0.02439 -0.447101,-0.11381 -0.463363,0.06505 0.03253,0.178839 0.276393,0.292648 0.430852,0.203226 0.162583,-0.105679 0.154452,-0.227613 0.03253,-0.268262 z m 7.438219,2.674508 c -0.04066,0.308911 0.04879,0.203232 0.08129,0.422721 0.01626,-0.195102 0.04066,-0.146328 0.05692,-0.34143 -0.09755,-0.01626 -0.113809,-0.04879 -0.138196,-0.08129 z m 10.893122,3.105353 c -0.0488,0.138196 0.0488,0.30078 0.1951,0.325166 0.12194,0.02439 0.26014,-0.08129 0.30891,-0.05692 -0.10568,-0.162584 -0.30078,-0.276393 -0.50401,-0.268262 z m -1.72339,-2.772055 c -0.0894,-0.11381 -0.1951,-0.219489 -0.22762,-0.357685 -0.008,0.08129 -0.008,0.178839 0.0163,0.243875 0.065,0.170715 0.13007,0.349553 0.20323,0.528399 0.008,0.01626 0.0163,0.04066 0.0407,0.04879 0.0406,0.01626 0.0813,-0.02439 0.0894,-0.06505 0.0406,-0.138197 -0.0325,-0.284518 -0.12194,-0.398327 z m -0.471492,-1.121828 c -0.12194,0 -0.0975,0.227612 0.0406,0.284517 -0.008,-0.08942 -0.0244,-0.18697 -0.0406,-0.284517 z m 0.252002,-1.316929 c -0.284522,0.284517 -0.333302,0.682851 -0.211352,1.024273 0.008,0.03252 0.0406,0.06505 0.065,0.04879 0.008,-0.0081 0.008,-0.01626 0.0163,-0.03252 0.11381,-0.325174 -0.0488,-0.731632 0.13006,-1.040536 z m -5.170169,2.52818 c -0.195101,-0.170715 -0.41459,-0.34143 -0.463363,-0.593436 -0.178839,0.276393 -0.276393,0.723501 -0.22762,1.170608 0.01626,0.203226 0.07317,0.414583 0.22762,0.544655 0.178846,0.154453 0.463363,0.146321 0.682851,0.04879 0.06505,-0.03252 0.121941,-0.06505 0.162584,-0.121941 0.06505,-0.07316 0.07317,-0.178839 0.07317,-0.276393 -0.02439,-0.308904 -0.235751,-0.569042 -0.455239,-0.772268 z m 17.380229,4.162144 c -0.0407,-0.06505 -0.0732,-0.130065 -0.11381,-0.195101 -0.0894,0.06505 -0.21136,0.09755 -0.31704,0.09755 -0.0407,0 -0.0813,-0.0081 -0.12194,0.0081 -0.0976,0.02439 -0.13006,0.130072 -0.17884,0.211364 -0.065,0.121934 -0.17071,0.227613 -0.30078,0.284517 -0.0407,0.01626 -0.0894,0.03252 -0.13007,0.03252 -0.0488,-0.0081 -0.0894,-0.04879 -0.0975,-0.08942 0,-0.04879 0.0406,-0.08942 0.0813,-0.121935 -0.0488,-0.04879 -0.13008,-0.04879 -0.18698,-0.0081 -0.0488,0.04879 -0.0569,0.121941 -0.1138,0.162584 -0.0244,0.01626 -0.0569,0.03252 -0.0894,0.03252 -0.0732,0.01626 -0.14632,0.03252 -0.21948,0.04066 -0.0894,0.01626 -0.17885,0.04066 -0.22762,0.113803 -0.0407,0.06505 -0.0244,0.170714 0.0406,0.211363 0.065,0.04879 0.16259,0.04066 0.21949,-0.01626 0.0407,-0.04879 0.065,-0.11381 0.11381,-0.146321 0.0407,-0.02439 0.0975,-0.01626 0.1382,-0.04879 0.0406,-0.02439 0.065,-0.08129 0.1138,-0.07316 0.0325,0.0081 0.0488,0.04879 0.0813,0.07316 0.0894,0.08942 0.28453,-0.0081 0.35769,0.09755 0.0244,0.04066 0.0163,0.08942 0.0406,0.130065 0.0488,0.08942 0.18697,0.07316 0.25201,0 0.065,-0.07316 0.0732,-0.178839 0.0732,-0.276393 0.008,-0.09755 0.008,-0.203226 0.0732,-0.276393 0.065,-0.08942 0.1951,-0.11381 0.30078,-0.11381 0.065,0 0.1382,0.0081 0.1951,-0.04066 0.0325,-0.04066 0.0325,-0.154459 0.0163,-0.08942 z m -5.24333,-0.617815 c -0.0244,-0.06505 -0.065,-0.11381 -0.11381,-0.154459 -0.12194,-0.0081 -0.23575,0.105678 -0.23575,0.227619 0,0.02439 0.008,0.04066 0.0163,0.05692 0.008,0.0081 0.0244,0.01626 0.0407,0.01626 0.0325,0.0081 0.065,0.01626 0.0975,0.03252 0.0488,0.01626 0.10568,0.03252 0.15445,0.0081 0.0488,-0.01626 0.0894,-0.07317 0.0894,-0.130073 0.008,-0.06505 -0.0163,-0.121934 -0.0488,-0.05692 z m -1.54455,-0.398334 v -0.01626 c -0.0244,0.0081 -0.0163,0.01626 0,0.01626 z m 3.76382,1.642096 c -0.11381,0.01626 -0.21949,-0.06505 -0.31704,-0.130065 -0.23575,-0.146328 -0.53653,-0.178839 -0.80479,-0.11381 -0.24387,0.05692 -0.47149,0.195101 -0.70724,0.252006 -0.19511,0.04879 -0.39833,0.05692 -0.60969,0.06505 -0.1382,0.0081 -0.28452,0.0081 -0.39833,-0.06505 -0.12194,-0.06505 -0.1951,-0.195101 -0.22762,-0.333298 -0.0325,-0.138196 -0.0325,-0.276393 -0.0163,-0.414589 0.008,-0.09755 0.0163,-0.219489 0.10567,-0.276394 0.0407,-0.02439 0.0813,-0.03252 0.12194,-0.04879 0.0732,-0.03252 0.12194,-0.09755 0.12194,-0.178839 -0.008,-0.07317 -0.065,-0.146328 -0.14632,-0.154459 -0.0569,0 -0.11381,0.03252 -0.16259,0 -0.0813,-0.04879 -0.0163,-0.178839 -0.065,-0.268262 -0.14633,-0.03252 -0.29266,-0.04879 -0.43898,-0.04066 -0.0894,0.0081 -0.1951,0.04879 -0.22762,0.04879 0.008,0.251999 0.008,0.495881 0.0163,0.74788 0.008,0.08129 0.0163,0.178846 0.0894,0.211364 0.0325,0.0081 0.065,0.0081 0.0813,0.03252 0.0163,0.01626 0.0163,0.04066 0.0244,0.06505 0.0163,0.195101 -0.0244,0.382071 0.0325,0.560917 0.0488,0.138197 0.14633,0.260131 0.13006,0.41459 -0.008,0.03252 -0.0163,0.07316 0.008,0.09755 0.0163,0.02439 0.0488,0.03252 0.0813,0.03252 0.26013,0.01626 0.52026,0.04066 0.7804,0.04879 0.12194,0.0081 0.24388,0.01626 0.36581,0.0081 0.2195,-0.01626 0.43085,-0.09755 0.65034,-0.130066 0.28452,-0.04879 0.60156,-0.0081 0.86169,-0.138196 0.0813,-0.04066 0.15446,-0.09755 0.24388,-0.130072 0.13007,-0.04066 0.26013,-0.02439 0.39833,-0.04066 0.13007,-0.0081 0.28452,-0.07316 0.31704,-0.203232 -0.0732,-0.05692 -0.20323,0.05692 -0.30891,0.08129 z m 3.48742,-2.333079 c -0.0163,-0.03252 -0.0488,-0.04066 -0.065,-0.06505 -0.065,-0.06505 -0.0406,-0.170714 -0.0325,-0.260137 0.008,-0.08942 -0.0163,-0.203233 -0.10568,-0.219488 -0.0325,-0.0081 -0.065,0.0081 -0.0975,0.0081 -0.0651,-0.0081 -0.12194,-0.07317 -0.13819,-0.138197 -0.0163,-0.06505 -0.008,-0.138196 0.008,-0.211364 0.008,-0.03252 0.0163,-0.06505 0.0406,-0.08129 0.0163,-0.01626 0.0488,-0.02439 0.0732,-0.03253 0.12194,-0.03252 0.20324,-0.170715 0.17072,-0.284524 0.0488,0.02439 0.0244,-0.04879 -0.0244,-0.08942 -0.0406,-0.04066 -0.10567,-0.04879 -0.16258,-0.06505 -0.0407,0.08942 -0.14633,0.130065 -0.24387,0.113803 -0.0407,-0.0081 -0.0894,-0.02439 -0.10568,0.0081 -0.0163,0.01626 -0.008,0.04066 -0.008,0.06505 0.008,0.07316 -0.008,0.154452 -0.0569,0.211357 -0.0488,0.04879 -0.14633,0.07316 -0.20323,0.03252 -0.0407,-0.03252 -0.0651,-0.08129 -0.0976,-0.121941 -0.0732,-0.08942 -0.20323,-0.130066 -0.31704,-0.09755 -0.11381,0.04066 -0.1951,0.146328 -0.20323,0.260131 -0.008,0.105685 0.0407,0.211364 0.008,0.308911 -0.0163,0.04066 -0.0407,0.06505 -0.0569,0.09755 -0.11381,0.170708 -0.11381,0.373941 -0.11381,0.577173 0,0.06505 0.008,0.146321 0.0569,0.178839 0.0407,0.03252 0.0894,0.03252 0.12194,0.05692 0.0406,0.03252 0.0406,0.09755 0.0406,0.146328 0,0.14632 0.008,0.284517 0.0407,0.414589 0.008,0.05692 0.0244,0.113803 0.065,0.154452 0.0406,0.04066 0.11381,0.05692 0.14633,0.01626 0.0488,-0.04879 0.0325,-0.130066 0.0732,-0.178839 0.0244,-0.03252 0.065,-0.03252 0.10567,-0.04879 0.0813,-0.03252 0.1382,-0.105678 0.15446,-0.186977 0.0244,-0.146321 -0.065,-0.317035 0.0407,-0.414582 0.0569,-0.04879 0.15446,-0.04066 0.21949,0.0081 0.065,0.04879 0.0975,0.130072 0.12194,0.203233 0.0244,0.06505 0.0406,0.146327 0.0894,0.195101 0.0976,0.09755 0.2764,0.04879 0.35769,-0.05692 0.0894,-0.105678 0.10568,-0.252006 0.12194,-0.373947 -0.008,-0.06505 -0.008,-0.105678 -0.0244,-0.130065 z m -1.65836,-2.024167 c -0.065,0.01626 -0.13006,0.06505 -0.17883,0.03252 -0.0163,-0.01626 -0.0325,-0.04879 -0.0325,-0.07317 -0.065,-0.235743 -0.13006,-0.479618 -0.1951,-0.715369 0.0163,-0.03252 0.065,-0.0081 0.065,0.02439 0,0.0081 -0.008,0.01626 -0.008,0.01626 0.13819,-0.195101 0.27639,-0.390203 0.42272,-0.585304 0.0406,-0.05692 0.0813,-0.121934 0.065,-0.195102 -0.0244,-0.09755 -0.14632,-0.121934 -0.23575,-0.113809 -0.0975,0.0081 -0.20323,0.02439 -0.28452,-0.03252 -0.065,-0.04879 -0.0894,-0.130072 -0.13006,-0.203233 -0.12195,-0.178846 -0.42273,-0.146328 -0.58531,0.0081 -0.16258,0.146321 -0.23574,0.365809 -0.34142,0.560911 -0.11381,0.211364 -0.26014,0.406458 -0.40647,0.60156 -0.27639,0.34956 -0.55278,0.707245 -0.91859,0.95112 -0.0894,0.05692 -0.18697,0.11381 -0.23575,0.203226 -0.065,0.105685 -0.0488,0.243881 -0.12194,0.341429 -0.0976,0.130065 -0.27639,0.138196 -0.43897,0.146327 -0.15446,0.0081 -0.34143,0.04066 -0.41459,0.195102 -0.0325,0.06505 -0.0163,0.146321 -0.008,0.227612 0.0325,0.292656 0.065,0.60156 0.0975,0.90234 0.008,0.04066 0.0163,0.08129 0.0488,0.09755 0.0406,0.03252 0.0975,-0.0081 0.15445,-0.01626 0.11381,-0.01626 0.1951,0.113809 0.20323,0.227619 0.0163,0.11381 -0.0163,0.22762 0.0163,0.333298 0.008,0.03252 0.0244,0.05692 0.0488,0.07316 0.0244,0.0081 0.0488,0.01626 0.0732,0.01626 0.3333,0.01626 0.6666,0 0.99989,-0.03252 0.0894,-0.0081 0.1951,-0.04066 0.20323,-0.130065 0.008,-0.04066 -0.008,-0.08942 0.0163,-0.11381 0.0163,-0.01626 0.0407,-0.01626 0.065,-0.0081 0.1382,0.0081 0.29265,0.03252 0.36582,0.154459 0.0325,0.04879 0.0488,0.130065 0.11381,0.130065 0.0488,0.0081 0.0894,-0.04879 0.14632,-0.05692 0.0488,0 0.10568,0.04066 0.14633,0.01626 0.0406,-0.02439 0.0325,-0.08129 0.0325,-0.121934 0.008,-0.08942 0.0894,-0.154459 0.17072,-0.195102 0.0813,-0.04066 0.1707,-0.05692 0.25199,-0.105678 0.19511,-0.121941 0.22762,-0.382072 0.20324,-0.609691 -0.0163,-0.105678 -0.0407,-0.211357 -0.0407,-0.325167 0.008,-0.113809 0.0569,-0.227619 0.15445,-0.276393 0.0407,-0.02439 0.0894,-0.03253 0.13007,-0.05692 0.11381,-0.06505 0.15446,-0.211357 0.15446,-0.34143 -0.008,-0.130065 -0.0407,-0.268261 -0.0407,-0.398327 0,-0.01626 0.008,-0.04066 0.0163,-0.04879 0.0163,-0.01626 0.0488,-0.02439 0.0732,-0.02439 0.13007,-0.0081 0.28452,-0.04879 0.34955,-0.178839 0.065,-0.146328 -0.0325,-0.333298 -0.17071,-0.30078 z m 1.16248,-5.65792 c -0.17071,-0.11381 -0.39833,-0.0081 -0.59343,-0.08942 -0.16259,-0.06505 -0.252,-0.252006 -0.26013,-0.422721 -0.008,-0.178839 0.0406,-0.349553 0.0732,-0.528392 0.0325,-0.170715 0.0406,-0.365816 -0.0407,-0.520268 -0.0325,-0.04879 -0.065,-0.09755 -0.12194,-0.121941 -0.0488,-0.01626 -0.0975,-0.01626 -0.15445,-0.01626 -0.17072,0.0081 -0.3333,0.01626 -0.46337,-0.04066 -0.0244,0.333298 0.11381,0.666596 0.0244,0.991763 -0.0488,0.178839 -0.17072,0.357684 -0.11381,0.536523 0.0488,0.154459 0.22762,0.235751 0.3333,0.365816 0.13006,0.154452 0.17071,0.365816 0.21135,0.560918 0.0163,0.09755 0.0488,0.195101 0.12194,0.252006 0.065,0.06505 0.18697,0.08942 0.25201,0.02439 0.0488,-0.04879 0.065,-0.121941 0.0569,-0.195102 0,-0.105678 -0.0163,-0.211364 -0.0488,-0.317042 -0.008,-0.02439 -0.0163,-0.04879 -0.008,-0.07316 0.008,-0.03252 0.0407,-0.04879 0.065,-0.07316 0.11381,-0.07317 0.29265,-0.146328 0.37395,-0.03252 0.0406,0.04879 0.0325,0.121934 0.0732,0.178839 0.0569,0.08942 0.1951,0.08942 0.27639,0.01626 0.0813,-0.06505 0.0976,-0.186977 0.0813,-0.292655 -0.008,-0.06505 -0.0569,-0.146321 -0.13819,-0.203226 z m -1.61771,-3.373622 c 0.0163,-0.382072 -0.0163,-0.780399 -0.15446,-1.138083 -0.0244,-0.05692 -0.0488,-0.121941 -0.0975,-0.162584 -0.0488,-0.04066 -0.12194,-0.05692 -0.17884,-0.02439 -0.0976,0.04879 -0.065,0.211357 -0.13007,0.292649 -0.0325,0.03252 -0.0732,0.04879 -0.0975,0.08129 -0.0976,0.08942 -0.0732,0.243875 -0.0488,0.37394 0.0325,0.178846 0.065,0.349561 0.0975,0.528399 0.0163,0.08129 0.0325,0.178846 0.10568,0.22762 0.0406,0.03252 0.0894,0.04066 0.13819,0.04879 0.0976,0.01626 0.20324,0.0081 0.28453,-0.04879 0.0732,-0.06505 0.0975,-0.154452 0.0975,-0.18697 -0.0163,-0.0081 -0.0163,-0.0081 -0.0163,0.0081 z m 2.11359,11.055709 c -0.0163,-0.03252 -0.0488,-0.04066 -0.065,-0.06505 -0.065,-0.06505 -0.0406,-0.170714 -0.0325,-0.260137 0.008,-0.08942 -0.0163,-0.203233 -0.10568,-0.219488 -0.0325,-0.0081 -0.065,0.0081 -0.0975,0.0081 -0.0651,-0.0081 -0.12194,-0.07317 -0.13819,-0.138197 -0.0163,-0.06505 -0.008,-0.138196 0.008,-0.211364 0.008,-0.03252 0.0163,-0.06505 0.0406,-0.08129 0.0163,-0.01626 0.0488,-0.02439 0.0732,-0.03253 0.12194,-0.03252 0.20324,-0.170715 0.17072,-0.284524 0.0488,0.02439 0.0244,-0.04879 -0.0244,-0.08942 -0.0406,-0.04066 -0.10567,-0.04879 -0.16258,-0.06505 -0.0407,0.08942 -0.14633,0.130065 -0.24387,0.113803 -0.0407,-0.0081 -0.0894,-0.02439 -0.10568,0.0081 -0.0163,0.01626 -0.008,0.04066 -0.008,0.06505 0.008,0.07316 -0.008,0.154452 -0.0569,0.211357 -0.0488,0.04879 -0.14633,0.07316 -0.20323,0.03252 -0.0407,-0.03252 -0.0651,-0.08129 -0.0976,-0.121941 -0.0732,-0.08942 -0.20323,-0.130066 -0.31704,-0.09755 -0.11381,0.04066 -0.1951,0.146328 -0.20323,0.260131 -0.008,0.105685 0.0407,0.211364 0.008,0.308911 -0.0163,0.04066 -0.0407,0.06505 -0.0569,0.09755 -0.11381,0.170708 -0.11381,0.373941 -0.11381,0.577173 0,0.06505 0.008,0.146321 0.0569,0.178839 0.0407,0.03252 0.0894,0.03252 0.12194,0.05692 0.0406,0.03252 0.0406,0.09755 0.0406,0.146328 0,0.14632 0.008,0.284517 0.0407,0.414589 0.008,0.05692 0.0244,0.113803 0.065,0.154452 0.0406,0.04066 0.11381,0.05692 0.14633,0.01626 0.0488,-0.04879 0.0325,-0.130066 0.0732,-0.178839 0.0244,-0.03252 0.065,-0.03252 0.10567,-0.04879 0.0813,-0.03252 0.1382,-0.105678 0.15446,-0.186977 0.0244,-0.146321 -0.065,-0.317035 0.0407,-0.414582 0.0569,-0.04879 0.15446,-0.04066 0.21949,0.0081 0.065,0.04879 0.0975,0.130072 0.12194,0.203233 0.0244,0.06505 0.0406,0.146327 0.0894,0.195101 0.0976,0.09755 0.2764,0.04879 0.35769,-0.05692 0.0894,-0.105678 0.10568,-0.252006 0.12194,-0.373947 -0.008,-0.06505 -0.008,-0.105678 -0.0244,-0.130065 z m -0.49588,-7.682087 c -0.17071,-0.11381 -0.39833,-0.0081 -0.59343,-0.08942 -0.16259,-0.06505 -0.252,-0.252006 -0.26013,-0.422721 -0.008,-0.178839 0.0406,-0.349553 0.0732,-0.528392 0.0325,-0.170715 0.0406,-0.365816 -0.0407,-0.520268 -0.0325,-0.04879 -0.065,-0.09755 -0.12194,-0.121941 -0.0488,-0.01626 -0.0975,-0.01626 -0.15445,-0.01626 -0.17072,0.0081 -0.3333,0.01626 -0.46337,-0.04066 -0.0244,0.333298 0.11381,0.666596 0.0244,0.991763 -0.0488,0.178839 -0.17072,0.357684 -0.11381,0.536523 0.0488,0.154459 0.22762,0.235751 0.3333,0.365816 0.13006,0.154452 0.17071,0.365816 0.21135,0.560918 0.0163,0.09755 0.0488,0.195101 0.12194,0.252006 0.065,0.06505 0.18697,0.08942 0.25201,0.02439 0.0488,-0.04879 0.065,-0.121941 0.0569,-0.195102 0,-0.105678 -0.0163,-0.211364 -0.0488,-0.317042 -0.008,-0.02439 -0.0163,-0.04879 -0.008,-0.07316 0.008,-0.03252 0.0407,-0.04879 0.065,-0.07316 0.11381,-0.07317 0.29265,-0.146328 0.37395,-0.03252 0.0406,0.04879 0.0325,0.121934 0.0732,0.178839 0.0569,0.08942 0.1951,0.08942 0.27639,0.01626 0.0813,-0.06505 0.0976,-0.186977 0.0813,-0.292655 -0.008,-0.06505 -0.0569,-0.146321 -0.13819,-0.203226 z m 0.0325,9.389219 c -0.0407,-0.06505 -0.0732,-0.130065 -0.11381,-0.195101 -0.0894,0.06505 -0.21136,0.09755 -0.31705,0.09755 -0.0406,0 -0.0813,-0.0081 -0.12193,0.0081 -0.0975,0.02439 -0.13006,0.130072 -0.17885,0.211364 -0.065,0.121934 -0.1707,0.227613 -0.30078,0.284517 -0.0406,0.01626 -0.0894,0.03252 -0.13006,0.03252 -0.0488,-0.0081 -0.0894,-0.04879 -0.0975,-0.08942 0,-0.04879 0.0407,-0.08942 0.0813,-0.121935 -0.0488,-0.04879 -0.13007,-0.04879 -0.18697,-0.0081 -0.0488,0.04879 -0.0569,0.121941 -0.11381,0.162584 -0.0244,0.01626 -0.0569,0.03252 -0.0894,0.03252 -0.0732,0.01626 -0.14633,0.03252 -0.21949,0.04066 -0.0894,0.01626 -0.17884,0.04066 -0.22762,0.113803 -0.0406,0.06505 -0.0244,0.170714 0.0407,0.211363 0.065,0.04879 0.16258,0.04066 0.21949,-0.01626 0.0406,-0.04879 0.065,-0.11381 0.11381,-0.146321 0.0406,-0.02439 0.0975,-0.01626 0.13819,-0.04879 0.0407,-0.02439 0.065,-0.08129 0.11381,-0.07316 0.0325,0.0081 0.0488,0.04879 0.0813,0.07316 0.0894,0.08942 0.28452,-0.0081 0.35768,0.09755 0.0244,0.04066 0.0163,0.08942 0.0407,0.130065 0.0488,0.08942 0.18697,0.07316 0.25201,0 0.065,-0.07316 0.0732,-0.178839 0.0732,-0.276393 0.008,-0.09755 0.008,-0.203226 0.0732,-0.276393 0.065,-0.08942 0.1951,-0.11381 0.30078,-0.11381 0.065,0 0.13819,0.0081 0.1951,-0.04066 0.0325,-0.04066 0.0325,-0.154459 0.0163,-0.08942 z m -1.195,-3.731299 c -0.065,0.01626 -0.13006,0.06505 -0.17884,0.03252 -0.0163,-0.01626 -0.0325,-0.04879 -0.0325,-0.07317 -0.065,-0.235743 -0.13007,-0.479618 -0.1951,-0.715369 0.0163,-0.03252 0.065,-0.0081 0.065,0.02439 0,0.0081 -0.008,0.01626 -0.008,0.01626 0.1382,-0.195101 0.2764,-0.390203 0.42273,-0.585304 0.0406,-0.05692 0.0813,-0.121934 0.065,-0.195102 -0.0244,-0.09755 -0.14633,-0.121934 -0.23575,-0.113809 -0.0975,0.0081 -0.20323,0.02439 -0.28452,-0.03252 -0.065,-0.04879 -0.0894,-0.130072 -0.13007,-0.203233 -0.12194,-0.178846 -0.42272,-0.146328 -0.5853,0.0081 -0.16259,0.146321 -0.23575,0.365809 -0.34142,0.560911 -0.11381,0.211364 -0.26014,0.406458 -0.40647,0.60156 -0.27639,0.34956 -0.55278,0.707245 -0.91859,0.95112 -0.0894,0.05692 -0.18698,0.11381 -0.23576,0.203226 -0.065,0.105685 -0.0488,0.243881 -0.12193,0.341429 -0.0975,0.130065 -0.27639,0.138196 -0.43898,0.146327 -0.15446,0.0081 -0.34143,0.04066 -0.41459,0.195102 -0.0325,0.06505 -0.0163,0.146321 -0.008,0.227612 0.0325,0.292656 0.065,0.60156 0.0976,0.90234 0.008,0.04066 0.0163,0.08129 0.0488,0.09755 0.0407,0.03252 0.0975,-0.0081 0.15446,-0.01626 0.11381,-0.01626 0.1951,0.113809 0.20323,0.227619 0.0163,0.11381 -0.0163,0.22762 0.0163,0.333298 0.008,0.03252 0.0244,0.05692 0.0488,0.07316 0.0244,0.0081 0.0488,0.01626 0.0732,0.01626 0.33329,0.01626 0.66659,0 0.99988,-0.03252 0.0894,-0.0081 0.1951,-0.04066 0.20324,-0.130065 0.008,-0.04066 -0.008,-0.08942 0.0163,-0.11381 0.0163,-0.01626 0.0406,-0.01626 0.065,-0.0081 0.13819,0.0081 0.29265,0.03252 0.36581,0.154459 0.0325,0.04879 0.0488,0.130065 0.11381,0.130065 0.0488,0.0081 0.0894,-0.04879 0.14633,-0.05692 0.0488,0 0.10567,0.04066 0.14632,0.01626 0.0407,-0.02439 0.0325,-0.08129 0.0325,-0.121934 0.008,-0.08942 0.0894,-0.154459 0.17071,-0.195102 0.0813,-0.04066 0.17071,-0.05692 0.252,-0.105678 0.1951,-0.121941 0.22762,-0.382072 0.20323,-0.609691 -0.0163,-0.105678 -0.0406,-0.211357 -0.0406,-0.325167 0.008,-0.113809 0.0569,-0.227619 0.15445,-0.276393 0.0407,-0.02439 0.0894,-0.03253 0.13007,-0.05692 0.11381,-0.06505 0.15445,-0.211357 0.15445,-0.34143 -0.008,-0.130065 -0.0406,-0.268261 -0.0406,-0.398327 0,-0.01626 0.008,-0.04066 0.0163,-0.04879 0.0163,-0.01626 0.0488,-0.02439 0.0732,-0.02439 0.13006,-0.0081 0.28452,-0.04879 0.34955,-0.178839 0.065,-0.146328 -0.0325,-0.333298 -0.17071,-0.30078 z m -0.45523,-9.031542 c 0.0163,-0.382072 -0.0163,-0.780399 -0.15446,-1.138083 -0.0244,-0.05692 -0.0488,-0.121941 -0.0975,-0.162584 -0.0488,-0.04066 -0.12194,-0.05692 -0.17884,-0.02439 -0.0975,0.04879 -0.065,0.211357 -0.13007,0.292649 -0.0325,0.03252 -0.0732,0.04879 -0.0975,0.08129 -0.0975,0.08942 -0.0732,0.243875 -0.0488,0.37394 0.0325,0.178846 0.065,0.349561 0.0975,0.528399 0.0163,0.08129 0.0325,0.178846 0.10568,0.22762 0.0407,0.03252 0.0894,0.04066 0.1382,0.04879 0.0975,0.01626 0.20323,0.0081 0.28452,-0.04879 0.0732,-0.06505 0.0975,-0.154452 0.0975,-0.18697 -0.0163,-0.0081 -0.0163,-0.0081 -0.0163,0.0081 z m -1.37383,13.388788 c -0.11381,0.01626 -0.21949,-0.06505 -0.31705,-0.130065 -0.23574,-0.146328 -0.53652,-0.178839 -0.80478,-0.11381 -0.24388,0.05692 -0.4715,0.195101 -0.70725,0.252006 -0.1951,0.04879 -0.39832,0.05692 -0.60968,0.06505 -0.1382,0.0081 -0.28453,0.0081 -0.39834,-0.06505 -0.12194,-0.06505 -0.1951,-0.195101 -0.22762,-0.333298 -0.0325,-0.138196 -0.0325,-0.276393 -0.0163,-0.414589 0.008,-0.09755 0.0163,-0.219489 0.10568,-0.276394 0.0407,-0.02439 0.0813,-0.03252 0.12194,-0.04879 0.0732,-0.03252 0.12194,-0.09755 0.12194,-0.178839 -0.008,-0.07317 -0.065,-0.146328 -0.14633,-0.154459 -0.0569,0 -0.1138,0.03252 -0.16259,0 -0.0813,-0.04879 -0.0163,-0.178839 -0.065,-0.268262 -0.14632,-0.03252 -0.29265,-0.04879 -0.43897,-0.04066 -0.0894,0.0081 -0.1951,0.04879 -0.22762,0.04879 0.008,0.251999 0.008,0.495881 0.0163,0.74788 0.008,0.08129 0.0163,0.178846 0.0894,0.211364 0.0325,0.0081 0.065,0.0081 0.0813,0.03252 0.0163,0.01626 0.0163,0.04066 0.0244,0.06505 0.0163,0.195101 -0.0244,0.382071 0.0325,0.560917 0.0488,0.138197 0.14633,0.260131 0.13007,0.41459 -0.008,0.03252 -0.0163,0.07316 0.008,0.09755 0.0163,0.02439 0.0488,0.03252 0.0813,0.03252 0.26014,0.01626 0.52027,0.04066 0.78041,0.04879 0.12193,0.0081 0.24387,0.01626 0.36581,0.0081 0.21949,-0.01626 0.43085,-0.09755 0.65034,-0.130066 0.28452,-0.04879 0.60156,-0.0081 0.86169,-0.138196 0.0813,-0.04066 0.15446,-0.09755 0.24388,-0.130072 0.13007,-0.04066 0.26013,-0.02439 0.39833,-0.04066 0.13006,-0.0081 0.28452,-0.07316 0.31704,-0.203232 -0.0732,-0.05692 -0.20323,0.05692 -0.30891,0.08129 z m -2.21927,-1.243762 c -0.0244,-0.06505 -0.065,-0.11381 -0.11381,-0.154459 -0.12194,-0.0081 -0.23575,0.105678 -0.23575,0.227619 0,0.02439 0.008,0.04066 0.0163,0.05692 0.008,0.0081 0.0244,0.01626 0.0406,0.01626 0.0325,0.0081 0.065,0.01626 0.0976,0.03252 0.0488,0.01626 0.10568,0.03252 0.15445,0.0081 0.0488,-0.01626 0.0894,-0.07317 0.0894,-0.130073 0.008,-0.06505 -0.0163,-0.121934 -0.0488,-0.05692 z m -1.54452,-0.398334 v -0.01626 c -0.0244,0.0081 -0.0163,0.01626 0,0.01626 z m -3.4793,-0.463363 c -0.0488,0.138196 0.0488,0.30078 0.1951,0.325166 0.12194,0.02439 0.26013,-0.08129 0.30891,-0.05692 -0.10568,-0.162584 -0.30078,-0.276393 -0.50401,-0.268262 z m -1.72339,-2.772055 c -0.0894,-0.11381 -0.1951,-0.219489 -0.22762,-0.357685 -0.008,0.08129 -0.008,0.178839 0.0163,0.243875 0.065,0.170715 0.13007,0.349553 0.20323,0.528399 0.008,0.01626 0.0163,0.04066 0.0406,0.04879 0.0407,0.01626 0.0813,-0.02439 0.0894,-0.06505 0.0406,-0.138197 -0.0325,-0.284518 -0.12195,-0.398327 z m -0.21949,-2.438757 c -0.284522,0.284517 -0.333302,0.682851 -0.211362,1.024273 0.008,0.03252 0.0407,0.06505 0.065,0.04879 0.008,-0.0081 0.008,-0.01626 0.0163,-0.03252 0.1138,-0.325174 -0.0488,-0.731632 0.13006,-1.040536 z m -0.252012,1.316929 c -0.12193,0 -0.0975,0.227612 0.0407,0.284517 -0.008,-0.08942 -0.0244,-0.18697 -0.0407,-0.284517 z m -4.91816,1.211251 c -0.195101,-0.170715 -0.41459,-0.34143 -0.463363,-0.593436 -0.178839,0.276393 -0.276393,0.723501 -0.22762,1.170608 0.01626,0.203226 0.07317,0.414583 0.22762,0.544655 0.178846,0.154453 0.463363,0.146321 0.682851,0.04879 0.06505,-0.03252 0.121941,-0.06505 0.162584,-0.121941 0.06505,-0.07316 0.07317,-0.178839 0.07317,-0.276393 -0.02439,-0.308904 -0.235751,-0.569042 -0.455239,-0.772268 z m -3.780073,-0.422721 c -0.04066,0.308911 0.04879,0.203232 0.08129,0.422721 0.01626,-0.195102 0.04066,-0.146328 0.05692,-0.34143 -0.09755,-0.01626 -0.11381,-0.04879 -0.138196,-0.08129 z m -7.438219,-2.674508 c -0.154452,-0.02439 -0.447101,-0.11381 -0.463363,0.06505 0.03252,0.178839 0.276393,0.292648 0.430852,0.203226 0.162583,-0.105679 0.154452,-0.227613 0.03253,-0.268262 z m -2.511918,10.364726 c -0.01626,-0.09755 -0.146328,-0.138196 -0.252006,-0.04066 -0.11381,0.08942 -0.138197,0.251999 -0.130065,0.390196 0.01626,0.138196 -0.04879,0.317042 0.08942,0.414589 0.113809,0.05692 0.186977,-0.01626 0.276393,-0.01626 0.03252,-0.284524 0.04066,-0.463363 0.01626,-0.747888 z M 111.67415,12.59489 c 0,0 0,0 0,0 -0.0163,-0.04066 -0.0407,-0.07316 -0.065,-0.11381 -0.18697,-0.325166 -0.38208,-0.642202 -0.5853,-0.959244 -0.0244,-0.04066 -0.0488,-0.07316 -0.0732,-0.11381 -0.23574,-0.349553 -0.47962,-0.690982 -0.73162,-1.032405 -0.0407,-0.04879 -0.0732,-0.09755 -0.11381,-0.146327 -0.21136,-0.2763936 -0.43898,-0.5527866 -0.6666,-0.8129172 -0.0325,-0.040656 -0.065,-0.073167 -0.0976,-0.1138098 -0.252,-0.2845243 -0.65846,-0.7316319 -0.92672,-0.9998937 l -0.008,-0.00813 c -0.29265,-0.3007798 -0.60156,-0.5852973 -0.91048,-0.8698216 -0.0488,-0.040656 -0.0975,-0.089423 -0.15445,-0.1300652 -0.26013,-0.2357507 -0.5284,-0.4552389 -0.80479,-0.6747271 -0.0732,-0.056919 -0.14633,-0.1138028 -0.21136,-0.1707077 -0.31704,-0.243875 -0.64221,-0.4796257 -0.96737,-0.7072451 -0.008,-0.00813 -0.0163,-0.00813 -0.0244,-0.016262 -0.35768,-0.2357438 -0.71537,-0.4633632 -1.08118,-0.6828514 -0.0569,-0.032525 -0.11381,-0.06505 -0.17072,-0.097554 -0.3089,-0.178839 -0.62594,-0.3495536 -0.93486,-0.512137 -0.0732,-0.040656 -0.15445,-0.081292 -0.22761,-0.1219409 C 102.17119,3.9372904 101.38266,3.6039925 100.586,3.319475 100.5128,3.295081 100.44781,3.270688 100.37464,3.246308 100.03322,3.1324983 99.691788,3.0268198 99.342228,2.9292726 c -0.0813,-0.024394 -0.16258,-0.048787 -0.252,-0.073167 -0.82918,-0.2276125 -1.66648,-0.3983271 -2.53631,-0.5202681 -0.0894,-0.00813 -0.17072,-0.016262 -0.26013,-0.032525 -0.357689,-0.040656 -0.715373,-0.081292 -1.073058,-0.1138028 -0.08942,-0.00813 -0.18697,-0.016262 -0.284524,-0.016262 -0.438977,-0.032525 -0.877953,-0.048787 -1.325061,-0.048787 -9.34857,0 -17.258283,6.1619322 -19.900273,14.6406813 -0.609684,1.959138 -0.934858,4.04021 -0.934858,6.202581 0,0.71537 0.03253,1.422608 0.105686,2.121715 0.0081,0.01626 0.0081,0.03252 0.0081,0.04879 0.03252,0.333291 0.07317,0.658465 0.121941,0.983632 0.0081,0.04066 0.01626,0.07316 0.01626,0.113809 0.04879,0.30078 0.09755,0.60156 0.162584,0.90234 0.0081,0.05692 0.02439,0.11381 0.04066,0.170715 0.05692,0.276393 0.121934,0.552786 0.195101,0.821048 0.01626,0.08942 0.04066,0.170714 0.06505,0.252006 0.06505,0.243875 0.130072,0.48775 0.203233,0.723494 0.03253,0.113809 0.07316,0.219488 0.113809,0.333298 0.06505,0.203232 0.130066,0.414589 0.211357,0.625946 0.04879,0.146328 0.11381,0.284524 0.170715,0.422721 0.04879,0.146328 0.105679,0.292649 0.170715,0.438976 0.08129,0.203233 0.170714,0.398334 0.26013,0.60156 0.365816,0.05692 0.739756,0.130065 1.113704,0.211357 -0.560918,-1.138083 -1.01615,-2.341203 -1.357579,-3.601234 0.365816,0.479626 0.577173,0.674727 0.869829,1.105572 0.146321,0.211364 0.463363,0.731632 0.625946,0.926733 0.341422,0.398328 0.430845,0.772268 0.886084,1.040537 0.227613,0.170707 0.926727,0.243875 1.194989,0.325166 0.438976,0.11381 0.747887,0.154452 1.251893,0.292649 -0.13819,-0.162583 -0.268262,-0.333298 -0.373941,-0.512137 -0.113809,-0.18697 -0.105678,-0.138196 -0.18697,-0.341429 -0.06505,-0.178839 0.235744,-0.284517 0.317036,-0.365809 0.227619,-0.252006 0.406465,0.06505 0.617822,-0.138197 0.317035,-0.30078 -0.11381,-1.13809 -0.178846,-1.528293 -0.113803,-0.67472 -0.552779,-0.853566 -0.60156,-1.268155 -0.146321,-1.227507 -0.382071,-0.707239 -0.333298,-1.31693 0.06505,-0.569041 0.04879,-0.690982 1.17874,-1.699 0.406458,-0.357685 0.829172,-0.333298 1.471381,-1.032405 0.756012,-0.975507 1.308798,-1.772168 1.455126,-3.040324 -0.886084,0.06505 -1.601453,0.04066 -2.479406,-0.08129 -0.06505,-0.211357 -0.357685,-0.463363 -0.211357,-0.877953 0.154452,0.01626 0.292648,0.09755 0.585304,0.07317 0.08942,-0.0081 0.162583,-0.138197 0.260131,-0.146328 0.138196,-0.01626 0.130065,0.105679 0.414589,0.08129 0.06505,-0.0081 0.203233,-0.07316 0.260138,-0.08129 0.121934,-0.02439 0.219488,0.06505 0.349553,0.03252 0.138197,-0.03252 0.121934,-0.170715 0.268262,-0.211364 0.317042,-0.08129 0.617822,-0.0081 0.959244,-0.11381 0.138197,-0.04066 0.07317,-0.26013 0.211364,-0.308904 0.113803,-0.04066 0.235744,-0.09755 0.357685,-0.09755 0.170708,0 0.260131,0.08942 0.447101,0.08129 0.170714,-0.0081 0.292655,-0.284518 0.447107,-0.341423 0.130066,-0.04879 0.284525,0.04879 0.373941,-0.06505 0.04066,-0.04879 -0.01626,-0.162584 0.11381,-0.243875 0.113809,-0.07316 0.252006,0.04066 0.414589,-0.04066 0.07317,-0.03253 -0.01626,-0.317035 0.06505,-0.357684 0.276393,-0.146321 0.463363,-0.48775 0.544655,-0.585298 0.235744,-0.276393 0.414589,-0.390202 0.341429,-0.528399 -0.04066,-0.07316 -0.178846,-0.203233 -0.211364,-0.284524 -0.219488,-0.471495 -0.292648,-0.341423 -0.552786,-0.536524 -0.105678,-0.08129 -0.195101,-0.138196 -0.243875,-0.227619 -0.03252,-0.06505 -0.03252,-0.146329 -0.03252,-0.211358 0.0081,-0.11381 -0.04879,-0.178846 -0.04066,-0.235751 0.03252,-0.227612 0.178839,-0.430845 0.04879,-0.495881 -0.154452,-0.01626 -0.37394,0.373947 -0.682851,0.536531 -0.317036,0.170714 -0.723501,0.130065 -1.064923,0.03252 -0.170715,-0.30078 0.243875,-0.829179 0,-0.918602 -0.162583,-0.05692 -0.203233,0.219488 -0.325167,0.113809 -0.02439,-0.01626 0.03253,-0.211357 0.01626,-0.406458 -0.01626,-0.138197 -0.243875,-0.60156 -0.268262,-0.780406 -0.04879,-0.365809 -0.130072,-0.536523 0.0081,-0.642202 0.16259,-0.130072 0.46337,-0.03252 0.487757,0.113803 0.01626,0.105685 0.105679,0.495881 0.146321,0.894215 0.01626,0.138197 0.195101,0.09755 0.422721,0.325167 0.113809,0.11381 0.268262,0.609691 0.918602,0.658465 0.235744,0.01626 0.357685,-0.235744 0.512137,-0.02439 0.08129,0.11381 -0.09755,0.37394 0.113809,0.536523 0.447108,0.268269 0.406459,0.146328 1.064923,0.430853 0.130066,0.05692 0.674721,0.170715 0.886084,0.170715 0.41459,-0.0081 0.666596,0.105678 1.081179,0.09755 0.06505,0 0.211364,0.0081 0.268269,0.04066 0.08129,0.04066 0.07316,0.170708 0.162583,0.260131 0.130065,0.170714 0.01626,0.325166 0.18697,0.430845 0.276393,0.170715 0.430845,0.317042 0.60156,0.560917 0.05692,0.07316 -0.130065,0.08129 -0.08129,0.162584 0.04879,0.08129 0.154452,0.325166 0.276393,0.438976 0.08942,0.09755 0.170715,0.252006 0.276393,0.333298 0.235744,0.18697 0.5284,0.01626 0.804793,-0.130065 0.04066,-0.01626 0.08129,-0.04066 0.08129,0.04879 -0.01626,0.764143 0.105678,1.211251 0.162583,1.552673 0.09755,0.634078 0.09755,0.76415 0.528399,1.471388 0.170708,0.512137 0.162584,0.821048 0.495875,1.284412 0.260137,0.463363 0.317042,0.926726 0.447107,1.113703 0.07317,0.09755 0.325167,0.422714 0.438977,0.422714 0.211363,0 0.30078,-0.178839 0.438976,-0.357685 0.08942,-0.121934 0.105679,-0.03252 0.203233,-0.113809 0.154452,-0.138197 0.0081,-0.455232 0.414589,-0.504006 0.162584,-0.203233 -0.06505,-0.447108 0.0081,-0.642209 0.308905,-0.268262 0.170708,-1.154346 0.09755,-1.5039 0.0081,-0.08129 0.130065,-0.227619 0.333298,-0.219488 0.07316,0 0.195101,-0.23575 0.390202,-0.276393 0.121935,-0.11381 0.154453,-0.0081 0.284518,-0.11381 0.07317,-0.08129 -0.05692,-0.178838 0.138196,-0.308911 0.406459,-0.203225 0.886079,-0.926726 1.446999,-1.243762 0.0975,-0.05692 0.24388,-0.146327 0.26013,-0.260137 -0.0163,-0.658465 0.64221,-0.390203 0.9186,-0.48775 0.43898,-0.162583 0.65034,-0.11381 0.70724,-0.292656 0.0244,-0.07316 0.0325,-0.162583 0.10568,-0.178839 0.0894,-0.03252 0.15446,0.170715 0.18697,0.260131 0.0325,0.08129 0.1382,0.357685 0.15446,0.447108 0.0813,0.357684 0.5853,0.211357 0.772272,0.764143 0.11381,0.341429 0.57718,0.243882 0.26827,1.113703 -0.0813,0.22762 0.21135,0.349554 0.42271,0.373941 0.22762,0.02439 0.41459,-0.138197 0.56092,-0.308911 0.13006,-0.146321 0.26826,-0.30078 0.41459,-0.130066 0.0894,0.09755 0.16258,0.30078 0.16258,0.422721 0.008,0.341422 0.26014,0.495881 0.36582,0.804792 0.065,0.186971 -0.0163,0.341423 0.0325,0.455232 0.23574,0.284525 0.0813,0.617823 0.14632,0.910471 0.0407,0.08942 -0.0325,0.195102 -0.0325,0.30078 0.008,0.260131 -0.0569,0.479619 0.34143,0.658465 0.35768,0.414589 0.60969,0.48775 0.65846,1.121828 0.0488,0.105678 0.0732,0.317042 0.23575,0.528399 0.0732,0.08942 0.13007,0.121934 0.17884,0.260131 0.0488,0.09755 0.0894,0.154459 0.0244,0.178845 -0.11381,0.04066 -0.35769,-0.121941 -0.4715,-0.235743 -0.26826,-0.268269 -0.78853,-0.211364 -0.88608,-0.577173 -0.0244,-0.0813 -0.15446,-0.01626 -0.1951,-0.130073 -0.0163,-0.04066 -0.17885,-0.01626 -0.21949,-0.01626 -0.26013,0.0081 -0.44711,-0.04066 -0.71537,-0.03252 -0.10568,0 -0.24388,-0.01626 -0.23575,0.08129 0.0325,0.243875 0.0976,0.284524 0.1951,0.414589 0.13007,0.170715 0.35769,0.170715 0.56092,0.235744 0.30891,0.105685 0.28452,0.406465 0.6422,0.577173 0.23575,0.11381 0.26827,0.252006 0.34956,0.609691 0.008,0.04066 0.065,0.06505 0.10568,0.08942 0.0488,0.03252 0.26826,-0.146328 0.31704,-0.18697 0.5284,-0.357685 1.07305,-0.560918 1.62584,-0.869829 0.0325,-0.01626 0.0732,-0.03253 0.10568,-0.02439 0.0325,0.0081 0.0488,0.04066 0.065,0.07317 0.065,0.11381 0.0406,0.138196 0.10568,0.251999 0.17884,-0.105678 0.12194,-0.203225 -0.0163,-0.349553 -0.0488,-0.05692 -0.1951,-0.178839 -0.24388,-0.235744 -0.21949,-0.235751 -0.0163,-0.512144 -0.13006,-0.812924 -0.0894,-0.235743 -0.39833,-0.430845 -0.62595,-0.544654 -0.64221,-0.22762 -0.62595,-0.325167 -0.76414,-0.682852 -0.31705,-0.634078 -0.43086,-0.349553 -0.57718,-0.569042 -0.0488,-0.07317 -0.008,-0.243875 -0.008,-0.333298 0,-0.08129 0.1382,-0.300779 0.16258,-0.373947 0.0976,-0.243875 0.0894,-0.398327 0.0976,-0.658464 0.008,-0.09755 0,-0.178839 0.065,-0.252 0.065,-0.07317 0.0894,-0.06505 0.14633,0.01626 0.0325,0.04066 0.0813,0.162583 0.0975,0.203232 0.0325,0.154452 0.39834,-0.08129 0.4715,0.178839 0.0975,0.02439 0.26826,-0.02439 0.35768,0.02439 0.17885,0.430852 0.43898,0.593435 0.8048,0.593435 0.13006,0 0.16258,0.121934 0.16258,0.268262 0,0.08942 0.008,0.203226 0,0.268262 -0.0163,0.178846 0.0975,0.211357 0.17072,0.18697 0.26013,-0.308904 0.3902,-0.365809 0.52026,-0.552786 0.2764,-0.593428 0.63408,-0.528392 0.92673,-0.934858 0.11381,-0.14632 0.17071,-0.422714 0.17071,-0.609684 0,-0.203232 -0.0894,-0.53653 -0.15445,-0.7235 -0.252,-0.747888 -0.82105,-0.894216 -1.32506,-1.406353 -0.16258,-0.121934 -0.39833,-0.308911 -0.40646,-0.552786 -0.008,-0.365809 0.27639,-0.455232 0.47962,-0.764143 0.12194,-0.195101 0.26014,-0.398327 0.4715,-0.479625 0.21135,-0.08129 0.46336,0.186977 0.46336,0.414589 0.008,0.170715 -0.0569,0.178846 -0.17884,0.292656 -0.1951,0.162583 -0.25201,0.349553 -0.17071,0.544655 0.0813,0.203232 0.26013,0.227619 0.45523,0.154452 0.10568,-0.04066 0.29265,-0.162584 0.35768,-0.260131 0.12194,-0.154459 0.0244,-0.333298 0.1382,-0.479626 0.14633,-0.195101 -0.22762,-0.26013 -0.27639,-0.479618 -0.0488,-0.22762 0.33329,-0.41459 0.53653,-0.520269 0.41459,-0.227619 0.60969,-0.560917 1.02427,-0.780406 0.0894,-0.04879 0.34956,-0.357684 0.51214,-0.544655 0.23575,-0.276393 0.40646,-0.447107 0.56905,-0.910471 0.0975,-0.260137 0.14632,-0.764143 0.18697,-1.040536 0.0894,-0.53653 0.10567,-0.845434 0.18697,-1.381965 0.0244,0.01626 0.17071,0.284524 0.20323,0.308911 1.12183,1.658352 2.00791,3.284192 2.58508,5.251462 l -0.1951,-0.07317 c 0.0325,0.105685 0.15446,0.211364 0.28453,0.373947 0.10568,0.37394 0.1951,0.747888 0.27639,1.121828 -0.008,0.01626 -0.0163,0.03252 -0.0325,0.04066 -0.0976,0.04879 -0.22762,-0.01626 -0.30892,0.05692 -0.0488,0.04066 -0.0488,0.113809 -0.0488,0.178845 0.0163,0.252007 0.14632,0.495882 0.11381,0.739757 -0.008,0.05692 -0.0325,0.121941 -0.0894,0.138196 -0.065,0.01626 -0.12194,-0.04066 -0.14632,-0.09755 -0.0163,-0.05692 -0.0163,-0.121941 -0.0407,-0.178846 -0.0407,-0.121941 -0.16258,-0.195101 -0.28452,-0.203232 -0.12194,-0.0081 -0.25201,0.04066 -0.35769,0.105685 -0.0488,0.03253 -0.0975,0.07316 -0.11381,0.130065 -0.0488,0.146328 0.12194,0.260131 0.22762,0.382072 0.0894,0.105678 0.13007,0.252006 0.11381,0.390203 -0.008,0.03252 -0.008,0.07316 0.008,0.09755 0.008,0.01626 0.0325,0.03252 0.0488,0.03252 0.17071,0.06505 0.36581,-0.01626 0.47962,-0.154452 0.12194,-0.130073 0.17884,-0.308911 0.24388,-0.479626 0.0651,-0.170715 0.13006,-0.341422 0.26013,-0.463363 0.0163,-0.01626 0.0325,-0.02439 0.0488,-0.03252 0,0 0.008,0.0081 0.008,0.0081 0.0163,0.08129 0.0325,0.162583 0.0406,0.243875 -0.0244,0.178839 -0.0406,0.357685 -0.065,0.528399 -0.008,0.08942 -0.0244,0.186971 -0.0894,0.252007 -0.065,0.07316 -0.17071,0.09755 -0.26013,0.121934 -0.16258,0.04879 -0.32517,0.113809 -0.47149,0.195101 -0.065,0.03252 -0.13008,0.07316 -0.17072,0.130065 -0.0325,0.04879 -0.0406,0.105679 -0.0488,0.162584 -0.0163,0.121941 -0.0244,0.243882 -0.0163,0.365816 0.008,0.113809 0.0407,0.252006 0.15446,0.260137 0.0894,0.0081 0.14632,-0.08942 0.17071,-0.170714 0.0163,-0.08129 0.008,-0.170715 0.0488,-0.252007 0.0325,-0.04879 0.0732,-0.09755 0.12193,-0.130065 0.0325,-0.03253 0.065,-0.04879 0.0975,-0.05692 0.0894,-0.0081 0.14633,0.105679 0.1382,0.195102 -0.008,0.08942 -0.0406,0.18697 -0.008,0.268262 0.0488,0.105678 0.18697,0.130065 0.30078,0.130065 0.11381,-0.0081 0.21136,-0.0081 0.31704,0.03252 0.0163,0.235744 0.0244,0.471494 0.0325,0.715369 -0.0163,0.308911 -0.0569,0.609691 -0.0975,0.877953 -0.0488,0.04066 -0.17071,0.373941 -0.46336,0.422721 -0.51215,0.08129 -0.82918,-0.0081 -1.0568,0.41459 -0.008,0.01626 -0.0325,0.03252 -0.0407,0.04066 -0.0244,0.06505 0.0488,0.11381 0.11381,0.121941 0.12194,0.03253 0.26013,0.03253 0.38207,0.0081 0.37394,-0.07316 0.77228,-0.243875 1.15435,-0.341422 -0.1382,2.78831 -0.84544,5.4303 -2.01604,7.804028 0.37394,-0.07316 0.73975,-0.146328 1.11369,-0.211357 1.17874,-2.609479 1.84533,-5.511599 1.84533,-8.568178 0.0569,-3.788205 -0.95924,-7.332535 -2.71515,-10.380983 z m -31.939622,6.576522 c -0.528399,-0.983631 -0.918595,-2.048561 -1.146214,-3.146002 -0.03253,-0.154452 -0.06505,-0.317036 -0.06505,-0.479619 0.0081,-0.471495 0.292655,-0.967376 0.07317,-1.390097 -0.05692,-0.113809 -0.154459,-0.219488 -0.162583,-0.349553 -0.0081,-0.138197 0.08942,-0.260138 0.138196,-0.382072 0.113803,-0.260137 0.04066,-0.560917 0.01626,-0.845435 -0.02439,-0.284524 0.03253,-0.617822 0.276393,-0.756018 0.09755,0.07316 0.146328,0.211357 0.08942,0.178845 0.162583,0.552787 0.235744,1.138084 0.211357,1.715257 -0.0081,0.09755 -0.0081,0.203232 0.04066,0.284524 0.03253,0.05692 0.09755,0.09755 0.130072,0.154452 0.09755,0.146328 0.02439,0.333298 -0.01626,0.504013 -0.11381,0.463363 0.04879,0.934857 0.170714,1.39009 0.219488,0.812923 0.333298,1.650227 0.438977,2.479406 0.04066,0.243875 0.03252,0.552786 -0.195102,0.642209 z m 0.243875,-9.6087144 c -0.09755,0.089423 -0.211357,0.2601375 -0.308904,0.3576848 -0.08129,0.089423 -0.146328,0.2032326 -0.243875,0.2845246 -0.09755,0.08129 -0.260137,0.162583 -0.357685,0.08129 -0.06505,-0.05692 -0.105685,-0.08129 -0.178845,-0.130066 -0.04066,-0.03252 -0.04879,-0.130072 -0.08942,-0.154459 -0.06505,-0.048787 -0.09755,-0.06505 -0.07316,-0.1463205 0,-0.016262 0.07316,-0.121941 0.08129,-0.1381966 0.235744,-0.2601374 0.479626,-0.4796256 0.723501,-0.7316319 0.08129,-0.048787 0.113809,-0.1544521 0.203225,-0.1707077 0.08129,-0.016263 0.178846,-0.032525 0.211364,-0.1138097 0.02439,-0.048787 0.0081,-0.1138097 0.0081,-0.1707146 0,-0.032525 0.0081,-0.06505 0.02439,-0.097554 0.06505,-0.056919 0.121941,-0.1219341 0.178846,-0.178839 0.04879,-0.016262 0.09755,-0.024394 0.146328,-0.00813 0.146321,0.032525 0.243875,0.1788458 0.26013,0.1951014 0.11381,0.056919 -0.243875,0.8047924 -0.585304,1.1218278 z M 112.86101,26.056838 c -0.0163,-0.03252 -0.0488,-0.04066 -0.065,-0.06505 -0.065,-0.06505 -0.0407,-0.170714 -0.0325,-0.260137 0.008,-0.08942 -0.0163,-0.203233 -0.10567,-0.219488 -0.0325,-0.0081 -0.065,0.0081 -0.0975,0.0081 -0.065,-0.0081 -0.12194,-0.07317 -0.1382,-0.138197 -0.0163,-0.06505 -0.008,-0.138196 0.008,-0.211364 0.008,-0.03252 0.0163,-0.06505 0.0407,-0.08129 0.0163,-0.01626 0.0488,-0.02439 0.0732,-0.03253 0.12194,-0.03252 0.20323,-0.170715 0.17072,-0.284524 0.0488,0.02439 0.0244,-0.04879 -0.0244,-0.08942 -0.0406,-0.04066 -0.10568,-0.04879 -0.16258,-0.06505 -0.0407,0.08942 -0.14633,0.130065 -0.24388,0.113803 -0.0406,-0.0081 -0.0894,-0.02439 -0.10568,0.0081 -0.0163,0.01626 -0.008,0.04066 -0.008,0.06505 0.008,0.07316 -0.008,0.154452 -0.0569,0.211357 -0.0488,0.04879 -0.14632,0.07316 -0.20322,0.03252 -0.0407,-0.03252 -0.065,-0.08129 -0.0976,-0.121941 -0.0732,-0.08942 -0.20323,-0.130066 -0.31703,-0.09755 -0.11381,0.04066 -0.1951,0.146328 -0.20323,0.260131 -0.008,0.105685 0.0406,0.211364 0.008,0.308911 -0.0163,0.04066 -0.0407,0.06505 -0.0569,0.09755 -0.11381,0.170708 -0.11381,0.373941 -0.11381,0.577173 0,0.06505 0.008,0.146321 0.0569,0.178839 0.0406,0.03252 0.0894,0.03252 0.12193,0.05692 0.0407,0.03252 0.0407,0.09755 0.0407,0.146328 0,0.14632 0.008,0.284517 0.0406,0.414589 0.008,0.05692 0.0244,0.113803 0.065,0.154452 0.0407,0.04066 0.11381,0.05692 0.14633,0.01626 0.0488,-0.04879 0.0325,-0.130066 0.0732,-0.178839 0.0244,-0.03252 0.065,-0.03252 0.10568,-0.04879 0.0813,-0.03252 0.1382,-0.105678 0.15446,-0.186977 0.0244,-0.146321 -0.065,-0.317035 0.0407,-0.414582 0.0569,-0.04879 0.15446,-0.04066 0.21948,0.0081 0.065,0.04879 0.0976,0.130072 0.12195,0.203233 0.0244,0.06505 0.0407,0.146327 0.0894,0.195101 0.0976,0.09755 0.27639,0.04879 0.35769,-0.05692 0.0894,-0.105678 0.10568,-0.252006 0.12194,-0.373947 -0.008,-0.06505 -0.008,-0.105678 -0.0244,-0.130065 z m -0.49588,-7.682087 c -0.17072,-0.11381 -0.39834,-0.0081 -0.59343,-0.08942 -0.16259,-0.06505 -0.25201,-0.252006 -0.26014,-0.422721 -0.008,-0.178839 0.0407,-0.349553 0.0732,-0.528392 0.0325,-0.170715 0.0407,-0.365816 -0.0406,-0.520268 -0.0325,-0.04879 -0.065,-0.09755 -0.12194,-0.121941 -0.0488,-0.01626 -0.0975,-0.01626 -0.15446,-0.01626 -0.17071,0.0081 -0.33329,0.01626 -0.46336,-0.04066 -0.0244,0.333298 0.11381,0.666596 0.0244,0.991763 -0.0488,0.178839 -0.17071,0.357684 -0.11381,0.536523 0.0488,0.154459 0.22762,0.235751 0.3333,0.365816 0.13007,0.154452 0.17072,0.365816 0.21136,0.560918 0.0163,0.09755 0.0488,0.195101 0.12194,0.252006 0.065,0.06505 0.18697,0.08942 0.25201,0.02439 0.0488,-0.04879 0.065,-0.121941 0.0569,-0.195102 0,-0.105678 -0.0163,-0.211364 -0.0488,-0.317042 -0.008,-0.02439 -0.0163,-0.04879 -0.008,-0.07316 0.008,-0.03252 0.0406,-0.04879 0.065,-0.07316 0.11381,-0.07317 0.29265,-0.146328 0.37394,-0.03252 0.0407,0.04879 0.0325,0.121934 0.0732,0.178839 0.0569,0.08942 0.19511,0.08942 0.2764,0.01626 0.0813,-0.06505 0.0975,-0.186977 0.0813,-0.292655 -0.008,-0.06505 -0.0569,-0.146321 -0.1382,-0.203226 z m 0.0325,9.389219 c -0.0406,-0.06505 -0.0732,-0.130065 -0.11381,-0.195101 -0.0894,0.06505 -0.21135,0.09755 -0.31704,0.09755 -0.0406,0 -0.0813,-0.0081 -0.12193,0.0081 -0.0976,0.02439 -0.13007,0.130072 -0.17885,0.211364 -0.065,0.121934 -0.17071,0.227613 -0.30078,0.284517 -0.0406,0.01626 -0.0894,0.03252 -0.13006,0.03252 -0.0488,-0.0081 -0.0894,-0.04879 -0.0975,-0.08942 0,-0.04879 0.0407,-0.08942 0.0813,-0.121935 -0.0488,-0.04879 -0.13007,-0.04879 -0.18698,-0.0081 -0.0488,0.04879 -0.0569,0.121941 -0.1138,0.162584 -0.0244,0.01626 -0.0569,0.03252 -0.0894,0.03252 -0.0732,0.01626 -0.14633,0.03252 -0.21949,0.04066 -0.0894,0.01626 -0.17885,0.04066 -0.22762,0.113803 -0.0407,0.06505 -0.0244,0.170714 0.0407,0.211363 0.065,0.04879 0.16258,0.04066 0.21948,-0.01626 0.0407,-0.04879 0.065,-0.11381 0.11381,-0.146321 0.0407,-0.02439 0.0975,-0.01626 0.1382,-0.04879 0.0407,-0.02439 0.065,-0.08129 0.1138,-0.07316 0.0325,0.0081 0.0488,0.04879 0.0813,0.07316 0.0894,0.08942 0.28452,-0.0081 0.35768,0.09755 0.0244,0.04066 0.0163,0.08942 0.0407,0.130065 0.0488,0.08942 0.18697,0.07316 0.252,0 0.065,-0.07316 0.0732,-0.178839 0.0732,-0.276393 0.008,-0.09755 0.008,-0.203226 0.0732,-0.276393 0.065,-0.08942 0.1951,-0.11381 0.30078,-0.11381 0.065,0 0.1382,0.0081 0.1951,-0.04066 0.0325,-0.04066 0.0325,-0.154459 0.0163,-0.08942 z m -1.19499,-3.731299 c -0.0651,0.01626 -0.13007,0.06505 -0.17884,0.03252 -0.0163,-0.01626 -0.0325,-0.04879 -0.0325,-0.07317 -0.065,-0.235743 -0.13006,-0.479618 -0.1951,-0.715369 0.0163,-0.03252 0.065,-0.0081 0.065,0.02439 0,0.0081 -0.008,0.01626 -0.008,0.01626 0.1382,-0.195101 0.27639,-0.390203 0.42272,-0.585304 0.0407,-0.05692 0.0813,-0.121934 0.065,-0.195102 -0.0244,-0.09755 -0.14632,-0.121934 -0.23574,-0.113809 -0.0976,0.0081 -0.20323,0.02439 -0.28453,-0.03252 -0.065,-0.04879 -0.0894,-0.130072 -0.13006,-0.203233 -0.12194,-0.178846 -0.42272,-0.146328 -0.58531,0.0081 -0.16258,0.146321 -0.23574,0.365809 -0.34142,0.560911 -0.11381,0.211364 -0.26014,0.406458 -0.40646,0.60156 -0.2764,0.34956 -0.55278,0.707245 -0.9186,0.95112 -0.0894,0.05692 -0.18697,0.11381 -0.23575,0.203226 -0.065,0.105685 -0.0488,0.243881 -0.12193,0.341429 -0.0976,0.130065 -0.2764,0.138196 -0.43898,0.146327 -0.15446,0.0081 -0.34143,0.04066 -0.41459,0.195102 -0.0325,0.06505 -0.0163,0.146321 -0.008,0.227612 0.0325,0.292656 0.065,0.60156 0.0975,0.90234 0.008,0.04066 0.0163,0.08129 0.0488,0.09755 0.0407,0.03252 0.0976,-0.0081 0.15445,-0.01626 0.11381,-0.01626 0.19511,0.113809 0.20324,0.227619 0.0163,0.11381 -0.0163,0.22762 0.0163,0.333298 0.008,0.03252 0.0244,0.05692 0.0488,0.07316 0.0244,0.0081 0.0488,0.01626 0.0732,0.01626 0.3333,0.01626 0.6666,0 0.99989,-0.03252 0.0894,-0.0081 0.1951,-0.04066 0.20323,-0.130065 0.008,-0.04066 -0.008,-0.08942 0.0163,-0.11381 0.0163,-0.01626 0.0406,-0.01626 0.065,-0.0081 0.13819,0.0081 0.29264,0.03252 0.36581,0.154459 0.0325,0.04879 0.0488,0.130065 0.11381,0.130065 0.0488,0.0081 0.0894,-0.04879 0.14632,-0.05692 0.0488,0 0.10568,0.04066 0.14633,0.01626 0.0407,-0.02439 0.0325,-0.08129 0.0325,-0.121934 0.008,-0.08942 0.0894,-0.154459 0.17072,-0.195102 0.0813,-0.04066 0.17071,-0.05692 0.252,-0.105678 0.1951,-0.121941 0.22762,-0.382072 0.20323,-0.609691 -0.0163,-0.105678 -0.0406,-0.211357 -0.0406,-0.325167 0.008,-0.113809 0.0569,-0.227619 0.15445,-0.276393 0.0406,-0.02439 0.0894,-0.03253 0.13006,-0.05692 0.11381,-0.06505 0.15446,-0.211357 0.15446,-0.34143 -0.008,-0.130065 -0.0406,-0.268261 -0.0406,-0.398327 0,-0.01626 0.008,-0.04066 0.0163,-0.04879 0.0163,-0.01626 0.0488,-0.02439 0.0732,-0.02439 0.13006,-0.0081 0.28451,-0.04879 0.34955,-0.178839 0.065,-0.146328 -0.0325,-0.333298 -0.17072,-0.30078 z m -0.45523,-9.031542 c 0.0163,-0.382072 -0.0163,-0.780399 -0.15446,-1.138083 -0.0244,-0.05692 -0.0488,-0.121941 -0.0976,-0.162584 -0.0488,-0.04066 -0.12194,-0.05692 -0.17884,-0.02439 -0.0975,0.04879 -0.065,0.211357 -0.13007,0.292649 -0.0325,0.03252 -0.0732,0.04879 -0.0975,0.08129 -0.0975,0.08942 -0.0732,0.243875 -0.0488,0.37394 0.0325,0.178846 0.065,0.349561 0.0975,0.528399 0.0163,0.08129 0.0325,0.178846 0.10568,0.22762 0.0407,0.03252 0.0894,0.04066 0.1382,0.04879 0.0975,0.01626 0.20323,0.0081 0.28452,-0.04879 0.0732,-0.06505 0.0975,-0.154452 0.0975,-0.18697 -0.0163,-0.0081 -0.0163,-0.0081 -0.0163,0.0081 z m -1.37384,13.388788 c -0.11381,0.01626 -0.21949,-0.06505 -0.31704,-0.130065 -0.23574,-0.146328 -0.53652,-0.178839 -0.80479,-0.11381 -0.24387,0.05692 -0.47149,0.195101 -0.70724,0.252006 -0.1951,0.04879 -0.39833,0.05692 -0.60968,0.06505 -0.1382,0.0081 -0.28453,0.0081 -0.39834,-0.06505 -0.12194,-0.06505 -0.1951,-0.195101 -0.22762,-0.333298 -0.0325,-0.138196 -0.0325,-0.276393 -0.0163,-0.414589 0.008,-0.09755 0.0163,-0.219489 0.10568,-0.276394 0.0406,-0.02439 0.0813,-0.03252 0.12194,-0.04879 0.0732,-0.03252 0.12193,-0.09755 0.12193,-0.178839 -0.008,-0.07317 -0.065,-0.146328 -0.14632,-0.154459 -0.0569,0 -0.11381,0.03252 -0.16259,0 -0.0813,-0.04879 -0.0163,-0.178839 -0.065,-0.268262 -0.14633,-0.03252 -0.29265,-0.04879 -0.43897,-0.04066 -0.0894,0.0081 -0.19511,0.04879 -0.22762,0.04879 0.008,0.251999 0.008,0.495881 0.0163,0.74788 0.008,0.08129 0.0163,0.178846 0.0894,0.211364 0.0325,0.0081 0.065,0.0081 0.0813,0.03252 0.0163,0.01626 0.0163,0.04066 0.0244,0.06505 0.0163,0.195101 -0.0244,0.382071 0.0325,0.560917 0.0488,0.138197 0.14633,0.260131 0.13007,0.41459 -0.008,0.03252 -0.0163,0.07316 0.008,0.09755 0.0163,0.02439 0.0488,0.03252 0.0813,0.03252 0.26014,0.01626 0.52027,0.04066 0.78041,0.04879 0.12193,0.0081 0.24387,0.01626 0.3658,0.0081 0.2195,-0.01626 0.43086,-0.09755 0.65034,-0.130066 0.28452,-0.04879 0.60156,-0.0081 0.86169,-0.138196 0.0813,-0.04066 0.15446,-0.09755 0.24389,-0.130072 0.13006,-0.04066 0.26013,-0.02439 0.39832,-0.04066 0.13007,-0.0081 0.28453,-0.07316 0.31705,-0.203232 -0.0732,-0.05692 -0.20324,0.05692 -0.30891,0.08129 z m -2.21927,-1.243762 c -0.0244,-0.06505 -0.065,-0.11381 -0.11381,-0.154459 -0.12194,-0.0081 -0.23575,0.105678 -0.23575,0.227619 0,0.02439 0.008,0.04066 0.0163,0.05692 0.008,0.0081 0.0244,0.01626 0.0406,0.01626 0.0325,0.0081 0.065,0.01626 0.0976,0.03252 0.0488,0.01626 0.10567,0.03252 0.15445,0.0081 0.0488,-0.01626 0.0894,-0.07317 0.0894,-0.130073 0.008,-0.06505 -0.0163,-0.121934 -0.0488,-0.05692 z m -1.54453,-0.398334 v -0.01626 c -0.0244,0.0081 -0.0163,0.01626 0,0.01626 z m -3.4793,-0.463363 c -0.0488,0.138196 0.0488,0.30078 0.1951,0.325166 0.12194,0.02439 0.26014,-0.08129 0.30891,-0.05692 -0.10567,-0.162584 -0.30078,-0.276393 -0.50401,-0.268262 z m -1.72339,-2.772055 c -0.0894,-0.11381 -0.1951,-0.219489 -0.22761,-0.357685 -0.008,0.08129 -0.008,0.178839 0.0163,0.243875 0.065,0.170715 0.13006,0.349553 0.20322,0.528399 0.008,0.01626 0.0163,0.04066 0.0407,0.04879 0.0407,0.01626 0.0813,-0.02439 0.0894,-0.06505 0.0407,-0.138197 -0.0325,-0.284518 -0.12194,-0.398327 z m -0.21948,-2.438757 c -0.284532,0.284517 -0.333302,0.682851 -0.211362,1.024273 0.008,0.03252 0.0407,0.06505 0.065,0.04879 0.008,-0.0081 0.008,-0.01626 0.0163,-0.03252 0.11381,-0.325174 -0.0488,-0.731632 0.13007,-1.040536 z m -0.252012,1.316929 c -0.12193,0 -0.0975,0.227612 0.0407,0.284517 -0.008,-0.08942 -0.0244,-0.18697 -0.0407,-0.284517 z m -4.918163,1.211251 c -0.195102,-0.170715 -0.41459,-0.34143 -0.463363,-0.593436 -0.178839,0.276393 -0.276393,0.723501 -0.22762,1.170608 0.01626,0.203226 0.07317,0.414583 0.22762,0.544655 0.178845,0.154453 0.463363,0.146321 0.682851,0.04879 0.06505,-0.03252 0.121941,-0.06505 0.162583,-0.121941 0.06505,-0.07316 0.07317,-0.178839 0.07317,-0.276393 -0.02439,-0.308904 -0.235751,-0.569042 -0.455239,-0.772268 z m -3.780073,-0.422721 c -0.04066,0.308911 0.04879,0.203232 0.08129,0.422721 0.01626,-0.195102 0.04066,-0.146328 0.05692,-0.34143 -0.09755,-0.01626 -0.11381,-0.04879 -0.138196,-0.08129 z m -7.438219,-2.674508 c -0.154452,-0.02439 -0.447101,-0.11381 -0.463364,0.06505 0.03252,0.178839 0.276394,0.292648 0.430853,0.203226 0.162583,-0.105679 0.154452,-0.227613 0.03252,-0.268262 z m -2.511918,10.364726 c -0.01626,-0.09755 -0.146328,-0.138196 -0.252006,-0.04066 -0.11381,0.08942 -0.138197,0.251999 -0.130065,0.390196 0.01626,0.138196 -0.04879,0.317042 0.08942,0.414589 0.113809,0.05692 0.186977,-0.01626 0.276393,-0.01626 0.03253,-0.284524 0.04066,-0.463363 0.01626,-0.747888 z"
     id="path106" /><g
     id="g118"
     transform="matrix(0.08129196,0,0,0.08129196,-19.075855,-8.9474794)">
	<g
   id="g112">
		<polygon
   class="st12"
   points="629.7,790.6 584.3,790.6 595.4,801.6 640.7,801.6 "
   id="polygon108" />
		<path
   class="st12"
   d="m 854,831.4 v -29.8 h 25.6 l -11,-11 h -200 l 11,11 h 22.7 v 59.3 l 13.4,13.4 v -72.6 h 9.9 V 865 l 13.4,13.4 v -76.7 h 101.7 v 20.4 h -23.2 c 0,0 -24.3,4.6 -9.4,36.7 0,0 6.1,13.3 30.1,28.2 l 1.7,-3.3 c -4.5,-3 -8.7,-6.7 -12.5,-10.6 -3,-3.2 -5.9,-6.6 -8,-10.5 -3,-5.6 -5.2,-16.9 -0.9,-22.8 4.6,-6.4 14.4,-7 22.2,-6.6 v 35.6 l 13.4,13.4 v -47.9 l 3.8,0.4 z"
   id="path110" />
	</g>
	<path
   class="st12"
   d="M 725.5,838.8 712.1,825 c 0,0 -9.8,-0.6 -24.2,-0.6 -2.2,-8.9 -6.4,-16 -8.7,-19.2 -3.4,-4.8 -13.1,-12.8 -13.1,-12.8 0,0 -4.5,-5 -14.6,-4.1 -11.3,1 -11.4,8.9 -7.8,15.3 3.6,6.4 12.4,14.7 19.4,18.3 1.4,0.7 5.3,2.5 8.6,3.4 l -1,0.1 c -9.1,1.6 -15.3,3.7 -18.6,8.3 -3.8,5.3 -4.2,11.8 -1.6,17.8 2.7,6.2 8,10.7 13.3,14.6 3.2,2.4 6.1,4.6 10.2,5.2 9.3,1.2 14.1,-6.8 15.7,-14.9 0.1,-0.4 0.1,-0.7 0.2,-1.1 1.3,-7.1 1.1,-14.2 0.4,-20.6 l 17.6,1 z M 667.2,808 c -2.9,7.7 -11.6,5.9 -13,2.5 -3.9,-9.4 13.2,-10.6 13.2,-10.6 0,0 0.5,6.2 -0.2,8.1 z m 9.1,44.2 c -5,16.3 -14.6,5.8 -14.6,5.8 -5.7,-11.8 10,-18.8 16.7,-21.2 0.3,3.6 0,8.5 -2.1,15.4 z"
   id="path114" />
	<path
   class="st12"
   d="M 998.6,896.1 987.5,885 c 0,11.3 -2.5,26.1 -15.4,31.7 -19.4,8.5 -73.8,11.8 -191.3,-54.6 2.5,-1.4 4.8,-2.9 6.5,-4.5 10.6,-9.7 18.3,-31.1 6.3,-46.2 -12,-15.1 -11.6,-20.3 -28,-19.7 -7.4,0.3 -11,6.1 -11.3,12.9 -0.2,3.1 0.2,6.3 0.9,9.3 1.8,7.4 9.3,13.2 14.6,18.2 l 2.7,-2.4 c -1.4,-1.9 -2.6,-4 -3.5,-6.1 -2.8,-6.6 -2.1,-12.8 6.3,-16.5 12.1,-5.3 12.6,12.7 10.9,19.4 -2.2,8.3 -8,18 -15.1,23.1 -0.9,0.7 -5.5,4 -6.7,3.2 0,0 -13.2,-7.8 -13.3,-7.9 -3.7,-2.2 -8.6,1.4 -10.5,4.5 -2.5,4.1 0.7,7.6 3.6,10.2 2.5,2.3 5.4,4.5 8.5,6 6,3.1 14.5,2 22,-0.8 l 21.8,12.4 c 115.5,61.2 167.1,59.2 187,51.1 15.4,-6.1 16.6,-21.1 15.1,-32.2 z"
   id="path116" />
</g><g
     id="g130"
     transform="matrix(0.08129196,0,0,0.08129196,-19.075855,-8.9474794)">
	<path
   class="st12"
   d="m 1161.3,797 c 3.5,0 7.9,-0.3 13.2,-0.5 v 3.4 c -6.6,0 -7.4,1 -7.4,7.3 v 40.7 c 0,6.3 0.6,7.3 7.4,7.3 v 3.4 c -5.7,-0.3 -9.9,-0.4 -12.6,-0.4 -2.9,0 -7.3,0.2 -13.2,0.4 v -3.4 c 6.6,0 7.4,-0.9 7.4,-7.3 v -40.7 c 0,-6.3 -0.7,-7.3 -7.4,-7.3 v -3.4 c 5.6,0.2 9.7,0.5 12.6,0.5 z"
   id="path120" />
	<path
   class="st12"
   d="m 1190,796.9 c 2.3,0 5.4,-0.2 9.3,-0.4 l 33.6,45.3 V 809 c 0,-7.6 -0.6,-9.1 -8.2,-9.1 v -3.4 c 3.9,0.3 7.3,0.4 10.4,0.4 2,0 4.9,-0.2 8.9,-0.4 v 3.4 c -7.1,0.2 -7.3,1.7 -7.3,9 v 25.3 c 0,5.7 0,14 -0.3,24.8 l -4.5,-0.5 -40.1,-53.9 V 846 c 0,7.7 0.3,9.1 8.2,9.1 v 3.4 c -4.2,-0.3 -7.6,-0.4 -10.3,-0.4 -1.7,0 -4.8,0.2 -9.3,0.4 v -3.4 c 7.3,-0.1 7.8,-1.6 7.8,-9.1 v -38.9 c 0,-6.1 -0.7,-7.3 -7.3,-7.3 h -0.8 v -3.4 c 3.9,0.3 7.2,0.5 9.9,0.5 z"
   id="path122" />
	<path
   class="st12"
   d="m 1260.1,796.7 c 5,0 10.4,-0.3 16.2,-0.3 21.2,0 33.5,11.8 33.5,31.2 0,19.5 -11.4,30.8 -32.5,30.8 -5.3,0 -10.8,-0.3 -16.4,-0.3 -3.5,0 -7.3,0.1 -11.4,0.3 V 855 c 6.3,0 7.2,-1 7.2,-7.3 V 807 c 0,-6.2 -0.7,-7.2 -7.2,-7.3 v -3.4 c 3.6,0.4 7.1,0.4 10.6,0.4 z m 7.6,58.3 h 6 c 5.5,0 10,-0.3 13.9,-2.6 6.7,-3.9 10,-12.3 10,-25.1 0,-20.6 -7.9,-27.4 -25,-27.4 h -5 V 855 Z"
   id="path124" />
	<path
   class="st12"
   d="m 1328.8,797 c 3.5,0 7.9,-0.3 13.2,-0.5 v 3.4 c -6.6,0 -7.4,1 -7.4,7.3 v 40.7 c 0,6.3 0.6,7.3 7.4,7.3 v 3.4 c -5.7,-0.3 -9.9,-0.4 -12.6,-0.4 -2.9,0 -7.3,0.2 -13.2,0.4 v -3.4 c 6.6,0 7.4,-0.9 7.4,-7.3 v -40.7 c 0,-6.3 -0.7,-7.3 -7.4,-7.3 v -3.4 c 5.5,0.2 9.6,0.5 12.6,0.5 z"
   id="path126" />
	<path
   class="st12"
   d="m 1379,795.7 19.9,54.8 c 1.3,3.5 2.5,4.6 6.7,4.6 v 3.4 c -5.4,-0.3 -9.3,-0.4 -11.8,-0.4 -2.8,0 -7.2,0.2 -12.9,0.4 v -3.4 c 4.1,-0.1 6,-1 6,-3.4 0,-0.8 -0.1,-1.5 -0.3,-2 l -4.6,-13.6 h -18.4 l -3.5,10 c -0.8,2.2 -1.5,4.1 -1.5,5.6 0,2.5 1.2,3.1 5,3.4 v 3.4 c -3.5,-0.3 -6.2,-0.3 -8.2,-0.3 -1.6,0 -4.2,0.1 -7.8,0.3 v -3.4 c 4.2,0 5.3,-1.2 6.6,-4.8 l 20.2,-54.6 z m -14.3,36.9 h 16.1 l -7.8,-23.1 z"
   id="path128" />
</g><g
     id="g138"
     transform="matrix(0.08129196,0,0,0.08129196,-19.075855,-8.9474794)">
	<path
   class="st12"
   d="m 948.1,847.5 c -0.2,-0.2 -0.5,-0.3 -0.8,-0.3 -0.3,0 -0.6,0.1 -0.8,0.3 -0.1,0.1 -0.2,0.2 -0.3,0.3 l -0.2,0.2 -5.4,7.9 h -21.7 c 0,0 23.6,-15.1 27.2,-23.9 3.6,-8.8 -0.2,-25.6 -19.6,-23.8 -19.5,1.9 -18.1,13.9 -17.1,17.3 0.5,1.8 3.1,5.7 8.5,4.7 0,0 0,0 0,0 2,0 3.6,-1.6 3.6,-3.7 0,-2 -1.6,-3.7 -3.6,-3.7 -0.4,0 -0.8,0.1 -1.1,0.2 -1.3,-0.7 -2.4,-1.7 -2.4,-3.1 0,-3.2 2.7,-8.8 10.7,-8.6 8,0.2 11.5,7.3 10.8,14.7 -0.7,7.3 -3.9,15.4 -21.5,27.8 -4.3,3 -9.3,8 -9.3,8 v 3.1 h 41 l 2.7,-15.7 v -0.3 c 0,0 0,-0.1 0,-0.1 0,-0.6 -0.3,-1 -0.7,-1.3 z"
   id="path132" />
	<path
   class="st12"
   d="m 1062.7,848 c -0.2,-0.2 -0.5,-0.3 -0.8,-0.3 -0.3,0 -0.6,0.1 -0.8,0.3 -0.1,0.1 -0.2,0.2 -0.3,0.3 l -0.1,0.2 -5.4,7.9 h -21.7 c 0,0 23.6,-15.1 27.2,-23.9 3.6,-8.8 -0.2,-25.6 -19.6,-23.8 -19.5,1.9 -18.1,13.9 -17.1,17.3 0.5,1.8 3.1,5.7 8.5,4.7 0,0 0,0 0,0 2,0 3.6,-1.6 3.6,-3.7 0,-2 -1.6,-3.7 -3.6,-3.7 -0.4,0 -0.8,0.1 -1.1,0.2 -1.3,-0.7 -2.4,-1.7 -2.4,-3.1 0,-3.2 2.7,-8.8 10.7,-8.6 8,0.2 11.5,7.3 10.8,14.7 -0.7,7.3 -3.9,15.4 -21.5,27.8 -4.3,3 -9.3,8 -9.3,8 v 3.1 h 41 l 2.7,-15.7 v -0.3 c 0,0 0,-0.1 0,-0.1 -0.2,-0.6 -0.4,-1.1 -0.8,-1.3 z"
   id="path134" />
	<path
   class="st12"
   d="m 1093.3,844.7 c 0,0 16.1,-5.9 17.6,-16.7 1.4,-10.4 -4.9,-19.8 -20,-19.5 -13.9,0.2 -17.5,8.4 -17.7,8.9 -0.2,0.4 -3.3,9.6 3.2,12.1 2,0.8 3.5,0.8 4.7,0.5 0.1,0 0.2,0.1 0.3,0.1 2,0 3.6,-1.6 3.6,-3.7 0,-2 -1.6,-3.7 -3.6,-3.7 -0.5,0 -1,0.1 -1.4,0.3 -1.5,-0.9 -2.3,-2 -2.1,-3.6 0.2,-2.2 2.3,-8.7 11.5,-8.1 9.2,0.6 10.4,8.5 9.9,13.9 -1.5,17 -11.7,16.6 -17.6,21 -0.6,0.5 -0.7,1.6 -0.2,1.7 14.3,1.8 21.8,3.4 22.3,18.5 0.5,15.1 -12.3,18.6 -16.5,18.8 -4.2,0.2 -10.2,-2 -8.6,-5.4 1.6,-3.4 -1.1,-5 -4.4,-5.3 -3.3,-0.3 -5.1,2.5 -4.4,5.2 1.3,5.8 8,8.5 16.8,8.8 8.7,0.4 29,-4.7 28.6,-23.7 -0.5,-19 -22,-20.1 -22,-20.1 z"
   id="path136" />
</g><path
     class="st12"
     d="m 63.337935,59.215834 c 0,0.699107 -0.23575,1.276279 -0.829179,1.723387 -0.455232,0.341429 -0.942989,0.512137 -1.479513,0.512137 -0.625946,0 -1.170608,-0.219488 -1.617709,-0.666589 -0.447107,-0.438976 -0.674727,-1.032412 -0.674727,-1.650227 0,-0.398334 0.105679,-0.780406 0.308911,-1.13809 0.203233,-0.357685 0.479626,-0.642209 0.82918,-0.845435 0.430845,-0.252006 0.877952,-0.382072 1.341316,-0.382072 0.284524,0 0.585304,0.08942 0.886084,0.219488 0.292648,0.130066 0.520268,0.333298 0.707238,0.544655 0.390203,0.438977 0.528399,0.999894 0.528399,1.682746 z M 62.37056,59.069506 c 0,-0.577173 -0.121935,-1.048668 -0.365816,-1.406352 -0.243875,-0.357685 -0.569042,-0.536524 -0.967369,-0.536524 -0.382079,0 -0.690983,0.18697 -0.926734,0.569042 -0.235743,0.382071 -0.357684,0.877952 -0.357684,1.487643 0,0.625947 0.154459,1.121828 0.471494,1.479513 0.22762,0.260138 0.479626,0.390203 0.764143,0.390203 0.447108,0 0.804793,-0.219488 1.081186,-0.666596 0.203232,-0.325167 0.30078,-0.764143 0.30078,-1.316929 z"
     id="path140"
     style="stroke-width:0.0812917" /></g>
</svg>
