<?xml version="1.0" encoding="UTF-8" standalone="no"?>
<!-- Generator: Adobe Illustrator 16.0.0, SVG Export Plug-In . SVG Version: 6.00 Build 0)  -->

<svg
   version="1.1"
   id="Capa_1"
   x="0px"
   y="0px"
   width="18"
   height="18"
   viewBox="0 0 18 18"
   xml:space="preserve"
   sodipodi:docname="instagram.svg"
   inkscape:version="1.1.2 (b8e25be833, 2022-02-05)"
   xmlns:inkscape="http://www.inkscape.org/namespaces/inkscape"
   xmlns:sodipodi="http://sodipodi.sourceforge.net/DTD/sodipodi-0.dtd"
   xmlns:xlink="http://www.w3.org/1999/xlink"
   xmlns="http://www.w3.org/2000/svg"
   xmlns:svg="http://www.w3.org/2000/svg"><defs
   id="defs41">
	
	
<radialGradient
   fy="578.088"
   fx="158.429"
   gradientTransform="matrix(0,-0.21342183,0.19855322,0,-109.12024,50.872784)"
   gradientUnits="userSpaceOnUse"
   xlink:href="#a"
   r="65"
   cy="578.088"
   cx="158.429"
   id="c" /><radialGradient
   fy="473.455"
   fx="147.694"
   gradientTransform="matrix(0.01873005,0.09354474,-0.38569224,0.07722675,179.43824,-47.385915)"
   gradientUnits="userSpaceOnUse"
   xlink:href="#b"
   r="65"
   cy="473.455"
   cx="147.694"
   id="d" /><linearGradient
   id="b"><stop
     stop-color="#3771c8"
     offset="0"
     id="stop6202" /><stop
     offset=".128"
     stop-color="#3771c8"
     id="stop6204" /><stop
     stop-opacity="0"
     stop-color="#60f"
     offset="1"
     id="stop6206" /></linearGradient><linearGradient
   id="a"><stop
     stop-color="#fd5"
     offset="0"
     id="stop6209" /><stop
     stop-color="#fd5"
     offset=".1"
     id="stop6211" /><stop
     stop-color="#ff543e"
     offset=".5"
     id="stop6213" /><stop
     stop-color="#c837ab"
     offset="1"
     id="stop6215" /></linearGradient></defs><sodipodi:namedview
   id="namedview39"
   pagecolor="#ffffff"
   bordercolor="#666666"
   borderopacity="1.0"
   inkscape:pageshadow="2"
   inkscape:pageopacity="0.0"
   inkscape:pagecheckerboard="0"
   showgrid="false"
   inkscape:zoom="32.339999"
   inkscape:cx="9.0909094"
   inkscape:cy="9.8330244"
   inkscape:window-width="1920"
   inkscape:window-height="1017"
   inkscape:window-x="-8"
   inkscape:window-y="-8"
   inkscape:window-maximized="1"
   inkscape:current-layer="layer2"
   width="18px"
   inkscape:showpageshadow="2"
   inkscape:deskcolor="#d1d1d1" />

<g
   id="g8">
</g>
<g
   id="g10">
</g>
<g
   id="g12">
</g>
<g
   id="g14">
</g>
<g
   id="g16">
</g>
<g
   id="g18">
</g>
<g
   id="g20">
</g>
<g
   id="g22">
</g>
<g
   id="g24">
</g>
<g
   id="g26">
</g>
<g
   id="g28">
</g>
<g
   id="g30">
</g>
<g
   id="g32">
</g>
<g
   id="g34">
</g>
<g
   id="g36">
</g>
<g
   inkscape:groupmode="layer"
   id="layer1"
   inkscape:label="Layer 1"><rect
     style="fill:#5e5e5e;fill-opacity:0.63921571;stroke:#000000;stroke-width:0.0350797;stroke-opacity:1"
     id="rect285"
     width="18.039141"
     height="17.968237"
     x="-0.077066541"
     y="-0.00031315887" /></g><g
   inkscape:groupmode="layer"
   id="layer2"
   inkscape:label="Layer 2"><path
     d="M 12.809158,39.960074 H 9.2576375 v -2.129065 c 0,-0.653066 0.8224245,-0.804525 1.2062805,-0.804525 0.381302,0 2.294278,0 2.294278,0 v -2.873191 l -2.629484,-0.01127 c -3.5875695,0 -4.4064045,2.142365 -4.4064045,3.516038 v 2.302074 h -2.603245 v 2.960188 h 2.603245 c 0,3.800614 0,7.992188 0,7.992188 h 3.53533 c 0,0 0,-4.234614 0,-7.992188 h 3.0032135 z"
     fill="#365899"
     id="path4"
     style="fill:#ffffff;stroke-width:0.0722818" /><path
     d="m 50.807424,-19.893217 c -0.213714,0.126979 -0.854854,0.380194 -1.452775,0.443733 0.383365,-0.222585 0.951004,-0.951748 1.091166,-1.530984 -0.368546,0.253214 -1.215072,0.622603 -1.633082,0.622603 0,0 0,0.0011 7.94e-4,0.0019 -0.477238,-0.537056 -1.147967,-0.871603 -1.89294,-0.871603 -1.444943,0 -2.617391,1.261909 -2.617391,2.818864 0,0.216092 0.02384,0.425989 0.06726,0.628055 h -8.53e-4 c -1.960792,-0.05422 -4.253005,-1.112476 -5.544751,-2.924181 -0.792999,1.479538 -0.106857,3.124713 0.793742,3.724171 -0.307435,0.02557 -0.875817,-0.03796 -1.142959,-0.317546 -0.01859,0.981187 0.420488,2.282251 2.018926,2.753788 -0.308328,0.17892 -0.851978,0.127821 -1.089581,0.08827 0.08361,0.830171 1.161595,1.914251 2.339447,1.914251 -0.419795,0.52209 -1.852298,1.472301 -3.625047,1.169475 1.204318,0.789975 2.608273,1.246842 4.094304,1.246842 4.222966,0 7.502563,-3.685414 7.326021,-8.231974 0,-0.0055 -0.0015,-0.01085 -0.0015,-0.01551 0,-0.01239 0.0015,-0.02478 0.0015,-0.03563 0,-0.01393 -0.0015,-0.02785 -0.0015,-0.04257 0.38411,-0.281912 0.899806,-0.782195 1.269245,-1.441971 z"
     fill="#55acee"
     id="path1833"
     style="fill:#ffffff;stroke-width:0.0495623" /><path
     d="m -13.888106,82.769571 0.261316,-0.290353 0.638772,-0.754909 0.987193,-0.55167 0.174211,-0.290346 0.174204,-0.493599 v -0.406493 l 0.290351,-0.319381 0.17421,-0.406493 h 0.348421 l 0.638772,0.319387 0.4064914,0.696839 0.05807,0.812987 0.958157,0.522628 0.551667,0.406493 0.493597,0.638769 0.580701,1.364649 0.232281,0.87107 0.145175,1.045262 0.145176,0.987197 0.493596,0.435523 0.261315,0.754916 0.261316,0.725875 0.08711,0.783945 -0.348421,0.696845 -0.493596,0.464557 -0.638771,0.116141 -0.116142,0.522635 -0.29035,0.725874 -0.609736,0.725881 -0.667807,0.580699 -0.900088,0.348421 -1.0162274,0.261316 h -1.654998 l -1.219474,-0.145176 -1.393683,-0.464561 -0.812983,-0.406491 -0.580701,-0.40649 -0.406491,-0.319388 -0.406492,-0.493599 -0.290351,-0.406486 0.11614,-0.60974 0.493597,-0.290346 V 90.08643 l 0.203246,-0.696845 0.406491,-0.812981 0.377456,-0.667804 0.377456,-0.551669 0.377456,-0.348423 0.290351,-0.20324 v -0.493599 l 0.08711,-0.580705 0.0871,-0.929121 0.17421,-0.783964 0.232281,-0.725874 z"
     fill="#facd00"
     stroke="#000000"
     id="path2"
     style="stroke-width:0.0580701" /><path
     d="m -5.4145136,89.049414 v -0.01743 c -0.05987,-0.584647 -0.24314,-1.149906 -0.53773,-1.658482 -0.08217,-0.140359 -0.176185,-0.273398 -0.28106,-0.397784 -0.03781,-0.04437 -0.08432,-0.08048 -0.136639,-0.106152 -0.05238,-0.02567 -0.109404,-0.04031 -0.167649,-0.0431 -0.0029,-0.03543 -0.0064,-0.07084 -0.0099,-0.106266 -0.0209,-0.220088 -0.04413,-0.435529 -0.06794,-0.644581 -0.0064,-0.05229 -0.0122,-0.104523 -0.01858,-0.155628 l -0.01394,-0.111495 c 0,-0.0116 0,-0.02383 -0.0046,-0.03543 -0.0029,-0.02497 -0.0064,-0.04994 -0.0099,-0.07491 0,-0.01394 -0.0035,-0.02789 -0.0058,-0.04183 -0.0029,-0.02263 -0.0064,-0.04468 -0.0093,-0.06736 -0.0029,-0.02263 -0.0041,-0.02846 -0.0064,-0.04297 -0.0023,-0.01451 -0.0064,-0.04354 -0.0099,-0.06562 -0.0035,-0.02206 -0.0041,-0.02789 -0.0064,-0.04183 -0.0035,-0.02263 -0.007,-0.04532 -0.01103,-0.06794 0,-0.01217 -0.0035,-0.02497 -0.0058,-0.03714 -0.0046,-0.02732 -0.0087,-0.054 -0.01335,-0.08013 0,-0.0081 -0.0029,-0.01565 -0.0041,-0.0232 -0.0058,-0.03429 -0.01161,-0.06794 -0.018,-0.10162 l -0.0052,-0.02789 c -0.0046,-0.0244 -0.0087,-0.0488 -0.01335,-0.07259 l -0.007,-0.03657 c -0.0041,-0.02092 -0.0081,-0.04183 -0.01278,-0.06211 -0.0046,-0.02034 -0.0052,-0.02611 -0.0075,-0.03949 l -0.0122,-0.05806 c -0.0029,-0.0128 -0.0058,-0.02554 -0.0081,-0.03835 -0.0023,-0.0128 -0.0087,-0.04006 -0.01335,-0.05806 -0.0046,-0.018 -0.0052,-0.02383 -0.0075,-0.036 -0.0052,-0.02206 -0.0099,-0.04354 -0.0151,-0.06562 0,-0.0093 -0.0041,-0.01857 -0.0064,-0.02846 -0.007,-0.0308 -0.01451,-0.06154 -0.02207,-0.09175 l -0.0035,-0.01451 c -0.0064,-0.02554 -0.0122,-0.05109 -0.01858,-0.07607 l -0.0087,-0.03194 c -0.0046,-0.01914 -0.0099,-0.03835 -0.01452,-0.05806 l -0.0093,-0.03543 c -0.0052,-0.018 -0.0099,-0.03543 -0.01452,-0.05343 -0.0046,-0.018 -0.0064,-0.02326 -0.0099,-0.03543 -0.0035,-0.01217 -0.0099,-0.03486 -0.01452,-0.05229 -0.0046,-0.01743 -0.007,-0.02263 -0.0099,-0.03429 l -0.01626,-0.05457 -0.0087,-0.03023 c -0.007,-0.0232 -0.01452,-0.04646 -0.02149,-0.0691 0,-0.0044 0,-0.0093 -0.0041,-0.01394 -0.0087,-0.02732 -0.01684,-0.054 -0.02555,-0.08072 l -0.0087,-0.02675 c -0.0064,-0.018 -0.01219,-0.036 -0.018,-0.054 l -0.01045,-0.03137 c -0.0058,-0.01565 -0.01103,-0.03194 -0.01684,-0.04817 -0.0058,-0.01629 -0.0075,-0.02092 -0.01103,-0.03194 -0.0035,-0.01103 -0.01103,-0.0308 -0.01684,-0.04646 l -0.01103,-0.03137 -0.01742,-0.04703 c -0.0035,-0.0093 -0.0076,-0.01914 -0.01103,-0.02903 -0.0035,-0.0099 -0.01336,-0.03486 -0.02033,-0.05286 0,-0.007 -0.0052,-0.01451 -0.0081,-0.02149 -0.0093,-0.0244 -0.01916,-0.04817 -0.02845,-0.07201 l -0.0087,-0.02092 -0.0209,-0.05109 -0.01161,-0.02732 -0.01858,-0.04354 c -0.0041,-0.0099 -0.0087,-0.01914 -0.01278,-0.02903 l -0.018,-0.04063 c -0.0041,-0.0099 -0.0087,-0.01914 -0.01278,-0.02903 l -0.01858,-0.04006 c -0.0041,-0.0093 -0.0081,-0.01857 -0.01278,-0.02789 -0.0046,-0.0093 -0.01336,-0.02789 -0.01974,-0.0424 -0.0064,-0.01452 -0.0075,-0.01566 -0.01161,-0.02383 l -0.02962,-0.05806 c -0.0018,-0.0044 -0.004,-0.0094 -0.0064,-0.01394 l -0.02721,-0.054 -0.0122,-0.02326 -0.02033,-0.03892 -0.01394,-0.02611 -0.01974,-0.036 -0.01394,-0.02554 c -0.0064,-0.0116 -0.01278,-0.0232 -0.01974,-0.03486 l -0.01394,-0.02554 c -0.007,-0.0116 -0.01394,-0.0232 -0.02033,-0.03486 l -0.01394,-0.02383 -0.02381,-0.04354 c 0,-0.0057 -0.0064,-0.01103 -0.0093,-0.01629 -0.01161,-0.01857 -0.02265,-0.03714 -0.03426,-0.05806 l -0.0122,-0.01914 -0.02265,-0.036 -0.01452,-0.02206 -0.0209,-0.03194 -0.0151,-0.02263 -0.02033,-0.03017 -0.01568,-0.02263 -0.0209,-0.0296 -0.0151,-0.02149 c -0.0076,-0.01103 -0.01568,-0.02149 -0.02323,-0.03194 -0.0076,-0.01046 -0.0087,-0.01217 -0.01335,-0.01857 l -0.03542,-0.0476 -0.01045,-0.01394 -0.02613,-0.03366 -0.01568,-0.01978 -0.02149,-0.02732 -0.01684,-0.02035 -0.0209,-0.02554 -0.01684,-0.02035 -0.0209,-0.02497 -0.01684,-0.01914 -0.02555,-0.02554 -0.0151,-0.01743 -0.02845,-0.03137 -0.01219,-0.01337 -0.03484,-0.03771 -0.01568,-0.01565 -0.02323,-0.0244 -0.01684,-0.01686 -0.02207,-0.02263 -0.01742,-0.01743 -0.02207,-0.02092 -0.01742,-0.01686 -0.02207,-0.02149 -0.01684,-0.01566 -0.02555,-0.0232 -0.01394,-0.0128 -0.0389,-0.03429 -0.01394,-0.0116 -0.04239,-0.03657 -0.02323,-0.01914 -0.018,-0.01451 -0.02207,-0.018 -0.018,-0.01394 -0.02265,-0.01743 -0.018,-0.01394 -0.02439,-0.018 -0.01626,-0.01217 -0.03484,-0.02497 -0.01452,-0.01103 -0.0302,-0.02092 -0.01684,-0.0116 -0.02381,-0.01566 -0.018,-0.01217 -0.02323,-0.01508 -0.018,-0.0116 -0.02323,-0.01451 -0.018,-0.01103 -0.02381,-0.01451 -0.01742,-0.01046 -0.02787,-0.01686 -0.01278,-0.0075 -0.04007,-0.02263 -0.01568,-0.0081 -0.02555,-0.01394 -0.01742,-0.0093 -0.02381,-0.0128 -0.01858,-0.0093 -0.02265,-0.0116 -0.01742,-0.0099 -0.02381,-0.0116 -0.04355,-0.02035 -0.0151,-0.007 -0.04007,-0.018 -0.01278,-0.0057 -0.02845,-0.01217 -0.01684,-0.007 -0.02439,-0.01046 -0.018,-0.007 -0.02323,-0.0093 -0.018,-0.007 -0.02381,-0.0093 -0.01742,-0.0064 -0.02497,-0.0093 -0.01626,-0.0057 -0.04355,-0.01451 -0.03774,-0.0128 -0.0099,-0.0032 c 0.043265,-0.233895 0.036933,-0.474245 -0.01864,-0.705519 -0.055516,-0.231268 -0.158938,-0.448313 -0.303649,-0.637077 -0.2624774,-0.348422 -0.6341264,-0.571989 -0.9471244,-0.571989 -0.0763,-0.0019 -0.152086,0.01274 -0.222234,0.04278 -0.07015,0.03004 -0.132981,0.07488 -0.184257,0.131404 -0.09303,0.10155 -0.146976,0.232858 -0.152144,0.370492 -0.102377,0.01375 -0.198426,0.05755 -0.275949,0.125883 -0.07752,0.06833 -0.133045,0.158093 -0.159565,0.257964 -0.02099,0.07665 -0.02496,0.156965 -0.01161,0.235318 0.01334,0.07835 0.04367,0.15282 0.08885,0.218205 -0.125432,0.11614 -0.238088,0.296741 -0.250283,0.589996 -0.182997,0.06368 -0.360831,0.141335 -0.531923,0.232282 -0.03949,0.02092 -0.0784,0.04297 -0.11614,0.06562 -0.03774,0.02263 -0.06562,0.03892 -0.09814,0.05806 -0.02381,0.01451 -0.04762,0.03017 -0.07143,0.04589 -0.07123,0.04646 -0.14208,0.09678 -0.212537,0.150982 -0.02323,0.018 -0.04704,0.036 -0.07026,0.05806 -0.04355,0.03486 -0.08652,0.07142 -0.129497,0.109752 -0.04297,0.03835 -0.09756,0.08827 -0.145756,0.135301 -0.06736,0.06678 -0.134142,0.137044 -0.199181,0.211955 -0.03135,0.036 -0.06213,0.07317 -0.09291,0.110912 -0.03078,0.03778 -0.04762,0.05806 -0.07085,0.09002 l -0.03833,0.05052 c -0.03774,0.05109 -0.07491,0.10337 -0.111494,0.157371 -0.03658,0.054 -0.07898,0.12137 -0.11614,0.184663 -0.02787,0.04646 -0.05458,0.09349 -0.08188,0.14169 -0.01974,0.036 -0.03949,0.07259 -0.05807,0.109759 -0.036,0.06968 -0.07143,0.141107 -0.105688,0.215435 -0.06504,0.140144 -0.125821,0.288806 -0.18234,0.44598 -0.03484,0.09562 -0.06775,0.194918 -0.09872,0.297901 -0.0209,0.06852 -0.04123,0.139371 -0.06097,0.211379 -0.01974,0.072 -0.036,0.138787 -0.05284,0.210212 -0.0052,0.02206 -0.01045,0.04411 -0.0151,0.06678 -0.01742,0.07607 -0.03368,0.154468 -0.04936,0.232282 -0.01335,0.06852 -0.02613,0.138204 -0.03774,0.209027 -0.024,0.14169 -0.04491,0.288438 -0.06272,0.440174 -0.02013,0.174617 -0.03639,0.355972 -0.04878,0.544115 -0.007,0.105689 -0.01278,0.209052 -0.018,0.310095 -0.0052,0.101044 -0.0099,0.200927 -0.01394,0.298484 -0.0041,0.09756 -0.007,0.193372 -0.0099,0.286867 v 0.06388 c -0.09059,0 -0.365842,0 -1.103333,1.205535 -0.425654,0.69684 -0.782205,1.443042 -0.929123,1.947092 -0.05807,0.191052 -0.111494,0.436105 -0.05401,0.614386 h -0.0058 l -0.02904,0.0057 -0.01278,0.0032 -0.02672,0.0057 -0.01219,0.0032 -0.02845,0.0075 -0.0093,0.0032 c -0.0122,0.0032 -0.02422,0.0075 -0.036,0.01217 h -0.0058 l -0.02904,0.0116 -0.01103,0.0044 -0.02323,0.01046 -0.01103,0.0057 -0.02265,0.01217 -0.0099,0.0051 -0.02904,0.01857 c -0.0099,0.007 -0.01974,0.01394 -0.02904,0.02149 l -0.0081,0.0064 -0.01917,0.01686 -0.0093,0.0087 -0.02613,0.02611 c -0.0058,0.007 -0.0122,0.01394 -0.018,0.02149 l -0.0052,0.007 c -0.0075,0.0099 -0.0151,0.01971 -0.02207,0.03023 l -0.0046,0.0075 c -0.0052,0.0081 -0.01045,0.01686 -0.0151,0.02554 -0.0046,0.0087 -0.0041,0.0081 -0.0064,0.0116 -0.0023,0.0032 -0.0081,0.01565 -0.01161,0.0244 -0.0035,0.0087 -0.0041,0.0087 -0.0064,0.0128 l -0.01742,0.03308 -0.0046,0.01217 c -0.0046,0.01337 -0.0093,0.02732 -0.01335,0.04183 -0.0041,0.01451 -0.0076,0.03309 -0.01045,0.05109 -0.0029,0.018 -0.0035,0.03778 -0.0041,0.05806 0.0063,0.177989 0.05149,0.352428 0.1324,0.511016 0.05057,0.109638 0.108788,0.215619 0.174211,0.317068 0.02904,0.04411 0.05807,0.08885 0.09233,0.134141 0.211781,0.286404 0.459438,0.544406 0.73691,0.767688 0.08478,0.07009 0.174599,0.139193 0.269445,0.207309 0.166911,0.119161 0.340222,0.229087 0.519147,0.329258 0.624255,0.348421 1.413428,0.644579 2.380877,0.801949 0.154855,0.02555 0.315902,0.04727 0.483144,0.06504 0.369755,0.03932 0.741364,0.05871 1.113193,0.05807 0.435526,0.0022 0.870471,-0.03217 1.300191,-0.102783 0.152724,-0.02613 0.299642,-0.05807 0.4413326,-0.09175 0.91809,-0.227055 1.603317,-0.643418 2.110851,-1.184631 0.02207,-0.02326 0.04355,-0.04703 0.06446,-0.07085 0.03426,-0.03835 0.06794,-0.07723 0.100461,-0.116141 l 0.0511,-0.06332 c 0.05052,-0.06446 0.09872,-0.129496 0.145175,-0.196858 0.02555,-0.03657 0.05052,-0.07375 0.07433,-0.111495 0.103655,-0.160216 0.196741,-0.32705 0.278736,-0.499405 0.0209,-0.04354 0.04123,-0.0871 0.05807,-0.131821 0.01278,-0.02846 0.02497,-0.05806 0.03717,-0.08536 0.02555,-0.06154 0.05052,-0.123106 0.07375,-0.185823 0.01666,-0.04449 0.03293,-0.08977 0.04878,-0.135884 0.01452,-0.0412 0.02845,-0.08246 0.04181,-0.124267 l 0.03658,-0.116141 c 0.01922,0.0025 0.03868,0.0044 0.05807,0.0038 0.04704,1.14e-4 0.09378,-0.0077 0.138208,-0.0232 0.238145,-0.07845 0.457824,-0.204464 0.64574,-0.370486 0.209865,-0.188498 0.364796,-0.4303 0.448301,-0.699749 0.08449,-0.281872 0.110798,-0.57803 0.07723,-0.870467 z m -5.6484844,-8.530483 c 0.0027,1.4e-4 0.0053,-6.33e-4 0.0074,-0.0025 0.0022,-0.0019 0.0036,-0.0038 0.0041,-0.0067 4.65e-4,-0.0025 0,-0.0051 -0.0013,-0.0076 -0.0013,-0.0025 -0.0035,-0.0038 -0.006,-0.0051 -0.261905,-0.121933 -0.529027,-0.2404 -0.470958,-0.453515 0.02788,-0.102787 0.116141,-0.144017 0.228216,-0.144017 0.172353,0.01306 0.339885,0.06294 0.491274,0.146336 0.0017,5.27e-4 0.0036,5.27e-4 0.0052,0 0.0023,2e-5 0.0044,-6.33e-4 0.0063,-0.0019 0.0018,-0.0013 0.0032,-0.0032 0.0041,-0.0051 8.24e-4,-0.0019 0.001,-0.0044 4.64e-4,-0.0065 -5.23e-4,-0.0019 -0.0017,-0.0044 -0.0033,-0.0057 -0.189882,-0.194542 -0.395451,-0.400109 -0.216595,-0.604515 0.02004,-0.02028 0.04419,-0.036 0.07085,-0.04601 0.02671,-0.01001 0.05523,-0.01413 0.08362,-0.01204 0.363519,0 1.0789434,0.606831 0.9407364,1.488916 l -0.01684,-0.0032 -0.02323,-0.0044 -0.01684,-0.0032 -0.02381,-0.0044 -0.04239,-0.0075 h -0.01336 l -0.03833,-0.0064 h -0.0076 l -0.03194,-0.0044 h -0.01394 l -0.02497,-0.0032 h -0.05458 l -0.02381,-0.0032 h -0.05342 l -0.03078,-0.0032 h -0.503987 l -0.07433,0.0032 h -0.0052 l -0.06794,0.0044 h -0.0075 l -0.06388,0.0051 h -0.01045 l -0.06213,0.0064 h -0.007 l -0.06213,0.0075 h -0.0046 l -0.0633,0.0081 -0.0871,0.0128 -0.08885,0.01565 -0.02381,0.0044 c -0.05807,0.01046 -0.110914,0.02206 -0.168403,0.03543 l -0.02845,0.007 -0.01219,0.0032 c 0.06678,-0.358862 0.359458,-0.38848 0.613225,-0.404155 z m -5.409223,9.006658 c 0.238343,-0.555212 0.522305,-1.089744 0.848985,-1.598091 0.381521,-0.5929 0.60393,-0.79498 0.680582,-0.836793 0.0044,-0.0032 0.0094,-0.0051 0.01451,-0.007 0.09349,0.0044 0.21486,0.110912 0.320548,0.279894 0.0035,0.0064 0.0076,0.01217 0.01103,0.018 0.312417,0.519148 0.432042,1.440144 0.09117,2.082983 -0.06395,0.122061 -0.141906,0.236287 -0.232281,0.340291 -0.220794,0.247145 -0.500437,0.434539 -0.812982,0.544697 -0.07085,0.02611 -0.136465,0.04589 -0.193373,0.06097 -0.451786,0.119044 -0.823435,0.07027 -0.953513,-0.0038 -0.01103,-0.03138 -0.04936,-0.221831 0.225313,-0.880926 z m 9.6309234,-0.04297 c -0.03879,0.451437 -0.118115,0.898399 -0.236926,1.335614 -0.03287,0.118866 -0.06887,0.235007 -0.108011,0.348423 -0.170958,0.50753 -0.43901,0.976911 -0.789173,1.382066 -0.386573,0.428963 -0.869368,0.760139 -1.408782,0.966288 -0.6294804,0.246798 -1.3884574,0.37223 -2.2566064,0.37223 -0.416171,0.0011 -0.832006,-0.0241 -1.245012,-0.07549 -0.163758,-0.02091 -0.325194,-0.04588 -0.483144,-0.07491 -0.584215,-0.10441 -1.152809,-0.282569 -1.692165,-0.530181 -0.734587,-0.342033 -1.360003,-0.820528 -1.761848,-1.347225 -0.369908,-0.485467 -0.394296,-0.793243 -0.38094,-0.843765 0.03078,-0.109169 0.09523,-0.193371 0.607413,-0.193371 h 0.276414 c 0.38036,0 0.669549,-0.05166 0.905894,-0.162594 0.517638,-0.183738 0.948803,-0.552829 1.210183,-1.035976 0.412298,-0.777557 0.256089,-1.825145 -0.09988,-2.416878 -0.07514,-0.13089 -0.174692,-0.24622 -0.293254,-0.339708 0.0081,-0.329262 0.02149,-0.682908 0.04588,-1.060366 0.103945,-1.620129 0.549343,-2.845414 1.323419,-3.650262 0.370162,-0.383334 0.826454,-0.672799 1.330967,-0.844342 0.220016,-0.07516 0.44678,-0.129033 0.677086,-0.160857 0.178915,-0.02523 0.359397,-0.03803 0.540053,-0.03835 0.331697,-0.0019 0.66171,0.04684 0.9784824,0.145176 0.423215,0.135593 0.809731,0.366208 1.130045,0.6742 0.836211,0.793813 1.37394,2.148594 1.599252,4.027137 0.03658,0.30661 0.07375,0.641678 0.103945,0.993581 0.06852,0.796722 0.103946,1.682877 0.02671,2.529539 z m 1.100429,-0.112079 c 0,0.06446 -0.007,0.126593 -0.0151,0.18699 -0.0079,0.05863 -0.01893,0.116781 -0.0331,0.174211 -0.03322,0.135764 -0.08832,0.265202 -0.163178,0.383264 -0.0295,0.04608 -0.06208,0.09018 -0.09756,0.131815 -0.01742,0.02035 -0.036,0.04063 -0.05517,0.05806 -0.01916,0.01743 -0.03949,0.03892 -0.05807,0.05806 -0.01858,0.01914 -0.03949,0.03429 -0.05807,0.05108 -0.06086,0.04817 -0.125548,0.09128 -0.193374,0.128913 -0.04355,0.0244 -0.08827,0.04646 -0.132981,0.0662 -0.04472,0.01971 -0.09059,0.03778 -0.136465,0.05343 0.01336,-0.05457 0.02555,-0.109752 0.03774,-0.16492 0.02944,-0.138559 0.05517,-0.27874 0.07723,-0.42043 0.0046,-0.03195 0.0099,-0.06388 0.01394,-0.09581 0.0122,-0.0813 0.02265,-0.16376 0.03252,-0.246219 0.0064,-0.05806 0.01219,-0.116135 0.018,-0.174205 0.0058,-0.05806 0.01103,-0.116141 0.0151,-0.174212 0.007,-0.08711 0.01278,-0.174211 0.018,-0.261317 0.0029,-0.05806 0.0058,-0.116141 0.0081,-0.174211 0.0023,-0.05806 0.0041,-0.116141 0.0052,-0.174212 0,-0.02903 0,-0.05806 0,-0.08768 0,-0.05806 0,-0.116141 0,-0.174212 0,-0.116141 0,-0.232281 0,-0.348422 0,-0.05806 0,-0.116141 -0.0046,-0.174212 -0.0046,-0.05806 -0.0041,-0.116141 -0.0064,-0.174211 -0.0023,-0.05806 -0.0046,-0.116141 -0.0075,-0.174205 -0.0081,-0.157954 -0.01858,-0.314742 -0.0302,-0.469793 h 0.0035 c 0.0049,0.0038 0.0093,0.0077 0.01335,0.01217 0.04297,0.05052 0.08536,0.105106 0.126593,0.16376 0.03135,0.04411 0.06156,0.09001 0.09175,0.138204 l 0.02962,0.0488 c 0.06632,0.112598 0.12607,0.22891 0.178856,0.348416 0.02671,0.05806 0.05226,0.121947 0.07607,0.184663 0.036,0.09408 0.06852,0.190881 0.09756,0.290353 0.02845,0.09756 0.05401,0.196858 0.07491,0.296741 0.02852,0.134256 0.04982,0.269969 0.06388,0.406487 0.0041,0.03486 0.007,0.06969 0.0087,0.103947 0.0017,0.07143 0.0029,0.13821 0.0011,0.202663 z"
     fill="#383838"
     id="path4-2"
     style="stroke-width:0.0580701" /><path
     d="m -12.071659,95.342534 c -0.07487,-0.0015 -0.147562,-0.02543 -0.208583,-0.06887 -0.06102,-0.04338 -0.107528,-0.104178 -0.13345,-0.174443 l -0.343195,-0.929122 c -0.166081,-0.01824 -0.327127,-0.03989 -0.483143,-0.06504 0.158531,0.441334 0.354227,0.983709 0.409394,1.128884 0.01858,0.0482 0,0.108591 -0.08943,0.108591 h -0.529019 c 0,0 -0.159693,0.352486 0.27351,0.33971 1.19973,-0.036 1.069653,0.924477 1.447672,0.743298 0.363519,-0.17421 -0.32866,-0.744459 -0.318207,-0.743298 1.382052,0.174211 0.940719,-0.340871 0.940719,-0.340871 0,0 -0.702632,0.0011 -0.96627,0.0011 z"
     fill="#383838"
     id="path6"
     style="stroke-width:0.0580701" /><path
     d="m -9.4788436,94.869843 c -0.03385,1.74e-4 -0.06701,-0.0099 -0.09506,-0.02886 -0.0281,-0.01893 -0.04982,-0.04593 -0.06231,-0.07741 -0.0633,-0.159113 -0.182921,-0.497662 -0.267123,-0.731104 -0.1416914,0.03542 -0.2903514,0.06562 -0.4413334,0.09175 0.09117,0.252024 0.217763,0.601026 0.228215,0.634707 0.02497,0.07723 0.007,0.106268 -0.129496,0.106268 h -0.512761 c 0,0 -0.148078,0.331 0.419266,0.331 1.1579204,0 0.9169294,0.973256 1.3623274,0.724135 0.284543,-0.159112 -0.243895,-0.607995 -0.286286,-0.661419 -0.02439,-0.0302 -0.0046,-0.07259 0.05807,-0.0633 1.182888,0.180599 0.892538,-0.330419 0.892538,-0.330419 0,0 -0.818789,0.0046 -1.166049,0.0046 z"
     fill="#383838"
     id="path8"
     style="stroke-width:0.0580701" /><path
     d="m -11.280412,84.957905 c 0.139252,-0.03289 0.225428,-0.172354 0.19256,-0.311566 -0.03281,-0.139212 -0.172294,-0.225424 -0.311546,-0.192573 -0.139195,0.03283 -0.225429,0.172348 -0.192561,0.31156 0.03287,0.139212 0.172353,0.225449 0.311547,0.192579 z"
     fill="#383838"
     id="path10"
     style="stroke-width:0.0580701" /><path
     d="m -8.4688876,84.924338 c 0.121715,-0.0752 0.159345,-0.234829 0.08414,-0.356497 -0.0752,-0.121674 -0.234777,-0.159342 -0.356434,-0.08414 -0.121715,0.07521 -0.159344,0.234811 -0.08414,0.356497 0.0752,0.121655 0.234778,0.159342 0.356434,0.08414 z"
     fill="#383838"
     id="path12"
     style="stroke-width:0.0580701" /><path
     d="M -9.2152056,85.608869 -9.8708176,85.3371 c -0.02213,-0.0081 -0.04553,-0.01223 -0.0691,-0.01217 -0.02375,-1.14e-4 -0.04733,0.0038 -0.06968,0.01217 l -0.655619,0.271769 c -0.02079,0.0063 -0.03926,0.01857 -0.05319,0.03524 -0.01388,0.01673 -0.02265,0.03708 -0.02509,0.05869 -0.0025,0.02161 0.0015,0.04342 0.01121,0.06288 0.0098,0.0194 0.02503,0.03556 0.04384,0.0464 l 0.665484,0.431465 c 0.02398,0.01711 0.05302,0.02573 0.08246,0.0244 0.02927,0.0013 0.05813,-0.0073 0.08188,-0.0244 l 0.666645,-0.431466 c 0.01887,-0.01084 0.03409,-0.027 0.0439,-0.0464 0.0098,-0.01946 0.01365,-0.04126 0.01121,-0.06288 -0.0025,-0.02161 -0.01121,-0.04196 -0.02514,-0.05869 -0.01388,-0.01667 -0.0324,-0.0289 -0.05319,-0.03524 z"
     fill="#383838"
     id="path14"
     style="stroke-width:0.0580701" /><g
     id="g6168"><path
       id="path7429"
       d="m 83.548862,-14.930131 c -0.185062,-0.687371 -0.727028,-1.229338 -1.4144,-1.414399 -1.255775,-0.343686 -6.278876,-0.343686 -6.278876,-0.343686 0,0 -5.023101,0 -6.278876,0.330467 -0.674153,0.185062 -1.229338,0.740247 -1.414399,1.427618 -0.330468,1.255776 -0.330468,3.859857 -0.330468,3.859857 0,0 0,2.6172997 0.330468,3.8598567 0.185061,0.687372 0.727027,1.229338 1.414399,1.414399 1.268994,0.343686 6.278876,0.343686 6.278876,0.343686 0,0 5.023101,0 6.278876,-0.330467 0.687372,-0.185062 1.229338,-0.727028 1.4144,-1.414399 0.330467,-1.255776 0.330467,-3.8598567 0.330467,-3.8598567 0,0 0.01322,-2.6173 -0.330467,-3.873076 z"
       fill="#ff0000"
       style="fill:#ffffff;stroke-width:0.132187" /><path
       id="polygon7431"
       fill="#ffffff"
       d="m 74.256125,-13.476075 v 4.8116017 l 4.177105,-2.4058007 z"
       style="fill:#006dff;fill-opacity:1;stroke-width:0.132187" /></g><path
     d="m 8.9445879,2.6035549 c -2.6644221,0 -3.443664,0.00275 -3.5951341,0.015314 C 4.8026691,2.6643196 4.4624256,2.7504113 4.0917507,2.9349634 3.8060877,3.0768133 3.5807966,3.2412414 3.3584506,3.4717351 2.9535157,3.8920821 2.7081007,4.4092206 2.6192605,5.0239362 c -0.043193,0.2984247 -0.055758,0.3592877 -0.058311,1.8836095 -9.846e-4,0.5081074 0,1.1768143 0,2.0737572 0,2.6622621 0.00294,3.4407191 0.015707,3.5918951 0.044174,0.532059 0.1276158,0.866806 0.3043146,1.232964 0.3376911,0.700906 0.9826419,1.227076 1.7424469,1.423408 0.2630849,0.06773 0.5536563,0.105037 0.9266871,0.122707 0.1580473,0.0068 1.7689517,0.01178 3.3808377,0.01178 1.6118852,0 3.2237712,-0.002 3.3778932,-0.0098 0.43193,-0.02032 0.682744,-0.05399 0.960063,-0.125652 a 2.672079,2.672079 0 0 0 1.742447,-1.426353 c 0.173263,-0.357324 0.261122,-0.704831 0.300879,-1.20911 0.0087,-0.109946 0.01227,-1.862897 0.01227,-3.6134916 0,-1.7508891 -0.0039,-3.5006001 -0.01256,-3.6105461 C 15.271682,4.8566614 15.183824,4.5120986 15.004965,4.1479027 14.858207,3.8497725 14.695252,3.6271319 14.458671,3.3994849 14.036557,2.996219 13.520204,2.7508039 12.904801,2.6620618 c -0.29813,-0.043095 -0.35752,-0.055856 -1.88302,-0.058507 z"
     fill="url(#d)"
     id="path6222"
     style="fill:#ffffff;stroke-width:0.0981659" /><path
     d="m 8.9416428,4.2723772 c -1.2796921,0 -1.4402917,0.0056 -1.9429018,0.028468 C 6.4971127,4.3238161 6.1547096,4.4032325 5.855107,4.5197556 5.5451968,4.6401071 5.2823082,4.8010994 5.0204013,5.0631045 4.758298,5.3250114 4.5973058,5.5879 4.4765615,5.8977119 4.359744,6.1974128 4.2802295,6.539914 4.2576513,7.0413461 4.2352697,7.543956 4.2293797,7.7046538 4.2293797,8.984346 c 0,1.279693 0.0057,1.439801 0.028468,1.942411 0.023069,0.501628 0.1024854,0.844031 0.2189103,1.143634 0.1204496,0.30991 0.2814419,0.572799 0.543447,0.834705 0.2618088,0.262104 0.5246973,0.423489 0.8344112,0.543841 0.299799,0.116522 0.6423002,0.195939 1.1438304,0.21891 0.50261,0.02287 0.6631114,0.02847 1.9427054,0.02847 1.279791,0 1.4399,-0.0056 1.94251,-0.02847 0.501629,-0.02297 0.844424,-0.102388 1.144223,-0.21891 0.309812,-0.120352 0.572308,-0.281737 0.834117,-0.543841 0.262103,-0.261906 0.423095,-0.524795 0.543839,-0.834606 0.115837,-0.299702 0.195351,-0.642202 0.218911,-1.143634 0.02258,-0.502611 0.02847,-0.662817 0.02847,-1.94251 0,-1.2796922 -0.0059,-1.4402918 -0.02847,-1.9429018 C 13.601191,6.5398158 13.521677,6.1974128 13.40584,5.8978101 13.285096,5.5879 13.124104,5.3250114 12.862001,5.0631045 12.599897,4.8010012 12.337795,4.6400089 12.027589,4.5197556 11.727202,4.4032325 11.384602,4.3238161 10.882974,4.3008454 10.380364,4.2779727 10.220353,4.2723772 8.9402685,4.2723772 Z m -0.4227029,0.849136 c 0.1254562,-1.963e-4 0.265441,0 0.4227029,0 1.2580962,0 1.4072092,0.00451 1.9040282,0.027094 0.459417,0.021008 0.708758,0.097773 0.874856,0.1622685 0.219891,0.085405 0.376662,0.187497 0.541483,0.352416 0.164919,0.1649189 0.267011,0.3219845 0.352612,0.5418764 0.0645,0.1659006 0.141359,0.4152422 0.162269,0.8746592 0.02258,0.4967201 0.02749,0.6459325 0.02749,1.9034391 0,1.2575066 -0.0049,1.4067186 -0.02749,1.9034386 -0.021,0.459418 -0.09777,0.708759 -0.162269,0.87466 -0.0854,0.219891 -0.187693,0.376466 -0.352612,0.541287 -0.164918,0.164919 -0.321494,0.267011 -0.541483,0.352416 -0.165901,0.06479 -0.415439,0.141359 -0.874856,0.162366 -0.49672,0.02258 -0.645932,0.02749 -1.9040282,0.02749 -1.2581938,0 -1.407308,-0.0049 -1.9040281,-0.02749 C 6.5781978,12.796231 6.3288562,12.719464 6.162661,12.65497 5.9427692,12.569565 5.7857035,12.467473 5.6207846,12.302554 5.4558658,12.137634 5.3537731,11.980962 5.2681723,11.760972 5.2036773,11.595071 5.1268132,11.34573 5.1059039,10.886312 5.0833254,10.389593 5.0788101,10.24038 5.0788101,8.9820882 c 0,-1.258292 0.00451,-1.406719 0.027094,-1.9034391 C 5.1269114,6.6192322 5.2036773,6.3698905 5.2681723,6.2037936 5.3535767,5.9839017 5.4558658,5.8268361 5.6207846,5.6619172 5.7857035,5.4969983 5.9427692,5.3949056 6.162661,5.3093048 6.328758,5.2445153 6.5781978,5.1679458 7.0376147,5.1468401 7.4722939,5.1272068 7.6407468,5.1213169 8.5189399,5.1203353 Z m 2.9379121,0.7823832 a 0.56543626,0.56543626 0 1 0 0.565437,0.5652399 c 0,-0.3121679 -0.253269,-0.5654362 -0.565437,-0.5654362 z M 8.9416428,6.5645537 c -1.3363339,0 -2.4197923,1.0834583 -2.4197923,2.4197923 0,1.336334 1.0834584,2.419302 2.4197923,2.419302 1.3363342,0 2.4194982,-1.082968 2.4194982,-2.419302 0,-1.336334 -1.083262,-2.4197923 -2.4195963,-2.4197923 z m 0,0.8491361 c 0.867395,0 1.5706572,0.7031631 1.5706572,1.5706562 0,0.867395 -0.7032622,1.570656 -1.5706572,1.570656 -0.867493,0 -1.5706562,-0.703261 -1.5706562,-1.570656 0,-0.8674931 0.7031632,-1.5706562 1.5706562,-1.5706562 z"
     fill="#ffffff"
     id="path6224"
     style="fill:#5e5e5e;fill-opacity:0.63921571;stroke-width:0.0981659" /></g><style
   id="style7427"
   type="text/css">.st2{fill:#282828}</style></svg>
