<?xml version="1.0" encoding="UTF-8" standalone="no"?>
<!-- Generator: Adobe Illustrator 16.0.0, SVG Export Plug-In . SVG Version: 6.00 Build 0)  -->

<svg
   version="1.1"
   id="Capa_1"
   x="0px"
   y="0px"
   width="18"
   height="18"
   viewBox="0 0 18 18"
   xml:space="preserve"
   sodipodi:docname="koo1.svg"
   inkscape:version="1.1.2 (b8e25be833, 2022-02-05)"
   xmlns:inkscape="http://www.inkscape.org/namespaces/inkscape"
   xmlns:sodipodi="http://sodipodi.sourceforge.net/DTD/sodipodi-0.dtd"
   xmlns="http://www.w3.org/2000/svg"
   xmlns:svg="http://www.w3.org/2000/svg"><defs
   id="defs41">
	
	
</defs><sodipodi:namedview
   id="namedview39"
   pagecolor="#ffffff"
   bordercolor="#666666"
   borderopacity="1.0"
   inkscape:pageshadow="2"
   inkscape:pageopacity="0.0"
   inkscape:pagecheckerboard="0"
   showgrid="false"
   inkscape:zoom="26.268612"
   inkscape:cx="6.795182"
   inkscape:cy="14.846616"
   inkscape:window-width="1920"
   inkscape:window-height="1017"
   inkscape:window-x="-8"
   inkscape:window-y="-8"
   inkscape:window-maximized="1"
   inkscape:current-layer="layer1"
   width="18px"
   inkscape:showpageshadow="2"
   inkscape:deskcolor="#d1d1d1" />

<g
   id="g8">
</g>
<g
   id="g10">
</g>
<g
   id="g12">
</g>
<g
   id="g14">
</g>
<g
   id="g16">
</g>
<g
   id="g18">
</g>
<g
   id="g20">
</g>
<g
   id="g22">
</g>
<g
   id="g24">
</g>
<g
   id="g26">
</g>
<g
   id="g28">
</g>
<g
   id="g30">
</g>
<g
   id="g32">
</g>
<g
   id="g34">
</g>
<g
   id="g36">
</g>
<g
   inkscape:groupmode="layer"
   id="layer1"
   inkscape:label="Layer 1"><rect
     style="fill:#5e5e5e;fill-opacity:0.63921571;stroke:#000000;stroke-width:0.0350797;stroke-opacity:1"
     id="rect285"
     width="18.039141"
     height="17.968237"
     x="0.00011384286"
     y="-0.00031315887" /></g><g
   inkscape:groupmode="layer"
   id="layer2"
   inkscape:label="Layer 2"><path
     d="m -10.442064,-8.1459013 h -3.55152 v -2.1290657 c 0,-0.653066 0.822424,-0.804525 1.20628,-0.804525 0.381302,0 2.294278,0 2.294278,0 v -2.873191 l -2.629484,-0.01127 c -3.587569,0 -4.406404,2.142365 -4.406404,3.516038 v 2.3020747 h -2.603245 v 2.9601875 h 2.603245 c 0,3.800614 0,7.992188 0,7.992188 h 3.53533 c 0,0 0,-4.234614 0,-7.992188 h 3.003213 z"
     fill="#365899"
     id="path4"
     style="fill:#ffffff;stroke-width:0.0722818" /><path
     d="M 6.9411993,5.2678606 7.1675274,5.0359449 7.7207737,4.4329573 8.5757909,3.992313 8.7266764,3.7603935 8.8775568,3.3661346 V 3.041448 L 9.1290322,2.7863378 9.2799176,2.4616512 h 0.3017709 l 0.5532465,0.2551103 0.352066,0.556606 0.0503,0.6493692 0.82987,0.4174536 0.477803,0.3246865 0.427509,0.5102168 0.502951,1.0900174 0.201181,0.6957662 0.125738,0.8349071 0.125738,0.7885215 0.427508,0.347877 0.226328,0.602988 0.226328,0.5797932 0.07544,0.626178 -0.301771,0.556606 -0.427508,0.371069 -0.553247,0.09277 -0.10059,0.417453 -0.251476,0.579793 -0.528098,0.579797 -0.578394,0.463835 -0.779575,0.278305 -0.8801651,0.208725 H 8.3494628 L 7.2932652,14.173534 6.0861821,13.802462 5.3820504,13.477779 4.8790991,13.153093 4.5270332,12.897983 4.1749669,12.503724 3.9234915,12.179037 l 0.10059,-0.48703 0.427509,-0.231915 V 11.112214 L 4.6276236,10.555608 4.9796895,9.906239 5.3066077,9.3728278 5.6335263,8.9321828 5.9604444,8.6538818 6.2119198,8.4915388 V 8.0972758 L 6.2873626,7.633441 6.3628053,6.8913048 6.5136907,6.265111 6.7148711,5.6853141 Z"
     fill="#facd00"
     stroke="#000000"
     id="path2"
     style="fill:#ffffff;fill-opacity:1;stroke-width:0.0482997" /><path
     d="m 14.28026,10.283892 v -0.01392 C 14.22841,9.802983 14.069674,9.3514858 13.814527,8.9452548 c -0.07117,-0.112106 -0.152596,-0.218371 -0.243429,-0.317727 -0.03274,-0.03543 -0.07303,-0.06429 -0.118344,-0.08479 -0.04537,-0.02051 -0.09476,-0.03219 -0.145202,-0.03443 -0.0025,-0.0283 -0.0055,-0.05659 -0.0085,-0.08488 -0.01811,-0.175795 -0.03822,-0.347877 -0.05884,-0.514859 -0.0055,-0.04174 -0.01056,-0.08349 -0.01609,-0.1243087 l -0.01207,-0.089054 c 0,-0.00929 0,-0.019008 -0.004,-0.028299 -0.0025,-0.019933 -0.0055,-0.039889 -0.0085,-0.059833 0,-0.011142 -0.003,-0.022285 -0.005,-0.033389 -0.0025,-0.018082 -0.0055,-0.035702 -0.008,-0.053807 -0.0025,-0.018082 -0.0035,-0.022747 -0.0055,-0.034314 -0.002,-0.011605 -0.0055,-0.034776 -0.0085,-0.052415 -0.003,-0.01762 -0.0035,-0.022246 -0.0055,-0.033389 -0.003,-0.018082 -0.006,-0.036164 -0.0096,-0.054266 0,-0.00975 -0.003,-0.019933 -0.005,-0.029687 -0.004,-0.021783 -0.0075,-0.043135 -0.01157,-0.064009 0,-0.00648 -0.0025,-0.01253 -0.0035,-0.018545 -0.005,-0.027374 -0.01006,-0.05427 -0.01559,-0.081174 l -0.0045,-0.022246 c -0.004,-0.01947 -0.0075,-0.038964 -0.01157,-0.057983 l -0.006,-0.029225 c -0.0035,-0.016694 -0.007,-0.033389 -0.01107,-0.049632 -0.004,-0.016232 -0.0045,-0.020858 -0.0065,-0.031538 l -0.01056,-0.046385 c -0.0025,-0.010217 -0.005,-0.020396 -0.007,-0.030613 -0.002,-0.010217 -0.0075,-0.032001 -0.01157,-0.046366 -0.004,-0.014381 -0.0045,-0.019008 -0.0065,-0.028762 -0.0045,-0.01762 -0.0085,-0.034777 -0.01308,-0.052412 0,-0.0074 -0.0035,-0.014844 -0.0055,-0.022747 -0.006,-0.024598 -0.01258,-0.049165 -0.01911,-0.073285 l -0.003,-0.011605 c -0.0055,-0.020396 -0.01056,-0.040818 -0.0161,-0.060763 l -0.0075,-0.025523 c -0.004,-0.015306 -0.0085,-0.030613 -0.01258,-0.046382 l -0.008,-0.028299 c -0.0045,-0.014381 -0.0085,-0.028299 -0.01258,-0.042673 -0.004,-0.014381 -0.0055,-0.018545 -0.0085,-0.028299 -0.003,-0.00975 -0.0085,-0.027837 -0.01258,-0.041743 -0.004,-0.013918 -0.006,-0.018082 -0.0085,-0.027374 l -0.01408,-0.043602 -0.0075,-0.024135 c -0.006,-0.018545 -0.01258,-0.03709 -0.01861,-0.055195 0,-0.00386 0,-0.0074 -0.0035,-0.011142 -0.0075,-0.021822 -0.01459,-0.043139 -0.02213,-0.064475 l -0.0075,-0.021321 c -0.0055,-0.014381 -0.01056,-0.028762 -0.01559,-0.043135 l -0.0091,-0.025061 c -0.005,-0.01253 -0.0096,-0.025523 -0.01459,-0.038516 -0.005,-0.012993 -0.0065,-0.016694 -0.0096,-0.025523 -0.003,-0.00883 -0.0096,-0.024598 -0.01459,-0.03709 l -0.0096,-0.025061 -0.01509,-0.037552 c -0.003,-0.0074 -0.0065,-0.015306 -0.0096,-0.02321 -0.003,-0.0079 -0.01157,-0.027837 -0.0176,-0.042206 0,-0.00555 -0.0045,-0.011605 -0.007,-0.017157 -0.008,-0.01947 -0.0166,-0.038516 -0.02464,-0.057516 l -0.0075,-0.016694 -0.01811,-0.040814 -0.01006,-0.021822 -0.01609,-0.034776 c -0.0035,-0.0079 -0.0075,-0.015306 -0.01107,-0.023172 l -0.01559,-0.032463 c -0.0035,-0.0079 -0.0075,-0.015306 -0.01107,-0.02321 l -0.0161,-0.032 c -0.0035,-0.0074 -0.007,-0.014844 -0.01107,-0.022246 -0.004,-0.0074 -0.01157,-0.022246 -0.0171,-0.033851 -0.0055,-0.011605 -0.0065,-0.01253 -0.01006,-0.019008 l -0.02565,-0.046385 c -0.0016,-0.00386 -0.0035,-0.00752 -0.0055,-0.011142 l -0.02364,-0.043135 -0.01056,-0.018545 -0.01761,-0.031075 -0.01207,-0.020858 -0.0171,-0.028762 -0.01207,-0.020396 c -0.0055,-0.00929 -0.01107,-0.018545 -0.0171,-0.027837 l -0.01207,-0.020395 c -0.006,-0.00929 -0.01207,-0.018545 -0.0176,-0.027837 l -0.01207,-0.019008 -0.02062,-0.034777 c 0,-0.00463 -0.0055,-0.00883 -0.008,-0.012993 -0.01006,-0.014844 -0.01962,-0.029687 -0.02967,-0.046386 l -0.01056,-0.015306 -0.01961,-0.028762 -0.01258,-0.01762 -0.01811,-0.025523 -0.01308,-0.018082 -0.0176,-0.024135 -0.01358,-0.018082 -0.01811,-0.023673 -0.01308,-0.017157 c -0.0065,-0.00883 -0.01358,-0.017157 -0.02012,-0.025523 -0.0065,-0.00837 -0.0075,-0.00975 -0.01157,-0.014844 l -0.03068,-0.038015 -0.0091,-0.011142 -0.02263,-0.026911 -0.01358,-0.015769 -0.01861,-0.021784 -0.01459,-0.016232 -0.01811,-0.020396 -0.01459,-0.016232 -0.01811,-0.019933 -0.01459,-0.015306 -0.02213,-0.020396 -0.01308,-0.013918 -0.02464,-0.025061 -0.01056,-0.01068 -0.03018,-0.03015 -0.01358,-0.01253 -0.02012,-0.01947 -0.01459,-0.013456 -0.01911,-0.018082 -0.01509,-0.013918 -0.01911,-0.016694 -0.01509,-0.013456 -0.01911,-0.017157 -0.01459,-0.01253 -0.02213,-0.018545 -0.01207,-0.010217 -0.03369,-0.027374 -0.01207,-0.00929 -0.03671,-0.029225 -0.02012,-0.015306 -0.01559,-0.011605 -0.01911,-0.014381 -0.01559,-0.011142 -0.01962,-0.013918 -0.01559,-0.011142 -0.02112,-0.014381 -0.01408,-0.00975 -0.03018,-0.019933 -0.01258,-0.00883 -0.02615,-0.016694 -0.01459,-0.00929 -0.02062,-0.01253 -0.01559,-0.00975 -0.02012,-0.012068 -0.01559,-0.00929 -0.02012,-0.011605 -0.01559,-0.00883 -0.02062,-0.011605 -0.01509,-0.00837 -0.02414,-0.013456 -0.01107,-0.00601 -0.0347,-0.018082 -0.01358,-0.00652 -0.02213,-0.011142 -0.01509,-0.0074 -0.02062,-0.010217 -0.0161,-0.0074 -0.01961,-0.00929 -0.01509,-0.00787 -0.02062,-0.00929 -0.03772,-0.016232 -0.01308,-0.00555 -0.0347,-0.014381 -0.01107,-0.00463 -0.02465,-0.00975 -0.01459,-0.00555 -0.02112,-0.00833 -0.01559,-0.00555 -0.02012,-0.0074 -0.01559,-0.00555 -0.02062,-0.0074 -0.01509,-0.00509 -0.02163,-0.0074 -0.01408,-0.00463 -0.03772,-0.011605 -0.03269,-0.010217 -0.0085,-0.00231 c 0.03672,-0.186842 0.03123,-0.3788224 -0.0169,-0.5635507 C 10.599833,3.0572132 10.510257,2.8838509 10.384922,2.733078 10.157588,2.454773 9.8356982,2.2761943 9.5646077,2.2761943 9.4985197,2.2746543 9.4328846,2.2863723 9.372128,2.3103923 9.311372,2.3344123 9.2569522,2.3702023 9.2125419,2.4153543 9.1319689,2.4964623 9.0852448,2.601351 9.0807686,2.7112827 8.9920986,2.7222707 8.9089102,2.7572637 8.841766,2.8118339 8.774627,2.8664079 8.726535,2.9381091 8.703565,3.0178792 8.685383,3.0791042 8.681947,3.1432599 8.693506,3.2058384 8.705066,3.2684204 8.731328,3.3279072 8.770457,3.3801337 8.6618198,3.4729007 8.5642473,3.617154 8.5536854,3.8513945 c -0.158495,0.050862 -0.3125188,0.1128927 -0.4607036,0.185534 -0.034202,0.016694 -0.067898,0.034314 -0.10059,0.052412 -0.032693,0.018082 -0.056834,0.031075 -0.084999,0.046386 -0.020623,0.011605 -0.041242,0.024135 -0.061863,0.036627 -0.061697,0.03709 -0.1230571,0.077303 -0.18408,0.1205959 -0.020117,0.014381 -0.04074,0.028762 -0.060857,0.046386 -0.037722,0.027837 -0.074939,0.05705 -0.1121578,0.087662 -0.03722,0.030613 -0.084496,0.070506 -0.126241,0.1080772 -0.058342,0.053341 -0.1161817,0.1094652 -0.1725123,0.1692986 -0.027162,0.028762 -0.053815,0.058442 -0.080472,0.088592 -0.026656,0.03015 -0.041242,0.046385 -0.06136,0.071897 l -0.033194,0.040352 c -0.032693,0.040818 -0.064881,0.082565 -0.096567,0.1257006 -0.031685,0.043135 -0.068402,0.096943 -0.1005904,0.1474996 -0.024143,0.03709 -0.047277,0.074677 -0.070916,0.113178 -0.017099,0.028762 -0.034202,0.057979 -0.050295,0.087662 -0.031183,0.055662 -0.061863,0.1127115 -0.091537,0.1720822 -0.056331,0.1119404 -0.1089747,0.2306819 -0.1579269,0.3562284 -0.030176,0.076373 -0.058679,0.1556925 -0.085502,0.2379495 -0.018106,0.054733 -0.035711,0.1113196 -0.05281,0.1688359 -0.017099,0.057516 -0.031183,0.110857 -0.045769,0.1679067 -0.00453,0.01762 -0.00906,0.035239 -0.013077,0.053341 -0.015088,0.060762 -0.029172,0.1233796 -0.042751,0.185534 -0.011568,0.054733 -0.022634,0.1103944 -0.032692,0.1669622 -0.020786,0.113178 -0.038892,0.2303888 -0.054318,0.3515901 -0.017437,0.1394764 -0.031522,0.2843311 -0.042248,0.4346144 -0.00604,0.08442 -0.011066,0.166981 -0.01559,0.247688 -0.00453,0.08071 -0.00855,0.160489 -0.012069,0.238413 -0.00351,0.07792 -0.00604,0.154458 -0.00855,0.229135 v 0.05102 c -0.078461,0 -0.3168596,0 -0.9556076,0.962925 C 4.7171764,9.960082 4.4083646,10.556114 4.281118,10.958724 4.230823,11.111325 4.184552,11.307064 4.234344,11.449463 h -0.00503 l -0.025146,0.0046 -0.011066,0.0023 -0.023136,0.0046 -0.01056,0.0027 -0.024645,0.006 -0.00805,0.0023 c -0.010565,0.0027 -0.020974,0.006 -0.031183,0.0098 h -0.00503 l -0.025146,0.0093 -0.00956,0.0039 -0.020117,0.0083 -0.00956,0.0046 -0.019616,0.0098 -0.00855,0.0042 -0.025146,0.01484 c -0.00855,0.0056 -0.017099,0.01114 -0.025146,0.01716 l -0.00704,0.0051 -0.016597,0.01345 -0.00805,0.0069 -0.022634,0.02086 c -0.00503,0.0056 -0.01056,0.01114 -0.015594,0.01716 l -0.00453,0.0056 c -0.00654,0.0079 -0.013077,0.01577 -0.019114,0.02414 l -0.00401,0.006 c -0.00453,0.0065 -0.00905,0.01346 -0.013077,0.0204 -0.00401,0.007 -0.00351,0.0065 -0.00553,0.0093 -0.00201,0.0027 -0.00704,0.01253 -0.010059,0.01947 -0.00301,0.007 -0.00351,0.007 -0.00553,0.01022 l -0.015088,0.02645 -0.00401,0.0098 c -0.00401,0.01068 -0.00805,0.02178 -0.011568,0.03339 -0.00351,0.0116 -0.00654,0.02645 -0.00906,0.04082 -0.00251,0.01438 -0.00301,0.03015 -0.00351,0.04638 0.00545,0.142168 0.044592,0.281501 0.1146729,0.408177 0.043803,0.08757 0.094222,0.172221 0.1508854,0.253252 0.025146,0.03524 0.050295,0.07097 0.079969,0.107148 0.1834258,0.228762 0.3979244,0.434846 0.6382447,0.61319 0.073431,0.05599 0.1512224,0.111184 0.2333692,0.165589 0.1445635,0.09518 0.2946692,0.182986 0.4496387,0.262995 0.5406722,0.278305 1.224183,0.514859 2.0620998,0.640559 0.1341219,0.0204 0.2736055,0.03775 0.4184554,0.05195 0.3202492,0.03142 0.642103,0.04689 0.9641478,0.04639 0.3772132,0.0019 0.7539238,-0.02568 1.1261081,-0.0821 0.132276,-0.02086 0.259523,-0.04639 0.382243,-0.07328 0.795167,-0.181363 1.388649,-0.513934 1.828228,-0.946227 0.01911,-0.01854 0.03772,-0.03759 0.05583,-0.05659 0.02967,-0.03061 0.05884,-0.06169 0.08701,-0.09277 l 0.04426,-0.05056 c 0.04376,-0.05149 0.0855,-0.103435 0.125738,-0.157239 0.02213,-0.02922 0.04376,-0.05891 0.06438,-0.08906 0.08978,-0.127971 0.170399,-0.261233 0.241416,-0.398897 0.01811,-0.03478 0.03571,-0.06958 0.0503,-0.105293 0.01107,-0.02271 0.02163,-0.04638 0.03219,-0.06818 0.02213,-0.04917 0.04376,-0.09833 0.06387,-0.148425 0.01444,-0.03555 0.02852,-0.07171 0.04225,-0.10854 0.01258,-0.03293 0.02464,-0.06586 0.03621,-0.09926 l 0.03168,-0.09277 c 0.01665,0.0023 0.0335,0.0035 0.0503,0.0031 0.04074,9.3e-5 0.08123,-0.0062 0.119702,-0.01854 0.20626,-0.06266 0.396527,-0.163319 0.559282,-0.295928 0.181767,-0.150561 0.315954,-0.343702 0.388278,-0.558923 0.07318,-0.225146 0.09596,-0.461704 0.06689,-0.695292 z M 9.388052,3.4701596 c 0.0023,9.26e-5 0.00458,-3.855e-4 0.00639,-0.00193 0.00188,-0.00116 0.00305,-0.00308 0.00351,-0.00528 4.026e-4,-0.00193 0,-0.00428 -0.00117,-0.00609 -0.00117,-0.00193 -0.00301,-0.00308 -0.00523,-0.00389 C 9.1647201,3.355559 8.9333623,3.2609374 8.9836577,3.0907097 c 0.024143,-0.082099 0.10059,-0.1150325 0.1976595,-0.1150325 0.1492763,0.01041 0.2943774,0.050287 0.4254968,0.116887 0.0015,3.855e-4 0.00305,3.855e-4 0.00453,0 0.00196,1.54e-5 0.0038,-3.856e-4 0.00543,-0.00154 0.00159,-0.00116 0.0028,-0.00231 0.00355,-0.00409 7.107e-4,-0.00154 8.361e-4,-0.00347 4.026e-4,-0.00521 -4.599e-4,-0.00193 -0.00142,-0.00347 -0.00288,-0.00451 C 9.4533789,2.9218352 9.275334,2.7576375 9.4302433,2.594365 c 0.017354,-0.016193 0.038274,-0.028723 0.06136,-0.036743 0.023136,-0.00802 0.04783,-0.011297 0.072425,-0.00964 0.3148474,0 0.9344837,0.4847127 0.8147817,1.189281 l -0.01459,-0.0027 -0.02012,-0.00386 -0.01459,-0.0027 -0.02062,-0.00386 -0.03671,-0.00601 h -0.01157 l -0.03319,-0.00509 h -0.0065 L 10.19326,3.709183 H 10.1812 l -0.02163,-0.0027 H 10.11229 L 10.09167,3.704173 H 10.0454 l -0.0267,-0.00231 H 9.5821416 l -0.064378,0.0027 h -0.00453 l -0.058845,0.00386 h -0.00654 l -0.055325,0.00416 h -0.00905 l -0.053816,0.00509 h -0.00604 l -0.053816,0.00601 h -0.00401 L 9.2109706,3.730163 9.1355276,3.74038 9.0585766,3.75291 9.0379536,3.75677 C 8.9876586,3.76514 8.9418896,3.77439 8.8920978,3.785069 l -0.024645,0.00555 -0.010565,0.00231 C 8.9147309,3.5062856 9.1682185,3.4826322 9.3880081,3.4701095 Z M 4.7030714,10.664241 C 4.9095027,10.220766 5.1554459,9.793805 5.438386,9.3877638 c 0.3304391,-0.473578 0.5230693,-0.634992 0.5894588,-0.668388 0.00389,-0.0023 0.0081,-0.0043 0.012575,-0.0056 0.080975,0.0039 0.1860921,0.08859 0.2776294,0.223568 0.00301,0.0051 0.00654,0.0098 0.00956,0.01438 0.2705876,0.41467 0.3741956,1.1503142 0.078963,1.6637812 -0.05539,0.0975 -0.1229062,0.188734 -0.2011804,0.271808 -0.1912322,0.197409 -0.4334334,0.347087 -0.7041317,0.435077 -0.06136,0.02086 -0.1181938,0.03663 -0.167483,0.0487 -0.391296,0.09509 -0.7131849,0.05612 -0.825846,-0.0031 -0.00956,-0.02506 -0.042751,-0.177187 0.1951453,-0.703639 z m 8.3414376,-0.03431 c -0.0336,0.360589 -0.102301,0.717604 -0.205205,1.066823 -0.02847,0.09495 -0.05965,0.187716 -0.09355,0.278305 -0.148069,0.405389 -0.380231,0.780309 -0.683511,1.103928 -0.334814,0.342637 -0.752968,0.607163 -1.220159,0.771823 -0.545199,0.197131 -1.2025572,0.29732 -1.9544692,0.29732 C 8.5271647,14.148901 8.1670064,14.12889 7.8092971,14.08783 7.6674658,14.07113 7.5276456,14.0512 7.3908426,14.02799 6.8848487,13.94459 6.392384,13.802286 5.9252427,13.604506 5.2890093,13.331306 4.7473312,12.949107 4.3992888,12.528407 4.0789087,12.140641 4.0577853,11.894807 4.069353,11.854452 c 0.026656,-0.0872 0.082484,-0.154455 0.5260869,-0.154455 h 0.2394048 c 0.3294328,0 0.5799028,-0.04129 0.7846037,-0.129876 0.448331,-0.14676 0.821767,-0.441574 1.0481503,-0.827486 C 7.0246943,10.121565 6.8894005,9.2848028 6.5810912,8.8121538 6.5160093,8.7076048 6.4297885,8.6154858 6.3271011,8.5408078 6.3341412,8.2778138 6.345709,7.9953368 6.3668337,7.693845 6.4568618,6.3997602 6.8426256,5.4210663 7.5130594,4.7781898 7.8336606,4.4720019 8.2288597,4.2407918 8.6658236,4.1037714 8.8563819,4.0437298 9.0527843,4.0007064 9.2522549,3.9752871 c 0.1549594,-0.020164 0.3112763,-0.030381 0.4677445,-0.030613 0.2872866,-0.00154 0.5731136,0.037398 0.8474736,0.1159578 0.366551,0.1083008 0.701315,0.2925086 0.978743,0.5385161 0.72425,0.6340629 1.189983,1.7161919 1.385128,3.2166844 0.03168,0.244905 0.06388,0.512538 0.09003,0.793623 0.05935,0.636383 0.09003,1.3441982 0.02314,2.0204716 z m 0.953092,-0.08952 c 0,0.05149 -0.006,0.101118 -0.01308,0.149358 -0.0068,0.04684 -0.0164,0.09328 -0.02867,0.139149 -0.02877,0.108447 -0.0765,0.211836 -0.14133,0.306134 -0.02555,0.03682 -0.05377,0.07203 -0.0845,0.105289 -0.01509,0.01623 -0.03118,0.03246 -0.04778,0.04639 -0.0166,0.01392 -0.0342,0.03108 -0.0503,0.04638 -0.0161,0.01531 -0.0342,0.02737 -0.0503,0.04082 -0.05271,0.03844 -0.108739,0.07292 -0.167483,0.102973 -0.03772,0.01947 -0.07645,0.03709 -0.115176,0.05287 -0.03873,0.01577 -0.07846,0.03015 -0.118194,0.04268 0.01157,-0.0436 0.02213,-0.08767 0.03269,-0.131731 0.0255,-0.110672 0.04778,-0.222643 0.06689,-0.335817 0.004,-0.02552 0.0085,-0.05102 0.01207,-0.07654 0.01056,-0.06493 0.01961,-0.130801 0.02817,-0.196665 0.0055,-0.04638 0.01056,-0.09277 0.01559,-0.139152 0.005,-0.04638 0.0096,-0.09277 0.01308,-0.139149 0.006,-0.06958 0.01107,-0.139152 0.01559,-0.208728 0.0025,-0.04638 0.005,-0.09277 0.007,-0.139149 0.002,-0.04639 0.0035,-0.09277 0.0045,-0.139152 0,-0.02321 0,-0.04638 0,-0.07004 0,-0.04638 0,-0.09277 0,-0.139149 0,-0.09277 0,-0.185534 0,-0.278305 0,-0.04638 0,-0.09277 -0.004,-0.1391492 -0.004,-0.04639 -0.0035,-0.09277 -0.0055,-0.139152 -0.002,-0.04638 -0.004,-0.09277 -0.0065,-0.139149 -0.007,-0.126163 -0.0161,-0.251401 -0.02615,-0.375243 h 0.003 c 0.0042,0.0027 0.0081,0.0062 0.01157,0.0098 0.03722,0.04036 0.07393,0.08395 0.109643,0.130802 0.02716,0.03524 0.05331,0.0719 0.07947,0.110394 l 0.02565,0.03896 c 0.05744,0.08994 0.109191,0.182843 0.154909,0.278301 0.02314,0.04638 0.04527,0.09741 0.06589,0.147499 0.03118,0.07514 0.05935,0.1524622 0.0845,0.2319162 0.02465,0.07793 0.04677,0.157242 0.06488,0.23702 0.02469,0.107241 0.04315,0.215638 0.05532,0.324687 0.0035,0.02784 0.006,0.05566 0.0075,0.08303 0.0015,0.05705 0.0025,0.11039 0.001,0.161877 z"
     fill="#383838"
     id="path4-6"
     style="stroke-width:0.0482997" /><path
     d="m 8.5144407,15.310534 c -0.064845,-0.0012 -0.1278047,-0.02032 -0.1806549,-0.05501 -0.05285,-0.03466 -0.093131,-0.08321 -0.1155834,-0.139337 l -0.297244,-0.742136 c -0.143844,-0.01457 -0.2833277,-0.03188 -0.4184555,-0.05195 0.1373059,0.352515 0.3068002,0.785742 0.3545805,0.901699 0.016095,0.03852 0,0.08674 -0.077454,0.08674 H 7.3214405 c 0,0 -0.1383114,0.281548 0.2368901,0.271346 1.0390971,-0.02876 0.926436,0.738428 1.2538425,0.593708 0.3148474,-0.139149 -0.2846554,-0.594637 -0.2756023,-0.593708 1.197009,0.139149 0.8147657,-0.272275 0.8147657,-0.272275 0,0 -0.608556,7.71e-4 -0.8368958,7.71e-4 z"
     fill="#383838"
     id="path6"
     style="fill:#ffffff;fill-opacity:1;stroke-width:0.0482997" /><path
     d="m 10.760104,14.93297 c -0.02932,1.43e-4 -0.05804,-0.0079 -0.08233,-0.02306 -0.02434,-0.01511 -0.04315,-0.0367 -0.05397,-0.06183 -0.05482,-0.127092 -0.15843,-0.397509 -0.231358,-0.583972 -0.12272,0.0283 -0.251476,0.05241 -0.382243,0.07329 0.07896,0.201307 0.188607,0.480071 0.19766,0.506974 0.02163,0.06169 0.006,0.08488 -0.112158,0.08488 H 9.6515985 c 0,0 -0.1282527,0.264387 0.3631315,0.264387 1.002885,0 0.79416,0.777391 1.179924,0.578405 0.246446,-0.127093 -0.21124,-0.485638 -0.247955,-0.528311 -0.02112,-0.02413 -0.004,-0.05798 0.0503,-0.05056 1.024511,0.144253 0.773036,-0.263924 0.773036,-0.263924 0,0 -0.709161,0.0039 -1.009926,0.0039 z"
     fill="#383838"
     id="path8"
     style="fill:#ffffff;fill-opacity:1;stroke-width:0.0482997" /><path
     d="M 9.1997471,7.0157987 C 9.3203547,6.9895428 9.3949927,6.8781306 9.366526,6.7669343 9.3381103,6.655738 9.2173002,6.586875 9.0966926,6.6131155 8.9761351,6.6393714 8.9014469,6.7507798 8.9299137,6.8619761 8.9583795,6.9731685 9.0791895,7.0420507 9.1997471,7.0157987 Z"
     fill="#383838"
     id="path10"
     style="stroke-width:0.0482997" /><path
     d="m 11.634837,6.9889876 c 0.105418,-0.060069 0.13801,-0.1875698 0.07288,-0.2847552 -0.06513,-0.097185 -0.203343,-0.1272776 -0.308711,-0.067205 -0.105419,0.060072 -0.13801,0.1875543 -0.07288,0.2847513 0.06513,0.097174 0.203343,0.1272737 0.308712,0.067209 z"
     fill="#383838"
     id="path12"
     style="stroke-width:0.0482997" /><path
     d="M 10.988443,7.5357582 10.420612,7.3186824 c -0.01916,-0.00648 -0.03943,-0.00979 -0.05985,-0.00975 -0.02057,-9.25e-5 -0.04099,0.00308 -0.06035,0.00975 L 9.7325735,7.5357582 c -0.018006,0.00505 -0.034001,0.014844 -0.04607,0.028145 -0.012019,0.01334 -0.019616,0.029649 -0.021727,0.046894 -0.00217,0.017234 0.00125,0.034699 0.00971,0.050233 0.0085,0.015499 0.021677,0.028377 0.037973,0.037051 l 0.5763835,0.3446276 c 0.02077,0.01369 0.04592,0.02055 0.07142,0.01947 0.02535,0.0012 0.05035,-0.0059 0.07092,-0.01947 l 0.577388,-0.3446276 c 0.01635,-0.00867 0.02952,-0.021552 0.03802,-0.037051 0.0084,-0.015538 0.01182,-0.032964 0.0097,-0.050233 -0.0022,-0.017273 -0.0097,-0.033543 -0.02178,-0.046894 -0.01202,-0.013301 -0.02806,-0.023094 -0.04607,-0.028145 z"
     fill="#383838"
     id="path14"
     style="stroke-width:0.0482997" /></g></svg>
