<?xml version="1.0" encoding="UTF-8" standalone="no"?>
<svg
   shape-rendering="geometricPrecision"
   text-rendering="geometricPrecision"
   image-rendering="optimizeQuality"
   fill-rule="evenodd"
   clip-rule="evenodd"
   viewBox="0 0 30 30"
   version="1.1"
   id="svg4"
   sodipodi:docname="ongoing.svg"
   width="30"
   height="30"
   inkscape:version="1.1.2 (b8e25be833, 2022-02-05)"
   xmlns:inkscape="http://www.inkscape.org/namespaces/inkscape"
   xmlns:sodipodi="http://sodipodi.sourceforge.net/DTD/sodipodi-0.dtd"
   xmlns="http://www.w3.org/2000/svg"
   xmlns:svg="http://www.w3.org/2000/svg">
  <defs
     id="defs8" />
  <sodipodi:namedview
     id="namedview6"
     pagecolor="#ffffff"
     bordercolor="#666666"
     borderopacity="1.0"
     inkscape:pageshadow="2"
     inkscape:pageopacity="0.0"
     inkscape:pagecheckerboard="0"
     showgrid="false"
     inkscape:zoom="12.051751"
     inkscape:cx="32.111516"
     inkscape:cy="14.769638"
     inkscape:window-width="1920"
     inkscape:window-height="1017"
     inkscape:window-x="-8"
     inkscape:window-y="-8"
     inkscape:window-maximized="1"
     inkscape:current-layer="layer2" />
  <g
     inkscape:groupmode="layer"
     id="layer1"
     inkscape:label="Layer 1">
    <rect
       style="fill:#ffffff;fill-opacity:1;fill-rule:evenodd;stroke:#0c7a59;stroke-width:0.0281141;stroke-linecap:round;stroke-linejoin:round;paint-order:stroke fill markers"
       id="rect1031"
       width="29.614033"
       height="30.057001"
       x="0.19298363"
       y="-0.028500557" />
  </g>
  <g
     inkscape:groupmode="layer"
     id="layer2"
     inkscape:label="Layer 2">
    <path
       fill-rule="nonzero"
       d="m 2.6046836,18.022142 c 0.02654,-4.569088 0.05135,-9.1364475 0.07847,-13.6876807 0,-0.3029548 0.216946,-0.555801 0.502552,-0.6151249 v -0.00116 c 1.669211,-0.3473036 4.284096,-0.2591818 6.062357,0.4198746 1.2283974,0.4699832 2.3431274,1.2193067 3.1566724,2.2986551 0.822778,-1.0067776 1.920198,-1.7313349 3.155519,-2.19959 1.687674,-0.6387393 4.226975,-0.7930964 6.058318,-0.5252752 0.316186,0.045501 0.542364,0.3162018 0.542364,0.6254921 h 0.0012 v 4.7965968 a 8.5537684,8.5386017 0 0 0 -1.16839,-0.080058 L 20.89335,9.0544476 V 4.8983228 c -1.466112,-0.1393822 -3.567484,0.02131 -4.888197,0.5206676 -1.234166,0.4671033 -2.297545,1.2348575 -2.98877,2.3349404 v 6.8354902 c -0.735653,1.973238 -0.735653,4.197594 0.105011,6.219213 0.178865,0.430241 0.391771,0.843205 0.635257,1.234282 -0.34215,0.114616 -0.683147,0.247087 -1.024721,0.397988 a 0.63560414,0.63447716 0 0 1 -0.360036,0.104248 c -0.128668,0.0023 -0.253872,-0.03456 -0.360038,-0.104248 -1.700945,-0.750475 -3.3961204,-1.047671 -5.0912954,-1.036728 -1.739026,0.01095 -4.08446,0.346152 -5.852335,0.852421 -0.06347,0.02188 -0.13270595,0.03341 -0.20482895,0.03341 -0.350229,0 -0.634104,-0.283372 -0.634104,-0.632404 V 7.080637 c 0,-0.3496076 0.283875,-0.6329796 0.634104,-0.6329796 H 1.4980546 V 20.828793 c 1.601103,-0.412386 3.798254,-0.676176 5.417844,-0.685968 1.494962,-0.0086 2.990501,0.19813 4.4877724,0.7044 -0.931828,-0.75278 -1.9698194,-1.305126 -3.0764724,-1.664524 -1.394567,-0.455008 -3.494784,-0.60591 -5.038213,-0.473439 -0.349075,0.02765 -0.655453,-0.229808 -0.684302,-0.578264 -0.0023,-0.03744 -0.0023,-0.07372 0,-0.108856 z M 21.176026,10.672321 c 1.885003,0 3.685189,0.745292 5.01571,2.074607 1.841152,1.836734 2.525454,4.544321 1.784608,7.031315 a 7.0494592,7.0369599 0 0 1 -0.721227,1.628238 l 2.426788,2.667269 c 0.125782,0.13823 0.117128,0.352487 -0.02077,0.479199 l -2.017709,1.838463 a 0.33695789,0.33636044 0 0 1 -0.478319,-0.02131 l -2.305622,-2.56302 c -1.113577,0.676753 -2.379476,1.02924 -3.683458,1.02924 -1.884425,0 -3.683458,-0.743564 -5.01571,-2.074031 A 7.084309,7.0717479 0 0 1 14.62035,20.46306 c -1.099727,-2.643652 -0.474854,-5.704878 1.53997,-7.716128 0.65199,-0.650834 1.432648,-1.177261 2.303892,-1.536084 0.836047,-0.347304 1.752296,-0.538523 2.711818,-0.538523 z m 4.002529,3.087144 c -1.614974,-1.613838 -4.063689,-2.098221 -6.167944,-1.227946 -3.775775,1.559698 -4.643557,6.419646 -1.838268,9.218234 1.619013,1.611534 4.063113,2.098796 6.169677,1.228521 2.117525,-0.878338 3.494206,-2.93509 3.494206,-5.22453 0,-0.766601 -0.151169,-1.496918 -0.42639,-2.160424 A 5.6763558,5.6662911 0 0 0 25.178555,13.759465 Z M 23.245663,9.3556776 V 6.4476574 h 0.634104 c 0.350806,0 0.634104,0.283372 0.634104,0.6329796 V 9.8135656 C 24.104791,9.6281065 23.680131,9.4749013 23.245663,9.3556776 Z M 14.15357,12.494082 a 0.45437388,0.45356823 0 0 1 0.182904,-0.536219 c 0.166748,-0.106552 0.345035,-0.208497 0.531978,-0.306986 -0.258489,0.266669 -0.496783,0.548313 -0.714882,0.843205 z M 14.834987,9.2283906 A 0.45547014,0.45466255 0 0 1 14.206653,9.0884324 C 14.071638,8.8764792 14.135113,8.5959867 14.346859,8.4617882 14.995387,8.051129 15.826243,7.6911542 16.663445,7.4210291 17.554883,7.1347772 18.464208,6.9481663 19.18082,6.907849 c 0.250411,-0.013247 0.465048,0.1779716 0.478318,0.4279381 0.01327,0.2493905 -0.178287,0.4636475 -0.42812,0.4768946 -0.641605,0.036285 -1.468998,0.2073455 -2.290045,0.4717109 -0.764502,0.2453589 -1.52035,0.5730799 -2.105986,0.943998 z M 10.455688,15.46488 c 0.210599,0.136503 0.270029,0.418148 0.13386,0.627221 -0.136168,0.209073 -0.418313,0.269549 -0.6277574,0.133047 -0.579868,-0.376102 -1.342062,-0.710159 -2.118681,-0.963005 -0.835471,-0.271854 -1.680173,-0.449248 -2.330433,-0.485534 -0.249833,-0.01325 -0.441969,-0.227504 -0.428121,-0.476895 0.01327,-0.24939 0.227331,-0.441185 0.477742,-0.427361 0.729883,0.04032 1.658248,0.233263 2.561803,0.526426 0.844125,0.275309 1.682481,0.643924 2.3315874,1.066101 z m -0.04846,-3.507017 a 0.4536238,0.45281949 0 0 1 0.138475,0.625493 c -0.134443,0.210225 -0.415433,0.272429 -0.6266094,0.137654 -0.582176,-0.370342 -1.339754,-0.698639 -2.109449,-0.946878 -0.823931,-0.264941 -1.654209,-0.437153 -2.296968,-0.473438 -0.249833,-0.01325 -0.441969,-0.226928 -0.428121,-0.476895 0.01327,-0.249391 0.227331,-0.441185 0.477742,-0.427938 0.718343,0.04032 1.631707,0.22808 2.524299,0.515484 0.837202,0.269549 1.669211,0.631827 2.3206254,1.046518 z m -0.01097,-3.4960748 a 0.45414309,0.45333785 0 0 1 0.140207,0.6266442 C 10.402028,9.3003855 10.121039,9.3625891 9.9087076,9.2283906 9.3224936,8.8574725 8.5666456,8.5297515 7.8027206,8.2843926 6.9816746,8.0200272 6.1542816,7.8489671 5.5126766,7.8126817 5.2628436,7.7994346 5.0707076,7.5851776 5.0845556,7.3357871 c 0.01327,-0.2499665 0.227331,-0.4411852 0.477742,-0.4279381 0.717189,0.040317 1.626514,0.2269282 2.517375,0.5131801 0.837779,0.2701251 1.668634,0.6300999 2.3165864,1.0407591 z M 11.748129,19.520213 V 7.7355031 C 11.082868,6.566305 10.010257,5.7841518 8.7962856,5.3205043 7.4230666,4.795229 5.2888076,4.6760054 3.9432836,4.8678 l -0.07155,12.539218 c 1.467844,-0.05299 3.494784,0.133621 4.846655,0.573079 1.076073,0.350759 2.0950254,0.861635 3.0297364,1.540116 z"
       id="path2"
       style="fill:#0c7a59;fill-opacity:1;stroke-width:0.0576471" />
  </g>
</svg>
