<?xml version="1.0" encoding="UTF-8" standalone="no"?>
<svg
   id="Layer_1"
   data-name="Layer 1"
   viewBox="0 0 29.999999 30.000001"
   version="1.1"
   sodipodi:docname="repair-fix-repairing-icon.svg"
   width="30"
   height="30"
   inkscape:version="1.1.2 (b8e25be833, 2022-02-05)"
   xmlns:inkscape="http://www.inkscape.org/namespaces/inkscape"
   xmlns:sodipodi="http://sodipodi.sourceforge.net/DTD/sodipodi-0.dtd"
   xmlns="http://www.w3.org/2000/svg"
   xmlns:svg="http://www.w3.org/2000/svg"
   xmlns:rdf="http://www.w3.org/1999/02/22-rdf-syntax-ns#"
   xmlns:cc="http://creativecommons.org/ns#"
   xmlns:dc="http://purl.org/dc/elements/1.1/">
  <defs
     id="defs9" />
  <sodipodi:namedview
     id="namedview7"
     pagecolor="#ffffff"
     bordercolor="#666666"
     borderopacity="1.0"
     inkscape:pageshadow="2"
     inkscape:pageopacity="0.0"
     inkscape:pagecheckerboard="0"
     showgrid="false"
     inkscape:zoom="10.976744"
     inkscape:cx="22.137712"
     inkscape:cy="24.68856"
     inkscape:window-width="1920"
     inkscape:window-height="1017"
     inkscape:window-x="-8"
     inkscape:window-y="-8"
     inkscape:window-maximized="1"
     inkscape:current-layer="layer1" />
  <title
     id="title2">repair-fix-repairing</title>
  <metadata
     id="metadata826">
    <rdf:RDF>
      <cc:Work
         rdf:about="">
        <dc:title>repair-fix-repairing</dc:title>
      </cc:Work>
    </rdf:RDF>
  </metadata>
  <g
     inkscape:groupmode="layer"
     id="layer1"
     inkscape:label="Layer 1">
    <rect
       style="fill:#ffffff;fill-opacity:1;fill-rule:evenodd;stroke:none;stroke-width:0.109;stroke-linecap:round;stroke-linejoin:round;paint-order:stroke fill markers"
       id="rect1035"
       width="30.710857"
       height="31.029655"
       x="-0.3554287"
       y="-0.51482773" />
  </g>
  <g
     inkscape:groupmode="layer"
     id="layer2"
     inkscape:label="Layer 2">
    <path
       d="M 4.6554775,17.813343 C 3.4486018,18.067422 2.2010734,18.09283 0.99165696,16.850383 0.18368545,16.022085 -0.22030031,14.78472 -0.17202528,13.488916 2.9201173,17.084136 6.6881102,12.640292 2.1146866,10.330713 c 2.2079473,-1.0468056 4.2913958,-0.06352 5.3966399,1.971654 0.5234029,0.960419 0.8359202,1.463496 1.2348244,1.806502 A 2.1799986,2.1799986 0 0 0 8.974822,14.284184 2.0580406,2.0580406 0 0 1 9.9403226,13.150991 1.8141247,1.8141247 0 0 1 10.76608,12.947728 c 0.807971,0 1.814124,0.48275 1.984357,1.305966 v 0 a 0.40906734,0.40906734 0 0 1 0.111795,-0.01524 h 0.586923 a 0.38111864,0.38111864 0 0 1 0.09401,0 1.4228429,1.4228429 0 0 1 1.270396,1.166223 0.4192305,0.4192305 0 0 1 0.180396,-0.04065 h 0.586922 a 0.38111864,0.38111864 0 0 1 0.09401,0 c 0.841001,0.12958 1.181467,0.647902 1.300885,1.300885 h 0.06606 0.586923 a 0.38111864,0.38111864 0 0 1 0.09401,0 c 0.965501,0.149907 1.344079,0.782564 1.491444,1.544801 1.778554,-0.271865 3.701933,-1.338997 5.58974,0.592004 a 4.5175263,4.5175263 0 0 1 1.161142,3.361467 c -3.092143,-3.59522 -6.860136,0.848624 -2.286712,3.158203 -1.897971,0.89944 -3.707014,0.297272 -4.878318,-1.184009 a 7.6376175,7.6376175 0 0 1 -0.594546,1.250069 c -0.09655,0.157529 -0.19564,0.32014 -0.32268,0.543729 a 0.04065265,0.04065265 0 0 0 0,0.01779 5.0231436,5.0231436 0 0 1 -0.330303,0.508158 h 0.406527 a 0.63773852,0.63773852 0 0 1 0.635197,0.635198 v 3.458016 a 0.63773852,0.63773852 0 0 1 -0.635197,0.635198 H 8.7537732 A 0.63773852,0.63773852 0 0 1 8.1185755,30.550327 V 27.117719 A 0.63773852,0.63773852 0 0 1 8.7537732,26.482521 H 8.974822 A 4.5734237,4.5734237 0 0 1 8.7461509,25.519561 L 5.5803254,20.333807 5.5650806,20.316022 A 5.711698,5.711698 0 0 1 4.9298829,19.238726 3.1429584,3.1429584 0 0 1 4.6554775,18.22241 a 2.5966883,2.5966883 0 0 1 0,-0.398904 z M 28.030754,9.3550495 A 0.50815818,0.50815818 0 0 0 27.936745,9.167031 0.38365943,0.38365943 0 0 0 27.79192,9.0501546 a 0.40906734,0.40906734 0 0 0 -0.177856,-0.055897 0.66568722,0.66568722 0 0 0 -0.1931,0.022867 h -0.01525 L 25.535697,9.5862615 A 0.76223728,0.76223728 0 0 1 24.61339,9.1924389 C 24.51684,9.0298283 24.422831,8.8697585 24.308495,8.6842807 24.19416,8.498803 24.054416,8.3336516 23.955325,8.1761225 23.856234,8.0185935 23.711409,7.866146 23.558962,7.708617 23.406514,7.551088 23.304883,7.4189668 23.129568,7.2436523 A 0.78510439,0.78510439 0 0 1 23.005069,6.3416715 l 0.99345,-1.8674813 A 0.41414892,0.41414892 0 0 0 24.031549,4.1032347 0.52594372,0.52594372 0 0 0 23.952785,3.9380833 0.46242395,0.46242395 0 0 0 23.797796,3.8135845 L 21.445024,2.5609746 A 0.71396225,0.71396225 0 0 0 21.27225,2.494914 0.69109513,0.69109513 0 0 0 21.063905,2.5228627 0.33284361,0.33284361 0 0 0 20.908917,2.6067088 0.46242395,0.46242395 0 0 0 20.784418,2.7616971 L 19.869733,4.476731 A 0.79526756,0.79526756 0 0 1 18.932182,4.8629312 C 18.723837,4.8095746 18.528196,4.7587588 18.355422,4.7231877 18.182648,4.6876166 17.96414,4.6520455 17.755795,4.6240968 a 5.9251244,5.9251244 0 0 0 -0.609789,-0.048275 c -0.213427,-0.015245 -0.411608,0 -0.602168,-0.015245 A 0.76223728,0.76223728 0 0 1 15.781601,4.0066846 L 15.146403,1.948644 c 0,-0.015245 0,-0.015245 0,-0.025408 A 0.64027931,0.64027931 0 0 0 15.070179,1.7555439 0.5310253,0.5310253 0 0 0 14.75004,1.6005556 0.49291344,0.49291344 0 0 0 14.541695,1.6285043 L 12.023771,2.398364 a 0.48275027,0.48275027 0 0 0 -0.188018,0.091468 0.43447525,0.43447525 0 0 0 -0.119418,0.144825 0.38111864,0.38111864 0 0 0 -0.05336,0.1803962 0.58184112,0.58184112 0 0 0 0.02287,0.1905593 v 0.012704 l 0.571678,1.8674813 A 0.7825636,0.7825636 0 0 1 11.861161,5.8106462 C 11.69855,5.9046555 11.53848,5.9986647 11.353002,6.1155411 11.167525,6.2324175 11.002373,6.3569162 10.844844,6.468711 10.687315,6.5805058 10.514541,6.7227901 10.359553,6.8599928 10.204565,6.9971956 10.067362,7.1140719 9.8945883,7.2919273 A 0.78764519,0.78764519 0 0 1 8.9824444,7.4138853 L 7.1175039,6.420436 A 0.47766869,0.47766869 0 0 0 6.9269446,6.3619978 0.838461,0.838461 0 0 0 6.75163,6.3797834 0.33284361,0.33284361 0 0 0 6.5966417,6.4610887 0.44463841,0.44463841 0 0 0 6.472143,6.6186177 L 6.3705113,6.8066362 A 6.1741219,6.1741219 0 0 0 4.6605591,6.7177086 L 5.1128198,5.8665436 A 2.187621,2.187621 0 0 1 5.620978,5.2338867 2.1622131,2.1622131 0 0 1 6.3349403,4.852768 2.0529591,2.0529591 0 0 1 7.1429118,4.7689219 2.1774578,2.1774578 0 0 1 7.9051491,5.023001 L 9.2847985,5.7598304 9.3864302,5.6759843 C 9.5642855,5.520996 9.7548448,5.3736302 9.9454042,5.2237235 10.135963,5.0738168 10.341768,4.9239102 10.529786,4.8019522 l 0.06606,-0.048275 -0.381119,-1.2830994 A 1.8903484,1.8903484 0 0 1 10.130882,2.665147 1.9919801,1.9919801 0 0 1 10.364635,1.887665 1.969113,1.969113 0 0 1 10.872793,1.2626304 2.0986933,2.0986933 0 0 1 11.589296,0.88151181 l 2.53825,-0.78764518 v 0 a 2.1799986,2.1799986 0 0 1 0.800349,-0.10417243 1.9589498,1.9589498 0 0 1 0.777482,0.23375276 2.1698354,2.1698354 0 0 1 0.637739,0.52848451 1.847155,1.847155 0 0 1 0.35317,0.71396223 l 0.464964,1.4939851 a 0.53864767,0.53864767 0 0 0 0.109254,0 c 0.228672,0.012704 0.464965,0.040653 0.713963,0.06352 0.248997,0.022867 0.475128,0.071142 0.713962,0.1168763 a 0.25407909,0.25407909 0 0 1 0.09909,0.025408 L 19.422553,1.989297 a 1.9919801,1.9919801 0 0 1 1.224662,-0.99599009 h 0.01524 a 1.9589498,1.9589498 0 0 1 0.790186,-0.0787645 2.1444275,2.1444275 0 0 1 0.762238,0.22613039 l 2.350231,1.2551507 a 2.1799986,2.1799986 0 0 1 0.632657,0.5081582 1.9513274,1.9513274 0 0 1 0.381119,0.716503 2.0326327,2.0326327 0 0 1 0.08385,0.8054307 2.1113973,2.1113973 0 0 1 -0.254079,0.7622373 l -0.73683,1.3821903 c 0.02795,0.027949 0.05844,0.071142 0.08639,0.099091 0.152448,0.1803962 0.302354,0.3684147 0.44972,0.558974 0.147366,0.1905593 0.302354,0.3963634 0.421772,0.5843819 l 0.04828,0.068601 1.283099,-0.3836594 a 1.8878077,1.8878077 0 0 1 0.805431,-0.081305 2.0326327,2.0326327 0 0 1 0.777482,0.2312119 1.9487866,1.9487866 0 0 1 0.625034,0.5081582 v 0.020326 a 2.0986933,2.0986933 0 0 1 0.381119,0.7165031 l 0.762237,2.5179233 h 0.0127 a 2.235896,2.235896 0 0 1 0.08893,0.795268 1.9996025,1.9996025 0 0 1 -0.233753,0.777482 2.1698354,2.1698354 0 0 1 -0.508158,0.625035 1.8573182,1.8573182 0 0 1 -0.719044,0.35571 l -1.493985,0.464965 c 0,0.03811 0,0.0813 0,0.119417 0,0.231212 -0.03811,0.464965 -0.06098,0.688555 0,0 0,0.02795 0,0.03811 a 6.8194828,6.8194828 0 0 1 -0.12958,0.721585 l -0.01779,0.08639 1.186549,0.632657 a 1.9106748,1.9106748 0 0 1 0.627576,0.508158 2.0326327,2.0326327 0 0 1 0.368415,0.708881 v 0.01779 a 1.9462458,1.9462458 0 0 1 0.07876,0.787645 2.0961525,2.0961525 0 0 1 -0.228671,0.762238 l -0.188019,0.35317 -0.335384,-0.180397 a 6.5323735,6.5323735 0 0 0 -1.102703,-1.969113 c -0.03557,-0.04828 -0.07368,-0.09401 -0.114336,-0.139743 a 6.877921,6.877921 0 0 0 -1.918297,-1.587994 c 0.02287,-0.09401 0.04573,-0.19056 0.06606,-0.28711 0.03303,-0.190559 0.07114,-0.391282 0.09401,-0.614871 0,0 0,-0.02795 0,-0.03811 0.02795,-0.205804 0.04319,-0.391282 0.05844,-0.57676 0.01524,-0.185477 0.02287,-0.403985 0.01778,-0.602167 a 0.76223728,0.76223728 0 0 1 0.553893,-0.762237 l 2.0555,-0.635198 c 0,0 0.01778,0 0.02795,0 a 0.5869227,0.5869227 0 0 0 0.165152,-0.07622 0.38620022,0.38620022 0 0 0 0.104172,-0.139743 0.44971999,0.44971999 0 0 0 0.05336,-0.180396 0.49291344,0.49291344 0 0 0 -0.02795,-0.208345 L 28.030754,9.3398048 Z M 19.392065,8.5699451 a 5.5363834,5.5363834 0 0 1 0.998531,0.6707688 5.8717678,5.8717678 0 0 1 0.838461,0.8460831 7.5893425,7.5893425 0 0 1 0.635197,0.96296 5.4169662,5.4169662 0 0 1 0.437016,1.049347 5.0942858,5.0942858 0 0 1 0.218508,1.128111 5.3077122,5.3077122 0 0 1 0,1.153519 c 0,0.02795 0,0.04828 0,0.06606 a 5.8438191,5.8438191 0 0 1 -0.172773,0.957878 c -0.41669,0.04065 -0.830839,0.106713 -1.239906,0.180396 l -0.376037,-0.200723 c 0.03303,-0.08639 0.06098,-0.175314 0.08893,-0.266783 a 4.7334935,4.7334935 0 0 0 0.162611,-0.797808 0.20326327,0.20326327 0 0 1 0,-0.0559 4.3549156,4.3549156 0 0 0 0,-0.874032 4.4616289,4.4616289 0 0 0 -0.157529,-0.820676 3.7832377,3.7832377 0 0 0 -0.325221,-0.762237 4.6598105,4.6598105 0 0 0 -0.485291,-0.729207 4.253284,4.253284 0 0 0 -0.622494,-0.622494 4.6521882,4.6521882 0 0 0 -1.575291,-0.838461 4.7334935,4.7334935 0 0 0 -0.797808,-0.1626106 0.14482508,0.14482508 0 0 1 -0.0559,0 4.7665238,4.7665238 0 0 0 -0.874032,0 4.4641696,4.4641696 0 0 0 -0.820676,0.1600698 3.7832377,3.7832377 0 0 0 -0.762237,0.3252212 4.6394842,4.6394842 0 0 0 -0.729207,0.4827506 4.4082722,4.4082722 0 0 0 -0.617412,0.614871 c -0.05844,0.0686 -0.116877,0.142284 -0.172774,0.221049 l -1.387272,-0.73937 a 5.1832135,5.1832135 0 0 1 0.360792,-0.482751 5.7498099,5.7498099 0 0 1 0.825757,-0.8333789 7.3454265,7.3454265 0 0 1 0.96296,-0.6377385 6.257968,6.257968 0 0 1 1.069673,-0.4446385 5.58974,5.58974 0 0 1 1.115407,-0.2235896 5.4957308,5.4957308 0 0 1 1.15606,0 c 0.02541,0 0.04828,0.012704 0.06352,0 a 5.9098797,5.9098797 0 0 1 1.105244,0.2134265 6.7153104,6.7153104 0 0 1 1.115407,0.4548016 v 0 z M 9.765008,14.667843 v 0 0.02541 0 0 0.03303 0 0.05336 0 0.02795 0 0.02795 0 0.08639 0 0.05844 0 0.03049 0 0.05844 0 0.03303 0 0.03303 0 0.09909 0 0.03303 0 0.03557 0 0.06352 0 4.695381 a 0.42685287,0.42685287 0 1 1 -0.8511649,0 v -0.787645 0 a 0.46750553,0.46750553 0 0 1 -0.06352,-0.04319 L 7.9076898,18.578121 6.8049866,17.671058 A 1.6565957,1.6565957 0 0 0 6.4340311,17.434765 H 6.1469217 a 0.65298327,0.65298327 0 0 0 -0.3684146,0.01524 0.37095547,0.37095547 0 0 0 -0.2007225,0.205804 h -0.025408 a 1.3821903,1.3821903 0 0 0 -0.050816,0.536107 2.2536815,2.2536815 0 0 0 0.2058041,0.73683 4.7461974,4.7461974 0 0 0 0.5386477,0.879113 c 0,0 0.017785,0.02541 0.025408,0.04065 l 3.2268045,5.274682 a 0.42685287,0.42685287 0 0 1 0.071142,0.1931 v 0 a 2.8990424,2.8990424 0 0 0 0.3328436,1.166223 h 6.4409055 a 2.79487,2.79487 0 0 0 0.782563,-0.922307 0.11941717,0.11941717 0 0 1 0.01524,-0.02287 c 0.09147,-0.157529 0.213426,-0.358252 0.332844,-0.553893 a 7.5309043,7.5309043 0 0 0 0.726666,-1.732819 v 0 -0.01525 -0.02541 -0.01524 0 -0.02541 -0.01779 0 -0.02541 l 0.01525,-0.05082 v -0.02541 0 -0.02287 -0.02541 0 -0.01779 -0.02541 -0.02541 -0.02541 -0.05082 -0.02541 -0.02287 0 -0.02541 -0.02541 0 -0.02033 -0.02541 0 -0.01778 -0.02541 -0.02541 -0.02541 -0.01778 0 -0.02541 -0.02033 0 -0.02287 -0.02541 0 -0.02287 -0.02541 -0.02541 -0.02287 -0.07368 -0.02541 -0.02541 -0.02287 -0.02541 0 -0.02287 -0.02541 -0.213426 0 -0.254079 l -0.03303,-1.448251 a 0.49291344,0.49291344 0 0 1 0,-0.06098 c 0,-0.02033 0,-0.157529 0,-0.340466 v -0.04573 0 -0.312517 0 -0.04828 0 -0.327762 0 -0.04828 0 -0.271865 0 -0.04319 0 -0.04573 0 -0.04828 -0.02287 -0.162611 -0.02033 -0.02287 -0.02287 0 -0.02287 -0.01779 0 -0.02287 -0.02033 -0.02287 -0.03811 A 0.93247027,0.93247027 0 0 0 17.44836,17.521152 h -0.409068 c 0,0.119417 0,0.236293 0,0.35571 v 0 0 0 0 0 0 0 0.02541 0 0 0 0.02033 0 0.106713 0 0 0 0 0 0.02541 0 0 0 0 0 0 0 0.01778 0 0 0 0 0 0 0 0 0 0.0127 0 0 0 0 0 0 0 0 0 0.0127 0 0 0 0 0 0 0 0 0 0 0 0 0 0 0 0.0127 c -0.01524,0.236294 -0.02795,0.467506 -0.02795,0.686014 a 0.426853,0.426853 0 0 1 -0.853706,0 c 0,-0.218508 0.01778,-0.472588 0.03303,-0.73683 v -0.08385 0 -0.04319 0 -0.03811 0 -0.08385 0 -0.04319 0 -0.03811 0 -0.04319 0 0.139743 0 -0.08639 0 -0.08385 0 -0.08385 0 -0.05082 c 0,-0.64028 -0.114335,-1.196713 -0.630116,-1.290722 h -0.564055 a 0.34808836,0.34808836 0 0 1 -0.09147,0 c 0,0.238834 0,0.487832 -0.02033,0.729207 v 0.254079 c -0.01525,0.236293 -0.02795,0.464965 -0.02795,0.683473 a 0.426853,0.426853 0 1 1 -0.853706,0 c 0,-0.218508 0.01779,-0.472588 0.03303,-0.73683 v -0.04319 0 -0.03811 0 -0.04065 0 -0.04319 0 -0.04319 0 -0.04319 0 -0.08131 0 -0.04065 0 -0.04319 0 -0.03557 0 -0.04319 0 -0.04319 0 -0.01779 c 0.02033,-0.721585 -0.05844,-1.387272 -0.627576,-1.491444 h -0.548811 a 0.37857785,0.37857785 0 0 1 -0.109254,-0.01525 v 1.648973 a 0.42685287,0.42685287 0 0 1 -0.853705,0 V 14.66276 c 0,-0.589464 -0.584382,-0.843543 -1.130652,-0.843543 A 0.9782045,0.9782045 0 0 0 10.323982,13.925932 1.2703955,1.2703955 0 0 0 9.7497633,14.68817 Z M 8.7944259,17.775231 8.3929809,17.610079 A 5.0536331,5.0536331 0 0 0 7.8340069,17.41952 l 0.6123306,0.508158 0.3480884,0.284569 z"
       id="path4"
       style="fill:#0c7a59;fill-opacity:1;stroke:none;stroke-width:0.254079" />
  </g>
</svg>
