<?xml version="1.0" encoding="UTF-8" standalone="no"?>
<!-- Created with Inkscape (http://www.inkscape.org/) -->

<svg
   width="30"
   height="30"
   viewBox="0 0 7.9374995 7.9374995"
   version="1.1"
   id="svg8972"
   inkscape:version="1.1.2 (b8e25be833, 2022-02-05)"
   sodipodi:docname="research-activities.svg"
   xmlns:inkscape="http://www.inkscape.org/namespaces/inkscape"
   xmlns:sodipodi="http://sodipodi.sourceforge.net/DTD/sodipodi-0.dtd"
   xmlns="http://www.w3.org/2000/svg"
   xmlns:svg="http://www.w3.org/2000/svg">
  <sodipodi:namedview
     id="namedview8974"
     pagecolor="#ffffff"
     bordercolor="#666666"
     borderopacity="1.0"
     inkscape:pageshadow="2"
     inkscape:pageopacity="0.0"
     inkscape:pagecheckerboard="0"
     inkscape:document-units="mm"
     showgrid="false"
     inkscape:zoom="12.292028"
     inkscape:cx="32.053294"
     inkscape:cy="20.745152"
     inkscape:window-width="1920"
     inkscape:window-height="1017"
     inkscape:window-x="-8"
     inkscape:window-y="-8"
     inkscape:window-maximized="1"
     inkscape:current-layer="layer1"
     units="px" />
  <defs
     id="defs8969" />
  <g
     inkscape:label="Layer 1"
     inkscape:groupmode="layer"
     id="layer1">
    <rect
       style="fill:#ffffff;fill-opacity:1;fill-rule:evenodd;stroke:none;stroke-width:1.32292;stroke-linecap:round;stroke-linejoin:round;paint-order:stroke fill markers"
       id="rect11690"
       width="8.0072222"
       height="8.0072222"
       x="-0.034861088"
       y="-0.034861088" />
  </g>
  <g
     inkscape:groupmode="layer"
     id="layer2"
     inkscape:label="Layer 2">
    <path
       style="fill:#0c7a59;stroke-width:0.0358319;fill-opacity:1;stroke:none"
       d="M 0.37964977,7.4683814 0.004594,7.0920448 0.28186792,6.814771 0.55914187,6.5374969 0.93565557,6.9140104 1.312169,7.2905239 1.0334372,7.5676208 0.75470547,7.8447182 Z M 1.1764519,6.6527498 0.52287477,5.9984561 0.85933147,5.6633984 1.195788,5.3283408 1.0881852,5.091028 C 1.0290037,4.9605058 0.94004487,4.7003473 0.89049907,4.5128985 0.81408767,4.2238078 0.80041597,4.0932292 0.80041597,3.6525175 c 0,-0.4421479 0.01357,-0.5709212 0.091059,-0.8642299 C 1.2355322,1.4860153 2.1896729,0.52847734 3.4796802,0.19086794 3.7736887,0.11392254 3.9241799,0.09642455 4.3214293,0.09299539 4.5988407,0.09060126 4.8968601,0.10856384 5.0201539,0.13511098 6.3721064,0.42620734 7.3689739,1.3188837 7.7731083,2.6003261 8.1665032,3.847717 7.8197363,5.2456087 6.8850438,6.1803007 5.8061325,7.2592117 4.1539954,7.5316607 2.7851495,6.8564019 L 2.4492438,6.6906981 2.1396364,6.998871 1.8300288,7.307044 Z M 5.1503412,6.8637202 C 5.8105002,6.6962574 6.291031,6.413962 6.7630109,5.9163336 7.3686189,5.2778144 7.6599188,4.5425683 7.6599188,3.6525175 c 0,-0.8900508 -0.2912999,-1.625297 -0.8969079,-2.263816 C 6.291031,0.89107294 5.8105002,0.60877764 5.1503412,0.44131484 4.7394788,0.33709074 4.1121235,0.32479964 3.6838992,0.41258404 2.4166312,0.67236954 1.3800575,1.7092848 1.1176503,2.9796793 1.0444653,3.3339918 1.0443123,3.9697023 1.1173146,4.3258798 1.3751019,5.5834001 2.4033857,6.620568 3.6590803,6.8896054 4.0689309,6.9774174 4.7486312,6.9656194 5.1503274,6.8637214 Z M 3.7839483,6.6444438 C 2.6496582,6.4152262 1.7737866,5.613789 1.4329458,4.4932374 1.3458424,4.2068753 1.3352595,4.1157949 1.3352595,3.6525175 c 0,-0.4612098 0.01079,-0.5550105 0.096074,-0.8351547 C 1.4841736,2.6437883 1.5697523,2.4180462 1.6215078,2.3157136 2.186646,1.1983029 3.3251922,0.53850304 4.5509287,0.61808254 c 0.440314,0.028587 0.7243071,0.1056376 1.1500354,0.3120179 C 6.311222,1.2259356 6.7499637,1.6535351 7.060834,2.2554376 c 0.2564644,0.4965618 0.3225997,0.7829738 0.3225997,1.3970799 0,0.6141062 -0.066135,0.9005181 -0.3225997,1.3970797 C 6.7501858,5.6510695 6.3149938,6.0753349 5.6961417,6.3800226 5.1035858,6.6717644 4.4003572,6.7690079 3.7839483,6.6444438 Z M 5.9043897,5.0829865 C 5.953744,4.9414103 6.0629073,4.8987986 6.1985592,4.9681582 6.2985309,5.019274 6.3062315,5.0168196 6.428033,4.8950187 6.5481454,4.7749052 6.551886,4.7637323 6.5076918,4.6570394 6.4448844,4.5054062 6.5013955,4.3839944 6.6499796,4.3513605 6.7590374,4.3274082 6.7612909,4.3227534 6.7508129,4.1431529 6.740697,3.9697634 6.7335174,3.9575693 6.6229738,3.9260199 6.4875387,3.8873657 6.439467,3.7689174 6.5028028,3.6299114 6.5515098,3.52301 6.5111575,3.4294303 6.3790444,3.3428622 6.3064792,3.2953158 6.2719624,3.2919112 6.1990912,3.3251126 6.0616588,3.3877317 5.9478449,3.3426943 5.910205,3.2107898 5.8798097,3.1042736 5.8662138,3.0964451 5.6941862,3.0864054 5.513335,3.0758493 5.509997,3.0775306 5.4697814,3.1993847 5.4236355,3.3392096 5.2995346,3.393252 5.1761849,3.3272373 c -0.091596,-0.04902 -0.2166297,0.00697 -0.3001254,0.1344012 -0.04792,0.073136 -0.048479,0.096344 -0.00435,0.1805705 0.067569,0.1289586 0.014282,0.2430529 -0.1331546,0.2851048 -0.103184,0.029431 -0.1134603,0.046077 -0.1234279,0.1999583 -0.010564,0.1630392 -0.00696,0.1696893 0.125412,0.2318118 0.1507616,0.070751 0.192854,0.1933865 0.1157966,0.3373709 -0.038215,0.071406 -0.02878,0.092887 0.087676,0.199611 0.1271916,0.1165624 0.1332262,0.1181847 0.238014,0.063996 0.1343027,-0.06945 0.2394699,-0.023223 0.2923653,0.1285142 0.033722,0.096734 0.050042,0.1047201 0.2140242,0.1047201 0.1660338,0 0.180007,-0.00714 0.2159728,-0.1103105 z M 5.5131523,4.4964241 C 5.3624328,4.4290976 5.2708983,4.2434199 5.3032939,4.0707327 5.3666283,3.7331306 5.843955,3.6449581 6.0175305,3.938798 6.2175706,4.2774383 5.8737829,4.6575199 5.5131523,4.4964241 Z M 4.10565,4.5035341 C 4.1046868,4.1470229 4.0255729,3.940366 3.8487375,3.8325523 3.6537841,3.7136922 3.5065707,3.7364893 3.2531942,3.9247763 L 3.0314746,4.0895387 2.8097551,3.9247763 C 2.5576755,3.7374533 2.4091197,3.7137159 2.2180344,3.8302275 2.044797,3.9358565 1.9839107,4.0886534 1.9640945,4.4675016 L 1.9467467,4.7991439 H 3.0265911 4.1064362 L 4.1056381,4.5035294 Z M 3.1951095,3.8095097 c 0.101586,-0.077483 0.1230217,-0.1172444 0.1230217,-0.2281939 0,-0.1110081 0.027395,-0.1617554 0.1576169,-0.2919776 0.3010662,-0.3010662 0.2948582,-0.7148946 -0.014632,-0.9753126 -0.4240533,-0.3568171 -1.07462,-0.056444 -1.07462,0.4961622 0,0.2239607 0.071004,0.375525 0.2461618,0.5254534 0.1260749,0.1079161 0.1479911,0.147192 0.1479911,0.2652198 0,0.1076935 0.021943,0.1565114 0.098538,0.2192247 0.1272863,0.1042176 0.1671697,0.1028824 0.3159214,-0.010575 z M 4.50059,2.4163114 V 2.1475706 H 4.3572609 4.2139329 V 2.4163111 2.6850516 H 4.3572609 4.50059 Z M 4.894742,2.2908989 V 1.896746 H 4.7514139 4.6080865 V 2.2908989 2.6850516 H 4.7514139 4.894742 Z m 0.3941533,0.053748 V 2.0042418 H 5.1634833 5.0380711 v 0.3404049 0.3404046 h 0.1254122 0.125412 z M 5.6830483,2.2192345 V 1.7534177 H 5.5576353 5.432223 v 0.4658168 0.4658171 h 0.1254123 0.125413 z M 4.4760466,1.7486431 4.756077,1.6359868 4.9622611,1.6984145 5.1684455,1.7608419 5.4347041,1.6275171 C 5.581147,1.5541885 5.7071655,1.4885373 5.7147455,1.4816258 5.7299661,1.4677464 5.6462324,1.2517687 5.6256307,1.2517687 c -0.00708,0 -0.117366,0.051519 -0.2450587,0.1144872 L 5.1484044,1.480743 4.9478867,1.4175354 4.7473673,1.3543275 4.4089862,1.4882563 c -0.2018881,0.079905 -0.3383813,0.1541203 -0.3383813,0.183985 0,0.063574 0.066072,0.1886116 0.099799,0.1888654 0.01409,1.075e-4 0.1516269,-0.050503 0.3056427,-0.1124636 z"
       id="path10605" />
  </g>
</svg>
