<?xml version="1.0" encoding="UTF-8" standalone="no"?>
<svg
   shape-rendering="geometricPrecision"
   text-rendering="geometricPrecision"
   image-rendering="optimizeQuality"
   fill-rule="evenodd"
   clip-rule="evenodd"
   viewBox="0 0 30 30"
   version="1.1"
   id="svg4"
   sodipodi:docname="staff.svg"
   width="30"
   height="30"
   inkscape:version="1.1.2 (b8e25be833, 2022-02-05)"
   xmlns:inkscape="http://www.inkscape.org/namespaces/inkscape"
   xmlns:sodipodi="http://sodipodi.sourceforge.net/DTD/sodipodi-0.dtd"
   xmlns="http://www.w3.org/2000/svg"
   xmlns:svg="http://www.w3.org/2000/svg">
  <defs
     id="defs8" />
  <sodipodi:namedview
     id="namedview6"
     pagecolor="#ffffff"
     bordercolor="#666666"
     borderopacity="1.0"
     inkscape:pageshadow="2"
     inkscape:pageopacity="0.0"
     inkscape:pagecheckerboard="0"
     showgrid="false"
     inkscape:zoom="15.965961"
     inkscape:cx="16.723078"
     inkscape:cy="18.539442"
     inkscape:window-width="1920"
     inkscape:window-height="1017"
     inkscape:window-x="-8"
     inkscape:window-y="-8"
     inkscape:window-maximized="1"
     inkscape:current-layer="layer1" />
  <g
     inkscape:groupmode="layer"
     id="layer1"
     inkscape:label="Layer 1">
    <rect
       style="fill:#ffffff;fill-opacity:1;fill-rule:evenodd;stroke:none;stroke-width:0.434136;stroke-linecap:round;stroke-linejoin:round;paint-order:stroke fill markers"
       id="rect1217"
       width="30.188337"
       height="30.340065"
       x="-0.094168663"
       y="-0.1700325" />
  </g>
  <g
     inkscape:groupmode="layer"
     id="layer2"
     inkscape:label="Layer 2">
    <path
       fill-rule="nonzero"
       d="m 14.999999,0.1030405 c 4.11354,0 7.837779,1.6674702 10.533663,4.363296 C 28.229488,7.1622207 29.896959,10.886461 29.896959,15 c 0,4.11354 -1.667471,7.837778 -4.363297,10.533662 -2.695884,2.695827 -6.420123,4.363297 -10.533663,4.363297 -4.113539,0 -7.8377781,-1.66747 -10.5336623,-4.363297 C 1.7705109,22.837778 0.10304075,19.11354 0.10304075,15 0.10304075,10.886461 1.7705109,7.1622207 4.4663367,4.4663365 7.1622209,1.7705107 10.88646,0.1030405 14.999999,0.1030405 Z m -2.87296,18.4218935 c -0.05772,-0.07483 0.150948,-0.588778 0.200353,-0.671876 -0.565736,-0.503411 -1.012761,-1.011305 -1.10802,-2.056477 l -0.06069,0.0013 c -0.140124,-0.0019 -0.275186,-0.0341 -0.401693,-0.106199 C 10.554421,15.576501 10.411911,15.378651 10.31572,15.155604 10.112051,14.687571 9.4410483,13.134156 10.463351,13.256939 9.8917393,12.189421 11.185446,10.365766 8.9541621,9.6912707 10.784858,7.3726402 14.647535,3.7976027 17.47819,7.3837547 c 3.098393,0.3002669 4.064833,3.9824343 1.978503,5.9991103 0.122259,0.0045 0.23742,0.03259 0.33937,0.08717 0.387846,0.207743 0.400589,0.658609 0.298639,1.03691 -0.100846,0.315921 -0.228925,0.529773 -0.34973,0.837779 -0.146875,0.415893 -0.361659,0.493346 -0.776562,0.448538 -0.02107,1.02824 -0.496255,1.532932 -1.135777,2.137016 l 0.174981,0.592793 c -0.857565,1.819117 -4.420033,1.892263 -5.880575,0.0019 z m -7.4413212,4.518493 c 0.7027174,-2.998769 2.6567796,-1.943355 6.4207052,-4.298413 1.337351,2.790387 6.772647,2.993182 7.887242,0 3.220885,2.059039 5.759013,1.217536 6.398593,4.1978 1.685509,-2.202015 2.687039,-4.955449 2.687039,-7.942814 0,-3.611814 -1.463976,-6.8816971 -3.83073,-9.2485679 -2.366871,-2.3667545 -5.636753,-3.8307299 -9.248568,-3.8307299 -3.611814,0 -6.8816959,1.4639754 -9.2485667,3.8307299 C 3.3846778,8.1183029 1.9207024,11.388186 1.9207024,15 c 0,3.033103 1.0325456,5.824885 2.7650154,8.043427 z"
       id="path2"
       style="fill:#0c7a59;fill-opacity:1;stroke-width:0.0581912" />
  </g>
</svg>
