<?xml version="1.0" encoding="UTF-8" standalone="no"?>
<!-- Created with Inkscape (http://www.inkscape.org/) -->

<svg
   width="70mm"
   height="70mm"
   viewBox="0 0 70 70"
   version="1.1"
   id="svg105436"
   sodipodi:docname="technology.svg"
   inkscape:version="1.2.2 (732a01da63, 2022-12-09)"
   xmlns:inkscape="http://www.inkscape.org/namespaces/inkscape"
   xmlns:sodipodi="http://sodipodi.sourceforge.net/DTD/sodipodi-0.dtd"
   xmlns="http://www.w3.org/2000/svg"
   xmlns:svg="http://www.w3.org/2000/svg">
  <sodipodi:namedview
     id="namedview105438"
     pagecolor="#ffffff"
     bordercolor="#666666"
     borderopacity="1.0"
     inkscape:pageshadow="2"
     inkscape:pageopacity="0.0"
     inkscape:pagecheckerboard="0"
     inkscape:document-units="mm"
     showgrid="false"
     inkscape:zoom="2.711162"
     inkscape:cx="120.61249"
     inkscape:cy="136.84169"
     inkscape:window-width="1920"
     inkscape:window-height="1009"
     inkscape:window-x="-8"
     inkscape:window-y="-8"
     inkscape:window-maximized="1"
     inkscape:current-layer="layer10"
     inkscape:showpageshadow="2"
     inkscape:deskcolor="#d1d1d1" />
  <defs
     id="defs105433">
    <clipPath
       clipPathUnits="userSpaceOnUse"
       id="clipPath111488">
      <path
         id="path111490"
         style="fill:#ff0000;fill-opacity:1;fill-rule:nonzero;stroke:none;stroke-width:0.264583"
         d="M 69.547661,9.2758981 V 49.928715 H 110.20048 V 9.2758981 H 96.802327 c -1.93e-4,0.089571 -2.46e-4,0.1791448 -5.29e-4,0.2687174 0.126304,0.016206 0.25155,0.04971 0.370004,0.097669 0.04844,-0.1651686 0.125404,-0.2952248 0.286287,-0.2129068 0.01799,-0.01651 0.03755,-0.028524 0.06046,-0.026872 0.263073,0.018952 0.514948,0.1134234 0.772563,0.1700154 0.148299,0.097038 0.04566,0.5329979 0.05116,0.5823929 5.3e-4,0.0059 7.94e-4,0.01219 0.0016,0.01809 0.03118,0.294016 -0.03525,0.509527 -0.146246,0.644405 -0.01045,0.09399 -0.02127,0.187843 -0.03359,0.281637 0.04442,-0.04182 0.08992,-0.08263 0.14056,-0.116272 0.03964,-0.02634 0.08822,-0.03528 0.132292,-0.05323 0.209402,-0.08527 0.205647,-0.08455 0.399457,-0.166398 0.112424,-0.0551 0.22546,-0.109395 0.337447,-0.165364 0.29776,-0.148821 0.251965,-0.166017 0.628904,-0.195337 0.07836,-0.0061 0.156718,0.02349 0.235124,0.01809 0.12064,-0.0084 0.24104,-0.06052 0.35295,-0.10232 0.0252,-0.01056 0.049,-0.03922 0.0755,-0.03152 0.0118,0.0034 0.0191,0.006 0.03,0.0093 0.0113,-0.02824 0.0532,-0.0602 0.14625,-0.09508 0.0296,-0.01102 0.062,-0.01177 0.093,-0.01757 0.36432,-0.0683 0.17065,0.720273 0.0434,0.37207 -0.0196,-0.05368 0.028,0.04451 -0.078,0.04651 -0.11169,0.0021 -0.22426,-0.09171 -0.33021,-0.05633 -0.0805,0.0269 0.17476,0.0316 0.23926,0.08682 0.0256,0.02188 -0.0619,0.02592 -0.093,0.03876 -0.21146,0.07314 -0.26461,0.103616 -0.51624,0.121957 -0.28993,0.02108 0.0144,-0.122087 -0.402563,0.0078 -0.219099,0.06809 -0.387287,0.260975 -0.615985,0.307475 -0.107301,0.0453 -0.316857,0.134209 -0.416509,0.172599 -0.01955,0.0075 -0.03951,0.01719 -0.06046,0.01757 -0.01386,2.5e-4 -0.02864,-0.02553 -0.03824,-0.0155 -0.173371,0.181101 -0.110371,0.159871 -0.06718,0.136426 -0.02894,0.01831 -0.08582,0.05485 -0.205156,0.136942 -0.03186,0.0083 -0.06294,0.01846 -0.09457,0.02739 -0.0217,0.155361 -0.04375,0.310564 -0.06098,0.464054 -0.07808,0.433281 -0.153619,0.866818 -0.234092,1.299662 -0.08631,0.464299 -0.171064,0.929062 -0.266134,1.391647 -0.0082,0.03998 -0.0065,0.09738 -0.04341,0.114722 -0.01291,0.0061 -0.02604,0.01088 -0.03927,0.01602 0.0013,0.126712 0.01355,0.239055 -0.166916,0.04703 -0.06847,0.01347 -0.138189,0.02261 -0.206189,0.03617 -0.02971,0.0059 0.122301,-0.217004 -0.0011,-0.09095 v -0.001 c -0.04801,0.08539 -0.106121,0.148223 -0.17518,0.148311 -0.0066,0.02524 -0.01826,0.0426 -0.04186,0.03927 -0.09802,-0.01386 -0.193728,-0.0374 -0.288354,-0.06615 -0.02072,0.08794 -0.04086,0.175898 -0.05788,0.264584 -0.02122,0.110549 0.02357,0.246666 -0.04703,0.334346 -0.01326,0.01645 -0.02766,0.03195 -0.04289,0.04651 1.3e-5,0.03055 0,0.05556 0,0.08733 6e-6,0.03692 0.03116,0.130095 -5.29e-4,0.111105 -0.04837,-0.02901 -0.09775,-0.06089 -0.144177,-0.09612 -0.04172,0.02242 -0.08579,0.04129 -0.130225,0.05839 l -0.0067,0.0708 c 0.0054,0.0029 -0.0016,0.01436 -0.0021,0.02119 l 0.0021,-0.02119 -5.3e-4,-5.29e-4 c -0.10792,-0.03532 -0.201718,-0.06198 -0.288872,-0.08475 -0.151878,8.46e-4 -0.37556,0.0019 -0.740523,0.04858 -0.0127,0.0016 0.0013,-0.02551 0.0026,-0.03824 0.0073,-0.08028 0.01508,-0.160566 0.02273,-0.240812 2.62e-4,-0.0088 0.0013,-0.01818 0.0026,-0.02842 0.0071,-0.07438 0.0141,-0.148817 0.02066,-0.223242 0.0078,-0.08767 0.01508,-0.17536 0.02273,-0.263033 -0.18637,-0.01742 -0.373872,-0.04799 -0.553972,-0.100252 -0.03455,0.166299 -0.06792,0.332998 -0.107487,0.49816 -0.111657,0.466095 -0.186129,0.76642 -1.055748,0.375171 -0.125524,-0.05648 -0.0703,-0.242741 -0.04289,-0.402559 -0.0712,-0.03568 -0.178223,-0.0949 -0.272851,-0.146245 -0.186762,0.420579 -0.283628,0.558095 -0.54932,0.976168 -0.09071,0.02596 -0.198226,0.135923 -0.272336,0.07751 -0.27876,-0.219668 -0.08645,-1.079441 -0.07493,-1.208712 0.01537,-0.172528 0.03376,-0.344683 0.04754,-0.517281 -0.09348,0.312117 -0.272859,0.688116 -0.741558,0.576709 -0.166661,-0.03961 -0.241398,-0.219447 -0.323493,-0.38809 -0.18551,0.04709 -0.37443,0.08503 -0.558623,0.135909 -0.01889,-0.04625 -0.03633,-0.08548 -0.05168,-0.121956 -7.94e-4,2.36e-4 -0.0019,0.0013 -0.0026,0.0016 -0.09713,0.02218 -0.197702,-0.02376 -0.296622,-0.03566 -1.03e-4,-2e-4 -5.29e-4,-8.73e-4 -5.29e-4,-0.001 -0.0073,-0.0019 -0.01572,-0.0056 -0.02326,-0.0078 0.0013,0.04892 0.0031,0.09783 0.0036,0.146761 5.29e-4,0.03268 0.02808,0.09762 -0.0047,0.09767 -0.166838,2.31e-4 -0.333242,-0.01449 -0.499194,-0.03359 -0.154358,0.05472 -0.301797,0.101783 -0.401011,0.09405 -0.0021,0.01104 -0.0046,0.02203 -0.0067,0.03307 -0.02143,0.09408 -0.04244,0.18876 -0.06459,0.28267 -0.0042,0.01788 -0.0044,0.06505 -0.01344,0.05891 0.0376,0.272992 -0.113657,0.457629 -0.928108,0.383439 -0.100129,-0.0091 -0.124886,-0.139148 -0.117306,-0.300757 -0.01577,-0.05061 -0.03668,-0.118526 -0.0677,-0.208256 -2.65e-4,-0.0012 -7.94e-4,-0.0024 -0.0011,-0.0036 -0.0011,0.002 -0.0011,0.0021 -0.0021,0.0041 -0.04184,-0.09201 -0.09848,-0.179712 -0.147278,-0.269751 -0.06203,0.02874 -0.124883,0.0565 -0.181901,0.09095 0.08426,-0.133276 0.100661,-0.160329 0.118338,-0.226342 -0.01638,-0.04345 -0.02879,-0.08792 -0.03462,-0.134359 -0.0091,-0.0724 0.01296,-0.141894 0.04031,-0.211357 -0.03245,-0.119363 -0.0652,-0.23863 -0.09715,-0.358117 -0.103396,0.361003 -0.260398,0.674901 -0.247012,1.049031 0.01005,0.02908 0.01463,0.0561 0.0052,0.07803 7.94e-4,0.0081 0.0011,0.01608 0.0021,0.02429 -0.01278,0.0028 -0.0258,0.0066 -0.03876,0.01085 -0.0076,0.0039 -0.01574,0.0066 -0.02379,0.0083 -0.11129,0.04173 -0.22633,0.115469 -0.326594,0.06615 -0.08721,-0.0429 -0.05685,-0.179138 -0.06718,-0.282154 -0.08557,-0.01182 -0.173407,-0.06614 -0.259416,-0.08527 0.0075,-0.19037 0.07949,-0.405534 0.119891,-0.609265 -0.01553,-0.07819 -0.03129,-0.156354 -0.04651,-0.234611 -5.3e-4,-0.0029 -0.0011,-0.0059 -0.0016,-0.0088 -0.103767,0.0031 -0.210378,0.01225 -0.27492,-0.05788 -0.08381,-0.09101 -0.02305,-0.248575 -0.0057,-0.371036 0.0039,-0.02747 0.0092,-0.05474 0.01344,-0.08217 -0.02154,0.0015 -0.03616,0.0024 -0.05891,0.0041 -0.08761,0.05195 -0.148259,0.0921 -0.194304,0.12144 0.03949,0.17835 0.05833,0.331941 -0.04186,0.332279 -0.151765,5.03e-4 -0.24619,-0.03273 -0.303343,-0.08682 -0.01894,-0.0018 -0.03808,-0.0038 -0.05943,-0.0072 -0.04891,-0.0078 -0.04272,-0.05113 -0.0078,-0.113688 -0.02685,-0.106997 -0.0033,-0.239622 0.01344,-0.360701 0.0024,-0.01656 0.0048,-0.03307 0.0072,-0.04961 -0.01019,-0.01291 -0.02032,-0.02586 -0.03049,-0.03876 -0.520285,0.12505 -0.732483,0.06412 -0.817523,-0.228927 -0.07677,-0.02171 -0.154392,-0.07432 -0.108003,-0.09353 0.02671,-0.01106 0.05354,-0.02008 0.08113,-0.02791 -0.0076,-0.0475 -0.01326,-0.0993 -0.01757,-0.155546 -0.0069,-0.03846 -0.01492,-0.07664 -0.02376,-0.114722 -0.03246,-0.0093 -0.0649,-0.01961 -0.09663,-0.03049 -0.0276,0.03464 -0.05596,0.06863 -0.08578,0.101286 -0.01394,0.01531 -0.01437,-0.03865 -0.02066,-0.05839 -0.0096,-0.03009 -0.01953,-0.06297 -0.02946,-0.09457 -0.02304,-0.0096 -0.04595,-0.01947 -0.06821,-0.02945 -0.0541,-0.02428 -0.02754,-0.08305 0.01291,-0.148312 -0.0024,-0.0074 -0.0044,-0.01481 -0.0067,-0.02222 -0.0019,-0.0023 -0.0041,-0.0043 -0.0057,-0.0067 -0.01722,0.01165 -0.03578,0.02155 -0.05478,0.03049 -0.07985,0.03755 -0.166732,0.05795 -0.250113,0.08682 -0.0758,-0.0083 -0.152725,-0.0092 -0.227375,-0.02481 -0.01521,-0.0032 -0.03002,-0.0067 -0.04496,-0.01085 -0.0064,0.0044 -0.01278,0.0085 -0.01913,0.01292 -0.201636,-0.02517 -0.346001,-0.152406 -0.453202,-0.31936 -0.0535,-0.05435 -0.102796,-0.110878 -0.147278,-0.166398 -0.110844,-0.138348 -0.135189,-0.334413 -0.253214,-0.467672 -0.04606,-0.09503 -0.07637,-0.164281 -0.143145,-0.255281 -0.05141,-0.07006 -0.115922,-0.129491 -0.167431,-0.199471 -0.03165,-0.04301 -0.06166,-0.08599 -0.09043,-0.128675 -0.0355,-0.01555 -0.0707,-0.03074 -0.105421,-0.04444 -0.05241,-0.02069 -0.08121,-0.08326 -0.101285,-0.135909 -0.09408,-0.246635 -0.109855,-0.320426 -0.110069,-0.449069 -0.02315,-0.06835 -0.04415,-0.138982 -0.06253,-0.212906 -0.0011,-0.01421 -0.0021,-0.02526 -0.0031,-0.03772 -0.09728,-0.252174 0.124412,-0.2944233 0.387572,-0.2723348 0.03647,-0.058166 0.07188,-0.1172731 0.106971,-0.1762167 -0.0081,-0.080286 -0.01778,-0.1742572 -0.03204,-0.3033406 0.005,-0.077497 0.0032,-0.1556329 0.0083,-0.2330608 z m 13.728362,0 c 0.01468,0.071494 0.03716,0.1435062 0.06925,0.1999879 0.0126,-0.022725 0.02522,-0.045433 0.03772,-0.068213 -0.03014,-0.044382 -0.0575,-0.090463 -0.08113,-0.1312582 -0.0019,-2.273e-4 -0.0034,-3.44e-4 -0.0052,-5.292e-4 z m 0.02582,5.291e-4 c 0.04621,0.0061 0.09282,0.014584 0.139528,0.024289 0.0045,-0.00827 0.009,-0.016529 0.01344,-0.024805 h -0.15348 c 1.38e-4,2.37e-4 2.65e-4,2.91e-4 5.3e-4,5.291e-4 z m 0.139528,0.024289 c -0.01934,0.035732 -0.03886,0.07135 -0.0584,0.1069702 0.0448,0.065975 0.0942,0.1261417 0.141078,0.1488281 0.01553,0.00752 0.02842,0.01275 0.04237,0.019122 0.06461,-0.00993 0.128241,-0.026382 0.190688,-0.047543 -0.0258,-0.04896 -0.0694,-0.1130694 -0.119375,-0.1834512 -0.0654,-0.014994 -0.131167,-0.03038 -0.196368,-0.043925 z m 12.336714,-0.024805 c -0.0086,0.026138 -0.01815,0.052594 -0.02066,0.076998 -5.29e-4,0.00533 -0.0011,0.010684 -0.0016,0.01602 0.01574,-0.032193 0.02757,-0.056736 0.04547,-0.093018 z m 0.464571,0 c -0.02236,0.027192 -0.04432,0.054787 -0.06201,0.082682 -0.01455,0.034241 -0.029,0.068534 -0.04341,0.1028361 0.0381,0.0274 0.07482,0.057535 0.111103,0.08785 5.3e-4,-0.00175 0.0013,-0.00343 0.0021,-0.00517 0.03126,-0.088783 0.06656,-0.1781376 0.09818,-0.2682008 z m -13.52682,1.1027748 c 0.0019,0.0099 0.0051,0.02054 0.0088,0.03152 1.27e-4,-0.0052 2.65e-4,-0.01059 5.3e-4,-0.01602 -0.0031,-0.0052 -0.0063,-0.01029 -0.0093,-0.0155 z m 14.82235,2.338359 c -0.02585,0.07051 -0.05166,0.14103 -0.07803,0.211357 -7.6e-5,0.07355 1.67e-4,0.147098 0,0.220658 0.03126,-0.172665 0.0489,-0.270272 0.07803,-0.432015 z m -11.8277,0.296623 c -0.03305,0.02447 -0.06976,0.05125 -0.110072,0.0801 0.05362,-0.0033 0.107219,-0.0072 0.160197,-0.01292 -0.01662,-0.02243 -0.03373,-0.0446 -0.05012,-0.06718 z m 1.740979,0.470255 c 0.0091,0.160699 0.01699,0.327657 0.01704,0.499711 0.0024,-0.0053 0.0044,-0.0107 0.0067,-0.01602 0.06444,-0.15143 0.125423,-0.304187 0.185518,-0.457336 -0.06993,-0.0072 -0.139613,-0.01654 -0.209288,-0.02636 z m 5.189863,1.553911 c -0.0031,0.03152 -0.0065,0.06303 -0.0093,0.09457 -0.0104,0.116648 -0.01037,0.235665 -0.01291,0.353984 0.08741,-0.16545 0.154871,-0.305916 0.21704,-0.442867 -0.07795,0.005 -0.1427,0.0031 -0.19482,-0.0057 z m -0.288353,0.896586 c -0.03875,0.0013 -0.0666,0.02184 -0.06253,0.09302 0.02019,-0.03142 0.04158,-0.06204 0.06253,-0.09302 z" />
    </clipPath>
  </defs>
  <g
     inkscape:groupmode="layer"
     id="layer10"
     inkscape:label="Layer 5">
    <path
       id="rect107557"
       style="opacity:0.98;fill:#0c7a59;fill-opacity:1;stroke:none;stroke-width:2;stroke-linecap:round;stroke-linejoin:round;stroke-miterlimit:4;stroke-dasharray:none;stroke-opacity:1"
       d="M 0.15450947,0.11886945 V 70.183843 H 70.219483 V 0.11886945 Z M 32.016648,14.700925 c 0.131886,4.1e-5 0.269689,0.131645 0.283186,0.394291 0.01704,0.331343 -0.03496,0.668971 0.02479,0.997355 0.0026,0.01428 0.01215,0.02649 0.01654,0.04031 0.01482,0.04619 0.02719,0.09298 0.04083,0.139526 0.009,0.03154 0.02188,0.06214 0.02687,0.09457 0.05224,0.342247 5.29e-4,0.05729 0.0098,0.309542 0.0057,0.158074 0.04653,0.3301 0.07183,0.484208 0.02938,0.240346 0.105421,0.472476 0.135393,0.712101 0.0072,0.0067 0.01386,0.01406 0.02016,0.0217 0.05087,0.06171 0.03456,0.152178 0.02946,0.222208 -0.0118,0.04144 -0.0044,0.07944 -0.0031,0.122473 5.3e-5,0.05526 -0.0011,0.110095 -0.0011,0.165365 2.7e-5,0.0069 5.29e-4,0.01429 5.29e-4,0.02119 0.0021,0.525956 -0.529651,0.528048 -0.531751,0.0021 -2.7e-5,-0.0072 2.9e-5,-0.0145 0,-0.0217 -1.17e-4,-0.05136 5.29e-4,-0.102646 0.0011,-0.153996 -5.29e-4,-0.05613 -0.0072,-0.113567 5.29e-4,-0.169499 -0.02716,-0.07598 -0.03685,-0.148812 -0.03927,-0.157096 -9.5e-5,0.0012 -5.29e-4,0.0031 -5.29e-4,0.0067 -0.0059,-0.07574 -0.03249,-0.157746 -0.04754,-0.227377 -0.02786,-0.128891 -0.03078,-0.136808 -0.05943,-0.291971 -0.01024,-0.05542 -0.01892,-0.110848 -0.02842,-0.166399 -0.03344,-0.204092 -0.06941,-0.404182 -0.07751,-0.611332 -0.003,-0.07747 0.02236,-0.0288 0.0093,-0.121956 -0.0044,-0.03136 -0.01765,-0.06102 -0.02635,-0.09147 -0.0071,-0.02446 -0.07063,-0.239439 -0.07493,-0.2651 -0.05931,-0.350667 -0.01535,-0.708091 -0.02842,-1.061434 -0.0097,-0.262812 0.116157,-0.394332 0.248046,-0.394291 z m 0.428397,3.032889 c -0.0034,3.44e-4 -0.0031,0.0033 0.0026,0.0093 0.03631,0.03808 0.08496,0.06272 0.129191,0.09198 -0.0035,-0.0093 -0.0077,-0.01824 -0.01291,-0.02687 -0.01871,-0.03081 -0.103973,-0.07594 -0.118856,-0.07441 z" />
    <rect
       style="opacity:0.98;fill:#e6e6e6;fill-opacity:1;stroke:none;stroke-width:2.89828;stroke-linecap:round;stroke-linejoin:round;stroke-miterlimit:4;stroke-dasharray:none;stroke-opacity:1"
       id="rect113092"
       width="21.079523"
       height="4.0987959"
       x="26.544584"
       y="3.318073" />
  </g>
  <g
     inkscape:groupmode="layer"
     id="layer9"
     inkscape:label="Layer 4">
    <path
       style="fill:#e6e6e6;stroke:#000000;stroke-width:1.75218;stroke-linecap:butt;stroke-linejoin:round;stroke-miterlimit:4;stroke-dasharray:none;stroke-opacity:1"
       d="m 20.274567,6.081628 -3.675995,2.5948197 2.054232,6.0545793 c 0,0 -2.270467,1.946115 -3.784112,4.3247 -1.513645,-0.324352 -6.5951667,-2.16235 -6.5951667,-2.16235 l -2.59482,4.75717 4.9734047,4.000346 c 0,0 -1.6217622,3.675996 -1.4055271,5.513994 -2.702937,0.756821 -7.0276356,1.837996 -7.0276356,1.837996 v 5.297758 l 6.8114005,1.29741 c 0,0 0.2162351,2.919172 1.2974102,5.405873 -2.0542327,1.729881 -4.6490527,4.324701 -4.6490527,4.324701 l 2.3785849,4.540934 6.4870498,-2.270466 c 0,0 1.729879,2.702936 4.432816,4.3247 -1.081174,2.378584 -2.378584,6.487048 -2.378584,6.487048 l 4.540935,2.378584 4.649052,-5.081521 c 0,0 1.513645,1.837998 5.838344,1.946115 0.432471,3.243523 1.081175,7.027637 1.081175,7.027637 h 5.513992 l 1.29741,-7.35199 c 0,0 0.86494,0.756822 5.405875,-1.189292 0.973057,1.405528 4.216582,5.081521 4.216582,5.081521 l 5.081522,-2.702937 -2.378586,-6.270815 c 0,0 2.162351,-1.621762 4.432817,-4.216582 0.973059,0.432471 6.162698,2.162351 6.162698,2.162351 l 2.486702,-4.865287 -5.081522,-4.216583 c 0,0 1.081174,-2.16235 1.837999,-5.730226 1.189292,-0.216236 6.595165,-1.081175 6.595165,-1.081175 L 68.062497,32.570414 61.899802,31.38112 c 0,0 0.32435,-0.108116 -1.513645,-5.94646 1.29741,-0.973059 4.757168,-4.216583 4.757168,-4.216583 L 62.440388,17.109612 56.27769,18.94761 c 0,0 -0.973056,-1.081175 -4.216582,-4.216583 0.540589,-1.837997 1.946116,-6.4870487 1.946116,-6.4870487 L 49.790642,5.8653931"
       id="path105576" />
  </g>
  <g
     inkscape:groupmode="layer"
     id="layer8"
     inkscape:label="Layer 3">
    <path
       id="path108257"
       style="opacity:0.98;fill:#e6e6e6;stroke:#000000;stroke-width:2.06093;stroke-linecap:round;stroke-linejoin:round"
       d="M 109.17018,29.602327 A 19.295904,19.295904 0 0 1 89.874279,48.898231 19.295904,19.295904 0 0 1 70.578374,29.602327 19.295904,19.295904 0 0 1 89.874279,10.306423 19.295904,19.295904 0 0 1 109.17018,29.602327 Z"
       clip-path="url(#clipPath111488)"
       transform="translate(-54.246785,5.1619801)" />
  </g>
  <g
     inkscape:groupmode="layer"
     id="layer7"
     inkscape:label="Layer 2">
    <circle
       style="opacity:0.98;fill:#e6e6e6;stroke:#000000;stroke-width:1.75218;stroke-linecap:round;stroke-linejoin:round;stroke-miterlimit:4;stroke-dasharray:none;stroke-opacity:1"
       id="path106973"
       cx="35.246941"
       cy="35.277069"
       r="11.560102" />
  </g>
  <g
     inkscape:label="Layer 1"
     inkscape:groupmode="layer"
     id="layer1">
    <circle
       style="opacity:0.98;fill:#e6e6e6;stroke:#000000;stroke-width:1.75218;stroke-linecap:round;stroke-linejoin:round;stroke-miterlimit:4;stroke-dasharray:none;stroke-opacity:1"
       id="path105734"
       cx="23.355915"
       cy="4.2976894"
       r="2.7569959" />
    <circle
       style="opacity:0.98;fill:#e6e6e6;stroke:#000000;stroke-width:1.75218;stroke-linecap:round;stroke-linejoin:round;stroke-miterlimit:4;stroke-dasharray:none;stroke-opacity:1"
       id="path105734-2"
       cx="47.412056"
       cy="4.5679832"
       r="2.7569959" />
    <circle
       style="opacity:0.98;fill:#e6e6e6;stroke:#000000;stroke-width:1.75218;stroke-linecap:round;stroke-linejoin:round;stroke-miterlimit:4;stroke-dasharray:none;stroke-opacity:1"
       id="path105734-9"
       cx="35.302898"
       cy="9.3251524"
       r="2.7569959" />
    <circle
       style="opacity:0.98;fill:#e6e6e6;stroke:#000000;stroke-width:1.75218;stroke-linecap:round;stroke-linejoin:round;stroke-miterlimit:4;stroke-dasharray:none;stroke-opacity:1"
       id="path105734-3"
       cx="43.411709"
       cy="17.6502"
       r="2.7569959" />
    <circle
       style="opacity:0.98;fill:#e6e6e6;stroke:#000000;stroke-width:1.75218;stroke-linecap:round;stroke-linejoin:round;stroke-miterlimit:4;stroke-dasharray:none;stroke-opacity:1"
       id="path105734-35"
       cx="27.194086"
       cy="17.650202"
       r="2.7569959" />
    <circle
       style="opacity:0.98;fill:#e6e6e6;stroke:#000000;stroke-width:1.75218;stroke-linecap:round;stroke-linejoin:round;stroke-miterlimit:4;stroke-dasharray:none;stroke-opacity:1"
       id="path105734-6"
       cx="35.302898"
       cy="35.597706"
       r="2.7569959" />
    <path
       style="fill:none;stroke:#000000;stroke-width:1.75218;stroke-linecap:butt;stroke-linejoin:miter;stroke-miterlimit:4;stroke-dasharray:none;stroke-opacity:1"
       d="M 35.086663,11.919972 V 32.354179"
       id="path105923" />
  </g>
</svg>
