<?xml version="1.0" encoding="UTF-8" standalone="no"?>
<!-- Generator: Adobe Illustrator 16.0.0, SVG Export Plug-In . SVG Version: 6.00 Build 0)  -->

<svg
   version="1.1"
   id="Capa_1"
   x="0px"
   y="0px"
   width="18"
   height="18"
   viewBox="0 0 18 18"
   xml:space="preserve"
   sodipodi:docname="twitter-icon.svg"
   inkscape:version="1.1.2 (b8e25be833, 2022-02-05)"
   xmlns:inkscape="http://www.inkscape.org/namespaces/inkscape"
   xmlns:sodipodi="http://sodipodi.sourceforge.net/DTD/sodipodi-0.dtd"
   xmlns="http://www.w3.org/2000/svg"
   xmlns:svg="http://www.w3.org/2000/svg"><defs
   id="defs41">
	
	
</defs><sodipodi:namedview
   id="namedview39"
   pagecolor="#ffffff"
   bordercolor="#666666"
   borderopacity="1.0"
   inkscape:pageshadow="2"
   inkscape:pageopacity="0.0"
   inkscape:pagecheckerboard="0"
   showgrid="false"
   inkscape:zoom="11.313709"
   inkscape:cx="13.921164"
   inkscape:cy="15.291183"
   inkscape:window-width="1920"
   inkscape:window-height="1017"
   inkscape:window-x="-8"
   inkscape:window-y="-8"
   inkscape:window-maximized="1"
   inkscape:current-layer="layer1"
   width="18px"
   inkscape:showpageshadow="2"
   inkscape:deskcolor="#d1d1d1" />

<g
   id="g8">
</g>
<g
   id="g10">
</g>
<g
   id="g12">
</g>
<g
   id="g14">
</g>
<g
   id="g16">
</g>
<g
   id="g18">
</g>
<g
   id="g20">
</g>
<g
   id="g22">
</g>
<g
   id="g24">
</g>
<g
   id="g26">
</g>
<g
   id="g28">
</g>
<g
   id="g30">
</g>
<g
   id="g32">
</g>
<g
   id="g34">
</g>
<g
   id="g36">
</g>
<g
   inkscape:groupmode="layer"
   id="layer1"
   inkscape:label="Layer 1"><rect
     style="fill:#5e5e5e;fill-opacity:0.63921571;stroke:#3b3b3b;stroke-width:0.0355944;stroke-opacity:1"
     id="rect285"
     width="18.303791"
     height="18.231848"
     x="0.00037116764"
     y="-5.583539e-05" /></g><g
   inkscape:groupmode="layer"
   id="layer2"
   inkscape:label="Layer 2"><path
     d="m -10.442064,-8.1459013 h -3.55152 v -2.1290657 c 0,-0.653066 0.822424,-0.804525 1.20628,-0.804525 0.381302,0 2.294278,0 2.294278,0 v -2.873191 l -2.629484,-0.01127 c -3.587569,0 -4.406404,2.142365 -4.406404,3.516038 v 2.3020747 h -2.603245 v 2.9601875 h 2.603245 c 0,3.800614 0,7.992188 0,7.992188 h 3.53533 c 0,0 0,-4.234614 0,-7.992188 h 3.003213 z"
     fill="#365899"
     id="path4"
     style="fill:#ffffff;stroke-width:0.0722818" /><path
     d="M 15.589352,4.8373323 C 15.372503,4.9661741 14.721957,5.2231035 14.115264,5.2875748 14.504253,5.0617242 15.08022,4.3218643 15.222438,3.73413 14.848485,3.9910593 13.98954,4.3658675 13.565397,4.3658675 c 0,0 0,0.00118 7.9e-4,0.00194 -0.484246,-0.5449248 -1.164814,-0.8843794 -1.920717,-0.8843794 -1.466142,0 -2.6557908,1.2804229 -2.6557908,2.8602186 0,0.2192627 0.024189,0.4322391 0.068243,0.6372694 H 9.0570715 C 7.0675194,6.9259098 4.7416774,5.852127 3.4309804,4.0138425 2.6263477,5.5150867 3.3225558,7.1843983 4.2363677,7.79265 3.9244215,7.8186006 3.3477009,7.7541283 3.0766402,7.4704457 c -0.018857,0.995582 0.4266566,2.3157331 2.0485451,2.7941883 -0.3128512,0.181545 -0.8644772,0.129696 -1.1055657,0.08957 0.084839,0.842351 1.1786366,1.942335 2.3737681,1.942335 -0.4259529,0.52975 -1.879472,1.493901 -3.6782288,1.186632 1.2219859,0.801565 2.6465385,1.265134 4.1543699,1.265134 4.2849212,0 7.6126342,-3.739482 7.4335012,-8.3527442 0,-0.00553 -0.0015,-0.011016 -0.0015,-0.015737 0,-0.012571 0.0015,-0.025149 0.0015,-0.036158 0,-0.014133 -0.0015,-0.028259 -0.0015,-0.0432 0.389746,-0.2860479 0.913007,-0.7936706 1.287866,-1.4631253 z"
     fill="#55acee"
     id="path1833"
     style="fill:#ffffff;stroke-width:0.0502893" /></g></svg>
